<svg width="28" height="27" viewBox="0 0 28 27" fill="none" xmlns="http://www.w3.org/2000/svg">
<path d="M6.22225 16.2222H16.8889V13.5555H6.22225V16.2222ZM6.22225 12.2222H22.2222V9.5555H6.22225V12.2222ZM6.22225 8.22217H22.2222V5.5555H6.22225V8.22217ZM0.888916 26.8888V2.88883C0.888916 2.1555 1.15025 1.5275 1.67292 1.00483C2.19469 0.483057 2.82225 0.222168 3.55558 0.222168H24.8889C25.6222 0.222168 26.2502 0.483057 26.7729 1.00483C27.2947 1.5275 27.5556 2.1555 27.5556 2.88883V18.8888C27.5556 19.6222 27.2947 20.2502 26.7729 20.7728C26.2502 21.2946 25.6222 21.5555 24.8889 21.5555H6.22225L0.888916 26.8888Z" fill="#F2405C"/>
</svg>
