<svg width="45" height="41" viewBox="0 0 45 41" fill="none" xmlns="http://www.w3.org/2000/svg">
<path d="M22.4441 40.1405C22.0355 40.1385 21.6335 40.0363 21.2735 39.8429C20.4203 39.3468 0.221931 27.8786 0.221931 13.1564C0.219188 10.5759 1.00268 8.05583 2.46805 5.9318C3.93343 3.80778 6.01114 2.1806 8.42446 1.26698C10.8378 0.353366 13.4722 0.196678 15.9768 0.817786C18.4814 1.43889 20.7373 2.80832 22.4441 4.74367C24.151 2.80832 26.4069 1.43889 28.9115 0.817786C31.4161 0.196678 34.0505 0.353366 36.4638 1.26698C38.8772 2.1806 40.9549 3.80778 42.4202 5.9318C43.8856 8.05583 44.6691 10.5759 44.6664 13.1564C44.6664 27.8786 24.468 39.3468 23.6148 39.8429C23.2548 40.0363 22.8528 40.1385 22.4441 40.1405ZM12.9203 5.21986C10.8154 5.21986 8.79677 6.05603 7.30838 7.54441C5.82 9.03279 4.98383 11.0515 4.98383 13.1564C4.98383 23.3151 18.3568 32.4421 22.4441 34.9818C26.5314 32.4421 39.9045 23.3151 39.9045 13.1564C39.9026 11.3233 39.2664 9.54745 38.1037 8.13032C36.9411 6.7132 35.3237 5.74221 33.5264 5.38228C31.729 5.02234 29.8625 5.29565 28.2438 6.15578C26.6251 7.01591 25.3541 8.40984 24.6465 10.1008C24.4671 10.5375 24.162 10.911 23.7698 11.1739C23.3777 11.4367 22.9162 11.5771 22.4441 11.5771C21.972 11.5771 21.5106 11.4367 21.1185 11.1739C20.7263 10.911 20.4211 10.5375 20.2418 10.1008C19.6411 8.65421 18.6249 7.4183 17.3216 6.54945C16.0184 5.68061 14.4867 5.2179 12.9203 5.21986Z" fill="#F2405C"/>
</svg>
