<svg width="36" height="37" viewBox="0 0 36 37" fill="none" xmlns="http://www.w3.org/2000/svg">
<path d="M25.4101 23.1398H23.8041L23.2349 22.5909C25.296 20.2003 26.4288 17.1482 26.4266 13.9917C26.4266 11.3783 25.6516 8.8235 24.1996 6.65049C22.7477 4.47747 20.6839 2.78381 18.2694 1.78369C15.8549 0.783557 13.198 0.521878 10.6348 1.03174C8.07153 1.5416 5.71704 2.8001 3.86905 4.6481C2.02105 6.4961 0.762548 8.85059 0.252687 11.4138C-0.257175 13.9771 0.00450467 16.634 1.00463 19.0485C2.00476 21.463 3.69842 23.5267 5.87144 24.9787C8.04445 26.4307 10.5992 27.2056 13.2127 27.2056C16.4857 27.2056 19.4944 26.0062 21.8119 24.014L22.3608 24.5832V26.1892L32.5253 36.3334L35.5543 33.3044L25.4101 23.1398ZM13.2127 23.1398C8.15074 23.1398 4.0646 19.0537 4.0646 13.9917C4.0646 8.9298 8.15074 4.84365 13.2127 4.84365C18.2746 4.84365 22.3608 8.9298 22.3608 13.9917C22.3608 19.0537 18.2746 23.1398 13.2127 23.1398Z" fill="white"/>
</svg>
