<?xml version="1.0" encoding="UTF-8"?>
<svg xmlns="http://www.w3.org/2000/svg" version="1.1" viewBox="0 0 50 50">
  <defs>
    <style>
      .cls-1 {
        fill: #b4b4b5;
      }
    </style>
  </defs>
  <!-- Generator: Adobe Illustrator 28.7.1, SVG Export Plug-In . SVG Version: 1.2.0 Build 142)  -->
  <g>
    <g id="Layer_1">
      <path class="cls-1" d="M36.9,42.7c-.2-1.3-1.4-7.6-4.2-15.2,6.9-1.1,12.9.8,13.3.9-.5,2.9-1.5,5.6-3.1,8.1-1.6,2.5-3.6,4.6-6.1,6.2ZM25,46.3c-5,0-9.8-1.7-13.6-4.9.3.2.5.4.5.4,0,0,4.1-8.9,16.8-13.3,0,0,0,0,.1,0,3,7.8,4.2,14.3,4.6,16.2-2.6,1.1-5.5,1.7-8.3,1.7h0ZM3.6,25c0-.2,0-.4,0-.7.4,0,10.9.2,21.9-3,.6,1.2,1.2,2.4,1.7,3.6-.3,0-.6.2-.8.3-11.5,3.7-17.4,14.1-17.4,14.1h0c-3.5-3.9-5.5-9-5.5-14.3h0ZM15.9,5.7c2.9,3.9,5.5,8.1,7.9,12.3-10.2,2.7-19.1,2.6-19.7,2.6.7-3.2,2.1-6.2,4.1-8.8,2-2.6,4.7-4.7,7.6-6.1ZM19.9,4.3h0s0,0,0,0h0ZM39.1,9c0,0-3.1,4.7-11.2,7.7-2.4-4.3-5-8.5-8-12.5,3.3-.8,6.8-.8,10.1,0,3.3.8,6.4,2.4,9,4.7h0ZM46.3,24.8c-.3,0-7.5-1.6-14.9-.7l-.5-1.1c-.4-1-.9-2.1-1.4-3.1,8.4-3.4,11.9-8.4,11.9-8.4,3.1,3.8,4.8,8.5,4.9,13.3ZM49.5,20c-.3-1.6-.8-3.2-1.5-4.7-1.9-4.5-5-8.3-9.1-11-1.3-.9-2.8-1.7-4.2-2.3C31.6.7,28.3,0,25,0s-6.7.7-9.7,2c-4.5,1.9-8.3,5-11,9.1C1.5,15.1,0,20,0,25c0,3.3.7,6.7,2,9.7.6,1.5,1.4,2.9,2.3,4.2,2.7,4,6.5,7.2,11,9.1,1.5.6,3.1,1.1,4.7,1.5,5,1,10.1.5,14.8-1.5,1.5-.6,2.9-1.4,4.2-2.3,1.3-.9,2.6-1.9,3.7-3,2.9-2.9,5.1-6.5,6.3-10.5,1.2-4,1.4-8.2.5-12.2h0Z"/>
    </g>
  </g>
</svg>