<?xml version="1.0" encoding="UTF-8"?>
<svg xmlns="http://www.w3.org/2000/svg" version="1.1" viewBox="0 0 50 50">
  <defs>
    <style>
      .cls-1 {
        fill: #b4b4b5;
      }
    </style>
  </defs>
  <!-- Generator: Adobe Illustrator 28.7.1, SVG Export Plug-In . SVG Version: 1.2.0 Build 142)  -->
  <g>
    <g id="Layer_1">
      <path class="cls-1" d="M25.5,0c6.3,0,12.4,2.2,17.1,6.5l-7.3,7.1c-2.7-2.5-6.2-3.8-9.8-3.7-6.5,0-12.2,4.2-14.3,10.3-1.1,3.1-1.1,6.5,0,9.6,2.1,6.1,7.8,10.3,14.3,10.3,3.4,0,6.4-.9,8.7-2.4,2.7-1.8,4.5-4.5,5.1-7.6h-13.8v-9.6h24c.3,1.7.4,3.4.4,5.1,0,7.6-2.8,14.1-7.6,18.4-4.2,3.8-10,6-16.9,6-9.6,0-18.4-5.3-22.8-13.8-3.6-7.1-3.6-15.4,0-22.5C7.1,5.3,15.9,0,25.5,0h0Z"/>
    </g>
  </g>
</svg>