<?xml version="1.0" encoding="UTF-8"?>
<svg xmlns="http://www.w3.org/2000/svg" version="1.1" viewBox="0 0 50 50">
  <defs>
    <style>
      .cls-1 {
        fill: #fff;
        fill-rule: evenodd;
      }

      .cls-2 {
        fill: #b4b4b5;
      }
    </style>
  </defs>
  <!-- Generator: Adobe Illustrator 28.7.1, SVG Export Plug-In . SVG Version: 1.2.0 Build 142)  -->
  <g>
    <g id="Layer_1">
      <g>
        <circle class="cls-2" cx="25" cy="25" r="25"/>
        <path class="cls-1" d="M23.8,31.6c0,4.2,5.3,3.9,7.6,1.8,4.4-4,5.2-11.1,1.4-15.7-3.8-4.6-10.6-5.2-15.2-1.4-3.9,3.2-4.9,8.5-2.9,12.8.6,1.2.7,2.6.3,3.9h0c0,.3-.2.4-.5.6-.2.1-.5.1-.7,0-2.6-1.3-4.5-4.9-4.5-9,0-8.4,6.9-15.2,15.5-15.2s15.5,6.8,15.5,15.2-6.1,14.9-13.9,14.2c-2.4-.2-3.8-1.5-4.5-2.9-.7,2.7-1.6,5.8-2.2,7.4-.7,1.7-1.6,3.2-2.4,4.4-.2.3-.7.5-1.1.4-.4-.1-.7-.5-.7-.9,0-1.4,0-3.2.2-4.8.4-2.2,1.4-7,2.2-10.3.4-1.8.5-3.7.2-5.5-.2-1.1-.2-2.8.6-4.7,1.6-4.3,7.3-3.2,6.8,1.4-.2,2-2,5-2,8.4Z"/>
      </g>
    </g>
  </g>
</svg>