<?xml version="1.0" encoding="UTF-8"?>
<svg xmlns="http://www.w3.org/2000/svg" version="1.1" viewBox="0 0 120 20">
  <defs>
    <style>
      .cls-1 {
        fill: #010101;
      }
    </style>
  </defs>
  <!-- Generator: Adobe Illustrator 28.7.1, SVG Export Plug-In . SVG Version: 1.2.0 Build 142)  -->
  <g>
    <g id="Layer_1">
      <path class="cls-1" d="M10.2,2l2.4,4.8.2.4h.4c0,0,5.3.8,5.3.8l-3.9,3.8-.3.3v.4c0,0,1,5.3,1,5.3l-4.8-2.5-.4-.2-.4.2-4.8,2.5.9-5.3v-.4c0,0-.2-.3-.2-.3l-3.9-3.8,5.3-.8h.4c0,0,.2-.5.2-.5l2.4-4.8M10.2,0l-3.1,6.4L0,7.5l5.1,5-1.2,7,6.3-3.3,6.3,3.3-1.2-7,5.1-5-7-1L10.2,0h0Z"/>
      <path class="cls-1" d="M35.1,2l2.4,4.8.2.4h.4c0,0,5.3.8,5.3.8l-3.9,3.8-.3.3v.4c0,0,1,5.3,1,5.3l-4.8-2.5-.4-.2-.4.2-4.8,2.5.9-5.3v-.4c0,0-.2-.3-.2-.3l-3.9-3.8,5.3-.8h.4c0,0,.2-.5.2-.5l2.4-4.8M35.1,0l-3.1,6.4-7,1,5.1,5-1.2,7,6.3-3.3,6.3,3.3-1.2-7,5.1-5-7-1L35.1,0h0Z"/>
      <path class="cls-1" d="M60,2l2.4,4.8.2.4h.4c0,0,5.3.8,5.3.8l-3.9,3.8-.3.3v.4c0,0,1,5.3,1,5.3l-4.8-2.5-.4-.2-.4.2-4.8,2.5.9-5.3v-.4c0,0-.2-.3-.2-.3l-3.9-3.8,5.3-.8h.4c0,0,.2-.5.2-.5l2.4-4.8M60,0l-3.1,6.4-7,1,5.1,5-1.2,7,6.3-3.3,6.3,3.3-1.2-7,5.1-5-7-1L60,0h0Z"/>
      <path class="cls-1" d="M84.9,2l2.4,4.8.2.4h.4c0,0,5.3.8,5.3.8l-3.9,3.8-.3.3v.4c0,0,1,5.3,1,5.3l-4.8-2.5-.4-.2-.4.2-4.8,2.5.9-5.3v-.4c0,0-.2-.3-.2-.3l-3.9-3.8,5.3-.8h.4c0,0,.2-.5.2-.5l2.4-4.8M84.9,0l-3.1,6.4-7,1,5.1,5-1.2,7,6.3-3.3,6.3,3.3-1.2-7,5.1-5-7-1L84.9,0h0Z"/>
      <path class="cls-1" d="M109.8,2l2.4,4.8.2.4h.4c0,0,5.3.8,5.3.8l-3.9,3.8-.3.3v.4c0,0,1,5.3,1,5.3l-4.8-2.5-.4-.2-.4.2-4.8,2.5.9-5.3v-.4c0,0-.2-.3-.2-.3l-3.9-3.8,5.3-.8h.4c0,0,.2-.5.2-.5l2.4-4.8M109.8,0l-3.1,6.4-7,1,5.1,5-1.2,7,6.3-3.3,6.3,3.3-1.2-7,5.1-5-7-1L109.8,0h0Z"/>
    </g>
  </g>
</svg>