<?xml version="1.0" encoding="UTF-8"?>
<svg xmlns="http://www.w3.org/2000/svg" version="1.1" viewBox="0 0 50 50">
  <defs>
    <style>
      .cls-1 {
        fill: #b4b4b5;
      }
    </style>
  </defs>
  <!-- Generator: Adobe Illustrator 28.7.1, SVG Export Plug-In . SVG Version: 1.2.0 Build 142)  -->
  <g>
    <g id="Layer_1">
      <path class="cls-1" d="M0,40.9c5.5.5,10.5-.9,15-4.3-4.7-.4-7.9-2.8-9.6-7.2,1.5.2,3,.2,4.5-.2-5.1-1.6-7.8-4.9-8.2-10.3,1.5.7,3,1.2,4.7,1.2-3-2.3-4.6-5.2-4.5-8.9,0-1.7.5-3.3,1.4-4.8,5.6,6.5,12.6,10.2,21.2,10.8,0-.4,0-.7-.1-1-.7-5.5,2.8-10.5,8.3-11.5,3.4-.7,6.4.2,9,2.6.4.4.7.4,1.2.3,2-.5,3.9-1.2,5.7-2.2-.7,2.3-2.1,4.1-4.1,5.5.4,0,.9-.1,1.3-.2.5,0,.9-.2,1.4-.3.4-.1.9-.3,1.3-.4.4-.1.9-.3,1.4-.4-.3.4-.5.7-.8,1.1-1.1,1.5-2.5,2.7-3.9,3.9-.1.1-.3.4-.3.6,0,3.5-.4,6.9-1.6,10.3-2.2,6.6-6.1,11.9-12,15.6-2.9,1.9-6,3.1-9.4,3.8-3.3.7-6.7.8-10.1.4-3.4-.4-6.6-1.4-9.6-3-.8-.4-1.6-.9-2.4-1.3,0,0,0,0,0-.1Z"/>
    </g>
  </g>
</svg>