<?xml version="1.0" encoding="UTF-8"?>
<svg id="Layer_1" xmlns="http://www.w3.org/2000/svg" viewBox="0 0 3454.18 1311.54">
  <defs>
    <style>
      .cls-1 {
        fill: #ef4823;
      }

      .cls-2 {
        fill: #213970;
      }

      .cls-3, .cls-4 {
        fill: #39535a;
      }

      .cls-5 {
        fill: #620f00;
      }

      .cls-6, .cls-7, .cls-8 {
        fill: #5495d0;
      }

      .cls-9 {
        fill: #d3401f;
      }

      .cls-10 {
        fill: #0a2025;
      }

      .cls-7 {
        opacity: .61;
      }

      .cls-7, .cls-4, .cls-8 {
        isolation: isolate;
      }

      .cls-4 {
        opacity: .57;
      }

      .cls-8 {
        opacity: .36;
      }

      .cls-11 {
        fill: #5f96b5;
      }

      .cls-12 {
        fill: #2b3e99;
      }

      .cls-13 {
        fill: #58caef;
      }

      .cls-14 {
        fill: #5662a3;
      }
    </style>
  </defs>
  <g>
    <path class="cls-1" d="M1286.53,503.88c-50.19-81.89-166.43-381.29-166.43-381.29,0,0-4.64-19.3-20.26-23.32-4.21-3.13-23.72-14.86-64.86-.46-17.9,6.27-19.25,52.13-14.07,106.48-13.03,39.34-23.18,83.87-26.73,122.47-8.22,89.23,48.14,542.43,48.14,542.43l463.47-314.36s-169.07,29.94-219.26-51.95Z"/>
    <path class="cls-2" d="M1042.31,872.86c-.37,0-.74-.08-1.09-.24-.84-.38-1.42-1.17-1.54-2.09-.56-4.53-56.3-454.51-48.15-543,3.39-36.79,13.11-81.41,26.68-122.53-6.36-67.17-1.16-102.72,15.88-108.68,40.72-14.25,61.06-3.62,66.9.53,15.91,4.45,21.07,22.76,21.63,24.95,3.2,8.22,117.11,300.69,166.16,380.71h0c25.31,41.3,82.62,52.93,126.24,55.42,47.69,2.72,89.87-4.62,90.29-4.69,1.24-.24,2.45.45,2.92,1.61.47,1.16.07,2.49-.97,3.19l-463.47,314.36c-.45.31-.97.46-1.49.46ZM1071.48,94.49c-9.24,0-21.02,1.72-35.62,6.84-9.8,3.43-19.88,24.21-12.3,103.72.04.37,0,.74-.12,1.09-13.54,40.9-23.24,85.32-26.61,121.88-7.67,83.29,41.87,490.94,47.6,537.55l450.22-305.38c-39.53,5.22-166.96,15.92-210.38-54.92h0c-49.74-81.16-165.48-378.72-166.64-381.71-.04-.11-.08-.22-.1-.34-.04-.18-4.49-17.81-18.34-21.37-.33-.08-.65-.24-.92-.44-2.13-1.59-10.53-6.92-26.78-6.92Z"/>
  </g>
  <g>
    <path class="cls-1" d="M2678.71,901.9l732.64,95.1s28.18-1.76,36.98,17.61c8.81,19.37-1.76,38.74-15.85,40.51s-925.48,39.63-925.48,39.63l171.71-192.85Z"/>
    <path class="cls-9" d="M3363.33,1027.03c-33.91-1.66-67.79-3.82-101.67-5.99-34.57-2.21-69.18-3.47-103.8-4.44-69.88-1.96-139.81-2.69-209.64-6.26-13.7-.7-27.46-2.13-41.18-2.2-8.78-.05-17.56.29-26.34-.14-11.8-.57-33.56-2.53-32.02-19.13.78-8.42,7.11-14.37,13.22-19.56,8.2-6.96,17.23-12.83,25.77-19.34,4.33-3.3,8.21-7.06,12.29-10.65,2.89-2.54,5.81-5.05,8.74-7.56l-229.99-29.85-171.71,192.84s911.39-37.86,925.48-39.63c10.31-1.29,18.7-12.03,19.02-25.28-29.41-.33-58.81-1.38-88.17-2.81Z"/>
    <path class="cls-5" d="M2507,1097.4c-1.02,0-1.96-.59-2.4-1.52-.46-.96-.29-2.1.42-2.9l171.71-192.84c.58-.66,1.46-.99,2.32-.87l732.39,95.07c3.18-.13,30.22-.81,39.3,19.18,4.79,10.54,4.56,22.36-.62,31.62-4,7.14-10.31,11.74-17.32,12.62-14.04,1.76-888.48,38.1-925.7,39.64-.04,0-.08,0-.11,0ZM2679.76,904.71l-166.61,187.12c80.66-3.36,905.79-37.69,919.01-39.35,5.32-.66,10.18-4.29,13.34-9.94,4.36-7.79,4.51-17.82.42-26.83-7.93-17.45-34.14-16.07-34.41-16.06-.17,0-.34,0-.5-.02l-731.24-94.92Z"/>
  </g>
  <g>
    <path class="cls-13" d="M1450.31,555.84s-169.07,29.94-219.26-51.95c-50.19-81.89-166.43-381.29-166.43-381.29,0,0-8.51-35.52-41.39-20.25-32.88,15.26-76.32,136.2-84.54,225.43-8.22,89.23,48.14,542.43,48.14,542.43l463.47-314.36Z"/>
    <path class="cls-13" d="M978.89,208.76c-10.61,32.13-18.25,65.47-22.12,99.09-5.44,47.22-3.99,94.95.96,142.14,2.38,22.73,5.96,45.24,9.22,67.85,2.71,18.82,4.43,37.76,6.35,56.66,3.66,36.02,7.15,73.83,21.32,107.55.12-3.52.26-7.04.31-10.56.63-43.63-3.56-87.17-7.44-130.58-3.96-44.23-7.4-88.49-8.15-132.9-.67-40.47.19-81,1.41-121.46,1.01-33.48,3.19-67.24,10.98-99.93,2.34-9.8,5.23-19.51,8.79-28.95-.95,1.71-1.88,3.44-2.78,5.17-7.65,14.69-13.66,30.2-18.85,45.91Z"/>
    <path class="cls-7" d="M1231.05,503.88c-50.19-81.89-166.43-381.29-166.43-381.29,0,0-4.98-20.7-21.98-23.68.92,38.86,6.88,77.58,15.32,115.46,10.16,45.59,24.08,90.29,39.84,134.23,7.54,21.01,15.53,41.86,23.83,62.58,8.53,21.3,17.16,42.54,27.78,62.9,10.89,20.88,23.42,40.87,37,60.11,3.44,4.87,6.94,9.69,10.5,14.47,3.36,4.51,7.33,8.56,10.93,12.89,5.56,6.69,10.82,13.97,13.12,22.49,4.04,14.95-1.78,29.58-10.77,41.37-9.55,12.53-21.74,22.97-34.23,32.45-13.96,10.6-28.81,20.05-44.12,28.58-12.58,7-25.56,13.57-39.09,18.57-14.5,5.35-30.31,7.91-45.56,4.38-14.44-3.34-26.9-12-36.62-23-21.82-24.68-31.77-58.09-38.93-89.56-10.89-47.85-20.77-95.96-28.71-144.4,12.5,165.16,43.91,417.8,43.91,417.8l463.47-314.36s-169.07,29.94-219.26-51.95Z"/>
    <path class="cls-2" d="M986.84,872.86c-.37,0-.74-.08-1.1-.24-.84-.38-1.42-1.17-1.54-2.09-.56-4.53-56.3-454.51-48.15-543,7.88-85.59,51.03-211.33,86.06-227.59,10.41-4.83,19.67-5.35,27.52-1.56,12.72,6.15,17.01,21.45,17.52,23.42,3.2,8.22,117.11,300.69,166.16,380.71,25.31,41.3,82.62,52.93,126.24,55.42,47.69,2.72,89.87-4.62,90.29-4.69,1.24-.23,2.45.45,2.92,1.61.47,1.16.07,2.49-.97,3.19l-463.47,314.36c-.45.31-.97.46-1.49.46ZM1038.48,101.19c-4.3,0-9.02,1.19-14.13,3.56-30.48,14.15-74.7,133.09-83.01,223.26-7.67,83.29,41.87,490.94,47.6,537.55l450.22-305.38c-39.54,5.22-166.96,15.92-210.38-54.92-49.74-81.16-165.48-378.72-166.64-381.71-.04-.11-.08-.23-.11-.34-.04-.15-3.69-14.76-14.74-20.08-2.7-1.3-5.64-1.95-8.82-1.95Z"/>
  </g>
  <g>
    <path class="cls-1" d="M3098.74,320.73S2993.07,19.57,2750.04,3.72c-243.04-15.85-644.58,150.58-858.56,269.45S921.97,830.58,858.57,923.04c-63.4,92.46-76.61,188.44,67.8,264.17,0,0,460.54,145.29,1094.55,44.91,634.01-100.39,1122.73-388.33,1246.89-594.39,124.16-206.05-169.07-317.01-169.07-317.01Z"/>
    <path class="cls-13" d="M1010.39,1118.48c32.81-48.97,76.51-89.87,127.14-119.98,54.62-32.49,115.56-53.08,177.06-68.04,122.75-29.84,249.87-35.16,372.48-65.21,111.4-27.31,220.56-72.68,310.28-145.32,90.37-73.17,153.89-172.22,183.03-284.69-11.29,10.29-22.71,20.45-34.3,30.42-96.4,82.87-203.41,153.03-318.83,206.46-57.22,26.48-116.27,48.92-176.5,67.55-62.36,19.29-125.73,33.6-189.69,46.36-90.91,18.13-183.39,27.45-274.82,42.48-98.86,16.26-198.88,37.03-290.79,78.1-13.11,5.86-26.03,12.21-38.65,19.05-61.85,91.65-73.46,186.53,69.58,261.54,0,0,14.98,4.72,43.25,11.88,10.09-28.46,24.02-55.61,40.77-80.61Z"/>
    <path class="cls-9" d="M2946.48,134.89c-19.26-1.64-38.38-2.93-57.57-5.19-72.14-8.49-145.16-4.56-217.43.15-55.04,3.59-111.23,12.33-159.33,41-22.13,13.19-43.57,30.47-59.42,50.92-9.38,12.1-17.35,25.39-24.76,38.76-9.67,17.46-18.29,35.63-24.73,54.55-5.65,16.59-10.41,34.81-8.37,52.48,1.85,16.03,11.16,28.44,26.89,33.03,13.22,3.86,26.87,2.23,40.15-.46,15.31-3.1,30.24-7.41,45.7-9.76,36.5-5.54,73.02-11.41,109.39-17.7,35.94-6.22,71.76-13.14,107.75-19.12,72.42-12.02,145.38-16.82,218.62-20.38,37.08-1.8,74.17-3.39,111.23-5.62,17.54-1.05,35.06-2.29,52.58-3.36-5.39-2.31-8.46-3.47-8.46-3.47,0,0-32.72-93.17-103.56-178.6-15.74-4.47-32.66-5.87-48.7-7.23Z"/>
    <path class="cls-1" d="M1026.2,797.01c21.19-11.63,42.99-22.21,64.39-33.46,42.95-22.58,85.55-45.91,126.83-71.43,83.72-51.76,168.89-101.41,253.82-151.18,163.74-95.95,331.7-184.39,501.05-270,160.69-81.24,326.3-156.79,501.85-199.71,78.49-19.19,160.72-33.99,241.76-34.59,53.96-.4,108.37,7.72,160.5,21.37,15.45,4.05,31.59,8.87,47.87,14.55-47.52-36.96-105.35-64.36-174.21-68.85-243.04-15.85-644.58,150.58-858.56,269.45-165.98,92.21-657.79,376.74-899.67,542.91,11.56-6.16,22.89-12.76,34.39-19.07Z"/>
    <path class="cls-1" d="M2261.86,206.94c-36.4,25.71-69.71,57.94-90.63,97.72,1.99-.17,3.96-.42,5.92-.82,11.59-2.34,22.43-7.67,32.73-13.31,10.65-5.83,20.89-12.38,31.45-18.38,10.58-6.01,33.11-19.5,39.85-1.69,1.79,4.72,2.1,10,2.11,15,.01,7.99-.99,15.97-2.21,23.86-3.45,22.36-5.96,44.85-7.45,67.43-2.93,44.47-2.02,89.23,3.07,133.51,4.87,42.32,13.67,84.21,26.74,124.77.26-3.37.49-6.74.66-10.11,2.17-42.42-2.16-84.76-5.58-126.99-3.37-41.71-5.66-83.76,0-125.37,2.47-18.18,6.59-36.16,11.39-53.86,4.29-15.84,9.38-31.48,15.45-46.73,11.43-28.71,26.44-55.93,45.35-80.4,17.19-22.25,37.39-41.92,59.5-59.22-13.82,3.15-27.48,6.97-40.95,11.37-45.13,14.76-88.57,35.82-127.39,63.23Z"/>
    <path class="cls-9" d="M3140.01,339.9c-60.24-16.91-126.07-1.19-183.22,21.29-73.34,28.85-140.71,71.12-206.78,113.56-26.99,17.34-53.75,35.13-81.43,51.37-44.61,26.18-90.92,49.74-137.62,71.94-96.51,45.88-196.33,84.7-297.89,117.87-101.46,33.14-204.59,59.57-308.61,83.3-112.09,25.56-224.73,48.97-338.27,67.16-110.48,17.69-222.24,31.2-334.15,34.74-33.55,1.06-68.25-.06-100.87-8.66-23.57-6.21-49.87-17.82-59.65-41.95-11.9-29.35,4.99-62.77,20.47-87.24,12.23-19.34,26.52-37.16,42.31-53.55-152.18,96.21-272.1,178.83-295.75,213.31-63.4,92.46-76.61,188.44,67.8,264.17,0,0,460.54,145.29,1094.55,44.91,634.01-100.39,1122.73-388.33,1246.89-594.39,94.19-156.32-51.82-257.9-127.81-297.83Z"/>
    <path class="cls-8" d="M1718.76,1221.31c10.77-28.48,23.1-56.94,38.07-83.49,17.94-31.8,41.43-59.91,65.89-86.84,3.24-3.57,6.5-7.12,9.76-10.67,2.42-2.63,4.75-5.73,7.5-8,3.14-2.6,6.7-4.8,9.93-7.31,9.56-7.42,19.02-15.28,27.21-24.22,3.06-3.34,6.68-7.2,8.12-11.61,1.08-3.3.91-7.45.53-10.87-.74-6.71-3.81-12.79-8.7-17.45-11.8-11.24-30.26-14.22-45.82-15.71-20.5-1.95-41.27-.92-61.72,1.02-19,1.81-37.91,4.58-56.7,7.94-13.26,2.36-26.3,4.92-39.66,6.66-45.06,5.87-89.76,14.69-133.78,25.93-49.56,12.65-98.39,28.47-145.57,48.26-47.14,19.77-92.88,43.59-134.57,73.28-39.21,27.92-75.12,61.44-101.92,101.65-5.25,7.87-10.07,15.99-14.5,24.29,136.24,21.86,329.97,40.92,561.38,30.22,4.31-14.54,9.2-28.92,14.56-43.08Z"/>
    <path class="cls-5" d="M1571.51,1269.95c-133.05,0-247.3-9.16-335.94-20.01-192.4-23.53-308.84-59.84-310-60.2-.15-.05-.3-.11-.43-.18-62.59-32.82-99.94-72.08-111.02-116.7-11-44.31,2.82-93.81,42.26-151.32,64.32-93.79,824.48-534.39,1033.81-650.68C2101.2,153.62,2504.31-15.01,2750.21,1.07c69.86,4.56,172.97,36.97,267.46,165.52,52.58,71.53,79.55,142.27,83.16,152.1,14.24,5.67,155.36,64.26,191.65,169.04,16.67,48.12,9.13,99.05-22.4,151.37-64.88,107.67-222.82,230.8-433.32,337.82-167.75,85.28-445.39,199.23-815.43,257.82-164.12,25.99-316.42,35.21-449.82,35.21ZM927.39,1184.75c5.78,1.79,121,36.97,308.98,59.95,177.16,21.65,457,36.6,784.13-15.19,369.36-58.48,646.44-172.21,813.85-257.31,209.64-106.58,366.8-228.98,431.18-335.82,30.67-50.91,38.05-100.33,21.93-146.9-37.23-107.5-188.14-165.68-189.66-166.26-.73-.28-1.31-.87-1.56-1.6-.26-.75-26.99-75.9-82.93-151.98-93.26-126.82-194.74-158.78-263.44-163.26-244.7-16.02-646.64,152.2-857.09,269.13-209.09,116.16-968.23,556.03-1032.01,649.04-38.53,56.19-52.1,104.29-41.48,147.04,10.68,43.03,47.06,81.1,108.11,113.16Z"/>
  </g>
  <g>
    <path class="cls-13" d="M1021.47,868.44s14.09-50.19-47.55-45.79c-61.64,4.4-714.14-12.33-723.83,0-9.69,12.33-3.52,14.09,5.28,20.25,8.81,6.16,686.85,88.06,686.85,88.06,0,0,34.34,10.57,51.95-7.04,17.61-17.61,27.3-55.48,27.3-55.48Z"/>
    <path class="cls-6" d="M1002.23,825.64c.56,14.37-15.33,21.24-27.32,24.05-9.36,2.2-19,2.58-28.56,3.1-14.24.78-28.51,1.15-42.77,1.2-58.07.2-115.98-4.81-173.87-8.84-58.94-4.11-118-5.86-177.02-8.26-59.26-2.4-118.51-5.09-177.67-9.29-41.75-2.96-83.71-1.63-125.43-4.27-8.89,11.68-2.83,13.52,5.8,19.56,8.81,6.16,686.85,88.06,686.85,88.06,0,0,34.34,10.57,51.95-7.04,17.61-17.61,27.3-55.48,27.3-55.48,0,0,9.04-32.31-19.25-42.8Z"/>
    <path class="cls-2" d="M964.58,936.8c-11.44,0-21.15-2.71-22.9-3.23-113.87-13.75-678.93-82.27-687.82-88.49-.96-.67-1.89-1.29-2.77-1.88-4.18-2.79-7.8-5.2-8.46-9.35-.55-3.44,1.11-7.41,5.38-12.84,1.87-2.38,4.7-6,154.08-5.61,86.9.21,200.31,1.71,300.36,3.04,132.63,1.76,247.17,3.28,271.28,1.56,20.91-1.49,35.79,2.99,44.23,13.34,11.73,14.38,6.43,34.5,6.08,35.78-.48,1.89-10.15,38.83-27.99,56.67-8.66,8.65-20.82,11-31.48,11ZM256.74,840.62c14.93,5.66,454.77,59.81,685.81,87.71.16.02.31.05.46.1.33.1,33.04,9.88,49.3-6.38s26.51-53.89,26.6-54.26c0-.02.01-.04.01-.05.05-.19,5.03-18.68-5.09-31.06-7.29-8.91-20.64-12.73-39.71-11.37-24.33,1.74-138.98.22-271.73-1.55-184.27-2.45-436.33-5.79-450.41.81-3,3.87-4.38,6.71-4.1,8.46.3,1.86,2.89,3.59,6.16,5.77.86.57,1.77,1.18,2.7,1.83Z"/>
  </g>
  <g>
    <path class="cls-11" d="M3000.41,158.7s-305.26-37.57-412.11,2.35c-106.84,39.92-152.63,125.63-157.33,165.55-4.7,39.92,198.42,2.93,369.25-5.87,157.23-8.11,295.87-5.28,295.87-5.28,0,0-47.55-118-95.69-156.74Z"/>
    <path class="cls-11" d="M2917.38,255.64c-63.66,9.52-128.74,9.99-192.75,3.84-53.03-5.09-106.44-13.42-156.43-32.51-18.49-7.06-36.2-15.65-52.98-25.7-55.3,42.37-80.8,96.11-84.24,125.33-4.7,39.92,198.42,2.93,369.25-5.87,157.23-8.11,295.87-5.28,295.87-5.28,0,0-19.98-49.57-47.15-95.01-42.57,16.1-86.47,28.45-131.58,35.2Z"/>
    <path class="cls-11" d="M2537.94,206.95c19.99-10.09,41.02-17.26,62.69-22.82,22.76-5.85,45.88-10.99,68.99-15.22,47.61-8.73,96.03-11.93,144.34-13.55,49.26-1.65,98.52-2.16,147.75.59,12.92.72,25.83,1.65,38.72,2.76,0,0,0,0,0,0,0,0-305.26-37.57-412.11,2.35-68.77,25.7-112.21,70.35-135.71,109.56,22.28-27.96,53.78-47.72,85.34-63.66Z"/>
    <path class="cls-12" d="M2488.26,347.44c-28.77,0-48.71-2.94-56.33-10.72-2.85-2.91-4.06-6.43-3.59-10.44,2.23-18.95,14.16-51.01,40.93-84.13,20.85-25.79,58.27-61.24,118.1-83.59,106.22-39.7,400.87-4.04,413.36-2.5.49.06.95.26,1.34.57,48.12,38.73,94.53,152.97,96.49,157.82.33.83.23,1.77-.28,2.5-.51.73-1.39,1.14-2.24,1.15-1.39-.03-140.35-2.73-295.68,5.28-52.21,2.69-106.43,7.92-158.87,12.98-61.16,5.9-114.99,11.09-153.24,11.09ZM2749.74,145.42c-63.49,0-123.96,4.46-160.5,18.12-58.71,21.94-95.4,56.68-115.83,81.96-26.06,32.24-37.65,63.2-39.79,81.42-.28,2.4.39,4.34,2.11,6.1,15.97,16.31,107.92,7.44,205.27-1.94,52.5-5.06,106.78-10.3,159.1-13,140.68-7.25,267.96-5.73,292.01-5.36-8.5-20.2-50.68-117.02-92.76-151.48-10.93-1.31-135.13-15.82-249.6-15.82Z"/>
  </g>
  <g>
    <g>
      <g>
        <path class="cls-14" d="M2011.91,372.37c5.25-33.47,34.78-40.03,34.78-40.03,8.03-3.31,14.18-1.84,18.78,1.37-2.62-6.61-11.22-23.25-29.28-15.81,0,0-29.53,6.56-34.78,40.03-4.75,30.28-6.81,90.64,13.25,101.86-8.47-22.79-6.42-64.05-2.75-87.42Z"/>
        <path class="cls-2" d="M2014.67,462.45c-.44,0-.89-.11-1.3-.34-23.25-13.01-18.19-81.59-14.58-104.59,5.2-33.17,33.57-41.37,36.57-42.14,6.22-2.52,12.03-2.67,17.27-.44,8.63,3.66,13.29,12.72,15.3,17.8.43,1.09.1,2.33-.82,3.06-.92.73-2.21.77-3.17.09-4.71-3.3-10.03-3.66-16.25-1.09-.14.06-.29.1-.44.14-1.13.25-27.84,6.65-32.73,37.85-3.5,22.34-5.7,63.71,2.62,86.08.39,1.04.08,2.22-.76,2.94-.49.42-1.11.64-1.73.64ZM2044.89,318.69c-2.42,0-4.99.55-7.69,1.67-.14.06-.29.1-.44.14-1.13.25-27.84,6.65-32.73,37.85-4.54,28.95-5.19,72.81,5.09,91.57-5.41-25.48-2.51-60.85.17-77.96h0c5.2-33.17,33.57-41.37,36.57-42.14,4.93-1.99,9.57-2.51,13.86-1.55-2.11-3.29-5.13-6.73-9.17-8.45-1.78-.76-3.67-1.13-5.67-1.13Z"/>
      </g>
      <g>
        <path class="cls-11" d="M2068.35,407.81c.66-32.15-1.97-71.53-1.97-71.53,0,0-.29-1.01-.91-2.56-4.6-3.22-10.75-4.68-18.78-1.37,0,0-29.53,6.56-34.78,40.03-3.67,23.37-5.72,64.63,2.75,87.42,2.11,1.18,4.47,1.83,7.09,1.83,27.56,0,45.94-21.66,46.59-53.81Z"/>
        <path class="cls-2" d="M2021.76,464.27c-3,0-5.82-.73-8.39-2.16-.55-.31-.97-.8-1.19-1.39-9.35-25.16-5.98-69.06-2.89-88.76,5.2-33.17,33.57-41.37,36.57-42.14,7.84-3.18,14.95-2.6,21.13,1.73.43.3.75.71.95,1.2.68,1.71.99,2.81.99,2.81.05.18.08.37.09.55.03.39,2.63,39.86,1.98,71.76-.69,33.74-20.48,56.41-49.24,56.41ZM2016.81,457.91c1.54.71,3.17,1.05,4.95,1.05,26.06,0,43.3-20.1,43.94-51.21h0c.62-30.19-1.7-67.26-1.94-70.99-.08-.26-.23-.71-.45-1.3-4.55-2.89-9.66-3.11-15.59-.66-.14.06-.29.1-.44.14-1.13.25-27.84,6.65-32.73,37.85-3.46,22.03-5.64,62.54,2.27,85.13Z"/>
      </g>
    </g>
    <g>
      <g>
        <path class="cls-14" d="M1914.46,432.26c4.7-29.94,31.11-35.81,31.11-35.81,7.19-2.96,12.69-1.65,16.8,1.23-2.35-5.92-10.04-20.8-26.19-14.14,0,0-26.42,5.87-31.11,35.81-4.25,27.09-6.09,81.08,11.86,91.12-7.58-20.38-5.74-57.3-2.46-78.21Z"/>
        <path class="cls-2" d="M1916.92,513.12c-.44,0-.89-.11-1.3-.34-8.8-4.92-14.05-18.82-15.6-41.3-1.31-19,.39-39.6,2.42-52.55,4.67-29.75,30.07-37.19,32.9-37.92,5.63-2.27,10.89-2.41,15.65-.38,7.81,3.32,12.03,11.5,13.84,16.08.43,1.09.1,2.33-.82,3.06-.92.72-2.21.76-3.17.09-4.13-2.89-8.8-3.21-14.27-.95-.14.06-.29.1-.44.14-1,.23-24.72,5.92-29.07,33.63-3.13,19.96-5.09,56.9,2.33,76.87.39,1.04.08,2.22-.76,2.94-.49.42-1.11.64-1.73.64ZM1943.96,384.52c-2.13,0-4.39.49-6.77,1.47-.14.06-.29.1-.44.14-1,.23-24.72,5.92-29.07,33.63-3.92,25-4.62,62.46,3.61,79.99-4.31-22.67-1.8-53,.54-67.9h0c4.67-29.75,30.07-37.19,32.9-37.92,4.16-1.68,8.18-2.17,11.91-1.48-1.84-2.74-4.4-5.51-7.73-6.93-1.56-.66-3.22-.99-4.96-.99Z"/>
      </g>
      <g>
        <path class="cls-11" d="M1964.95,463.97c.59-28.77-1.76-63.99-1.76-63.99,0,0-.26-.9-.81-2.29-4.11-2.88-9.62-4.19-16.8-1.23,0,0-26.42,5.87-31.11,35.81-3.28,20.91-5.11,57.82,2.46,78.21,1.89,1.06,3.99,1.63,6.34,1.63,24.66,0,41.09-19.37,41.68-48.14Z"/>
        <path class="cls-2" d="M1923.27,514.76c-2.73,0-5.3-.66-7.64-1.97-.55-.31-.97-.8-1.19-1.39-8.39-22.56-5.37-61.89-2.6-79.54,4.67-29.75,30.07-37.19,32.9-37.92,7.01-2.83,13.63-2.28,19.15,1.58.43.3.75.71.94,1.2.61,1.54.89,2.54.89,2.54.05.18.08.37.1.55.03.35,2.35,35.67,1.77,64.22-.62,30.35-18.44,50.74-44.33,50.74ZM1919.06,508.58c1.31.59,2.69.87,4.2.87,23.14,0,38.46-17.88,39.03-45.54h0c.55-26.9-1.51-59.93-1.73-63.45-.07-.22-.19-.58-.36-1.03-3.97-2.49-8.43-2.66-13.61-.52-.14.06-.29.1-.44.14-1,.23-24.72,5.92-29.07,33.63-3.08,19.64-5.03,55.73,1.98,75.9Z"/>
      </g>
    </g>
    <g>
      <g>
        <path class="cls-14" d="M1817.09,482.75c4.7-29.94,31.11-35.81,31.11-35.81,7.19-2.96,12.69-1.65,16.8,1.23-2.35-5.92-10.04-20.8-26.19-14.14,0,0-26.42,5.87-31.11,35.81-4.25,27.09-6.09,81.08,11.86,91.12-7.58-20.39-5.74-57.3-2.46-78.21Z"/>
        <path class="cls-2" d="M1819.56,563.61c-.44,0-.89-.11-1.3-.34-8.8-4.92-14.05-18.82-15.6-41.3-1.31-19,.39-39.6,2.42-52.55,4.67-29.75,30.07-37.19,32.9-37.92,5.62-2.27,10.89-2.4,15.65-.38,7.81,3.32,12.03,11.49,13.85,16.08.43,1.09.1,2.33-.82,3.06-.92.73-2.21.77-3.17.09-4.13-2.89-8.8-3.2-14.27-.95-.14.06-.29.1-.44.14-1,.23-24.72,5.92-29.07,33.63h0c-3.13,19.96-5.09,56.9,2.33,76.87.39,1.04.08,2.22-.76,2.94-.49.42-1.11.64-1.73.64ZM1846.6,435.01c-2.13,0-4.39.49-6.77,1.47-.14.06-.29.1-.44.14-1,.23-24.72,5.92-29.07,33.63-3.92,25-4.62,62.46,3.61,79.99-4.31-22.66-1.8-53,.54-67.9,4.67-29.75,30.07-37.18,32.9-37.92,4.16-1.68,8.18-2.17,11.91-1.48-1.84-2.74-4.4-5.52-7.73-6.93-1.56-.66-3.21-.99-4.96-.99ZM1817.09,482.75h.03-.03Z"/>
      </g>
      <g>
        <path class="cls-11" d="M1867.58,514.45c.59-28.77-1.76-63.99-1.76-63.99,0,0-.26-.9-.81-2.29-4.11-2.88-9.62-4.19-16.8-1.23,0,0-26.42,5.87-31.11,35.81-3.28,20.91-5.11,57.82,2.46,78.21,1.89,1.06,3.99,1.63,6.34,1.63,24.66,0,41.09-19.37,41.68-48.14Z"/>
        <path class="cls-2" d="M1825.9,565.24c-2.73,0-5.3-.66-7.64-1.97-.55-.31-.97-.8-1.19-1.39-8.39-22.56-5.37-61.89-2.6-79.54,4.67-29.75,30.07-37.18,32.9-37.92,7-2.84,13.63-2.29,19.15,1.58.43.3.76.71.94,1.2.61,1.54.9,2.54.9,2.54.05.18.08.37.1.55.03.35,2.35,35.67,1.77,64.22-.62,30.35-18.44,50.74-44.33,50.74ZM1821.7,559.06c1.31.59,2.69.87,4.2.87,23.14,0,38.46-17.88,39.03-45.54.55-26.9-1.51-59.93-1.73-63.45-.07-.22-.19-.58-.36-1.03-3.97-2.48-8.43-2.65-13.61-.52-.14.06-.29.1-.44.14-1,.23-24.72,5.92-29.07,33.63-3.08,19.64-5.03,55.73,1.98,75.9Z"/>
      </g>
    </g>
    <g>
      <g>
        <path class="cls-14" d="M1719.73,537.93c4.7-29.94,31.11-35.81,31.11-35.81,7.18-2.96,12.69-1.65,16.8,1.23-2.35-5.91-10.04-20.8-26.19-14.14,0,0-26.42,5.87-31.11,35.81-4.25,27.09-6.09,81.08,11.86,91.12-7.58-20.39-5.75-57.3-2.47-78.21Z"/>
        <path class="cls-2" d="M1722.19,618.79c-.44,0-.89-.11-1.3-.34-8.8-4.92-14.05-18.82-15.61-41.3-1.31-19,.39-39.6,2.42-52.55,4.67-29.75,30.07-37.19,32.91-37.92,5.63-2.28,10.89-2.41,15.65-.38,7.81,3.31,12.03,11.5,13.84,16.08.43,1.09.1,2.33-.82,3.06-.92.72-2.21.77-3.17.09-4.13-2.89-8.8-3.2-14.27-.95-.14.06-.29.1-.43.14-1,.23-24.72,5.92-29.07,33.63h0c-3.13,19.96-5.09,56.9,2.33,76.87.39,1.04.08,2.22-.76,2.94-.49.42-1.1.64-1.72.64ZM1749.23,490.19c-2.13,0-4.39.49-6.77,1.47-.14.06-.29.1-.44.14-1,.23-24.72,5.92-29.07,33.63-3.92,25-4.62,62.46,3.61,79.99-4.31-22.67-1.8-53,.54-67.9h0c4.67-29.75,30.07-37.19,32.9-37.92,4.16-1.68,8.18-2.17,11.91-1.48-1.84-2.74-4.4-5.51-7.73-6.93-1.56-.66-3.21-.99-4.96-.99ZM1719.73,537.93h.03-.03Z"/>
      </g>
      <g>
        <path class="cls-11" d="M1770.22,569.63c.59-28.77-1.76-63.99-1.76-63.99,0,0-.26-.9-.81-2.29-4.11-2.88-9.62-4.19-16.8-1.23,0,0-26.42,5.87-31.11,35.81-3.28,20.91-5.11,57.82,2.46,78.21,1.89,1.06,3.99,1.63,6.34,1.63,24.66,0,41.09-19.38,41.68-48.14Z"/>
        <path class="cls-2" d="M1728.54,620.43c-2.73,0-5.3-.66-7.64-1.97-.55-.31-.97-.8-1.19-1.39-8.39-22.56-5.37-61.9-2.6-79.54,4.67-29.76,30.07-37.19,32.9-37.92,7.01-2.83,13.63-2.29,19.15,1.58.43.3.75.71.94,1.2.61,1.54.89,2.53.89,2.53.05.18.08.37.1.56.03.35,2.35,35.67,1.77,64.22-.62,30.35-18.44,50.74-44.33,50.74ZM1724.33,614.25c1.31.59,2.7.87,4.2.87,23.14,0,38.46-17.88,39.03-45.54.55-26.9-1.51-59.91-1.73-63.45-.07-.22-.19-.58-.36-1.03-3.97-2.48-8.43-2.65-13.62-.52-.14.06-.29.1-.43.14-1,.23-24.72,5.92-29.07,33.63-3.08,19.64-5.03,55.72,1.98,75.9Z"/>
      </g>
    </g>
    <g>
      <g>
        <path class="cls-14" d="M1622.37,584.9c4.7-29.94,31.11-35.81,31.11-35.81,7.19-2.96,12.69-1.65,16.8,1.23-2.35-5.92-10.04-20.8-26.19-14.15,0,0-26.42,5.87-31.11,35.81-4.25,27.09-6.09,81.08,11.86,91.12-7.58-20.38-5.74-57.3-2.46-78.2Z"/>
        <path class="cls-2" d="M1624.83,665.75c-.44,0-.89-.11-1.3-.34-8.8-4.92-14.05-18.82-15.6-41.3-1.31-19,.39-39.6,2.42-52.55,4.67-29.75,30.07-37.19,32.91-37.92,5.62-2.27,10.89-2.41,15.65-.38,7.81,3.32,12.03,11.49,13.84,16.08.43,1.09.1,2.33-.82,3.06-.92.73-2.21.77-3.17.09-4.13-2.89-8.8-3.21-14.27-.95-.14.06-.29.1-.44.14-1,.23-24.72,5.92-29.07,33.63-3.13,19.96-5.09,56.9,2.33,76.87.39,1.04.08,2.22-.76,2.94-.49.42-1.11.64-1.73.64ZM1651.87,537.16c-2.13,0-4.39.49-6.77,1.47-.14.06-.29.1-.44.14-1,.23-24.72,5.92-29.07,33.63-3.92,25-4.62,62.46,3.61,79.99-4.31-22.66-1.8-53,.54-67.9h0c4.67-29.75,30.07-37.19,32.9-37.92,4.16-1.68,8.18-2.17,11.91-1.48-1.84-2.74-4.4-5.51-7.73-6.93-1.55-.66-3.21-.99-4.96-.99Z"/>
      </g>
      <g>
        <path class="cls-11" d="M1672.85,616.6c.59-28.77-1.76-63.99-1.76-63.99,0,0-.26-.9-.81-2.29-4.11-2.88-9.62-4.19-16.8-1.23,0,0-26.42,5.87-31.11,35.81-3.28,20.91-5.11,57.82,2.46,78.21,1.89,1.06,3.99,1.63,6.34,1.63,24.66,0,41.09-19.37,41.68-48.14Z"/>
        <path class="cls-2" d="M1631.17,667.39c-2.73,0-5.3-.66-7.64-1.97-.55-.31-.97-.8-1.19-1.39-8.39-22.55-5.37-61.89-2.6-79.54,4.67-29.75,30.07-37.19,32.9-37.92,7-2.84,13.62-2.29,19.15,1.58.43.3.76.72.95,1.2.61,1.54.89,2.54.89,2.54.05.18.08.37.1.55.03.35,2.35,35.67,1.77,64.22-.62,30.35-18.43,50.74-44.33,50.74ZM1626.97,661.21c1.31.59,2.69.87,4.2.87,23.14,0,38.46-17.88,39.03-45.54h0c.55-26.91-1.51-59.93-1.73-63.45-.07-.22-.19-.58-.36-1.03-3.97-2.48-8.43-2.65-13.61-.52-.14.06-.29.1-.44.14-1,.23-24.72,5.92-29.07,33.63-3.08,19.64-5.03,55.73,1.98,75.9Z"/>
      </g>
    </g>
    <g>
      <g>
        <path class="cls-14" d="M1525,635.38c4.7-29.94,31.11-35.81,31.11-35.81,7.19-2.96,12.69-1.65,16.8,1.23-2.35-5.91-10.04-20.8-26.19-14.15,0,0-26.42,5.87-31.11,35.81-4.25,27.09-6.09,81.08,11.86,91.12-7.58-20.38-5.74-57.3-2.46-78.2Z"/>
        <path class="cls-2" d="M1527.46,716.24c-.44,0-.89-.11-1.3-.34-8.8-4.92-14.05-18.82-15.6-41.3-1.31-19,.39-39.6,2.42-52.55,4.67-29.75,30.07-37.19,32.9-37.92,5.62-2.27,10.89-2.41,15.65-.38,7.81,3.32,12.03,11.5,13.84,16.08.43,1.09.1,2.33-.82,3.06-.92.72-2.21.77-3.17.09-4.13-2.9-8.8-3.2-14.27-.95-.14.06-.29.1-.44.14-1,.22-24.72,5.92-29.07,33.63h0c-3.13,19.96-5.09,56.9,2.33,76.87.39,1.04.08,2.22-.76,2.94-.49.42-1.11.64-1.73.64ZM1554.5,587.64c-2.13,0-4.39.49-6.77,1.47-.14.06-.29.1-.44.14-1,.23-24.72,5.92-29.07,33.63-3.92,25-4.62,62.46,3.61,79.99-4.31-22.66-1.8-53,.54-67.9h0c4.67-29.75,30.07-37.19,32.9-37.92,4.16-1.68,8.17-2.17,11.91-1.48-1.84-2.74-4.4-5.51-7.73-6.93-1.56-.66-3.21-.99-4.96-.99ZM1525,635.38h.03-.03Z"/>
      </g>
      <g>
        <path class="cls-11" d="M1575.49,667.08c.59-28.77-1.76-63.99-1.76-63.99,0,0-.26-.9-.81-2.29-4.11-2.88-9.62-4.19-16.8-1.23,0,0-26.42,5.87-31.11,35.81-3.28,20.91-5.11,57.82,2.46,78.21,1.89,1.06,3.99,1.63,6.34,1.63,24.66,0,41.09-19.37,41.68-48.14Z"/>
        <path class="cls-2" d="M1533.81,717.87c-2.73,0-5.3-.66-7.64-1.97-.55-.31-.97-.8-1.19-1.39-8.39-22.56-5.37-61.89-2.6-79.54,4.67-29.75,30.07-37.19,32.9-37.92,7.01-2.83,13.63-2.28,19.15,1.58.42.3.75.71.94,1.2.61,1.54.9,2.54.9,2.54.05.18.08.37.09.55.03.35,2.35,35.67,1.77,64.22-.62,30.35-18.43,50.74-44.33,50.74ZM1529.6,711.7c1.31.59,2.69.87,4.2.87,23.14,0,38.46-17.88,39.03-45.54l2.65.05-2.65-.05c.55-26.91-1.51-59.93-1.73-63.45-.07-.22-.19-.58-.36-1.03-3.96-2.48-8.43-2.65-13.61-.52-.14.06-.29.1-.44.14-1,.22-24.72,5.92-29.07,33.63-3.08,19.64-5.03,55.73,1.98,75.9Z"/>
      </g>
    </g>
    <g>
      <g>
        <path class="cls-14" d="M1431.15,690.27c4.57-29.12,30.26-34.83,30.26-34.83,6.99-2.88,12.34-1.6,16.34,1.2-2.28-5.75-9.76-20.23-25.48-13.76,0,0-25.69,5.71-30.26,34.83-4.13,26.34-5.93,78.86,11.53,88.62-7.37-19.83-5.59-55.73-2.4-76.06Z"/>
        <path class="cls-2" d="M1433.54,768.99c-.44,0-.89-.11-1.3-.34-8.58-4.8-13.7-18.34-15.21-40.23-1.28-18.49.38-38.53,2.36-51.12,4.54-28.96,29.25-36.21,32.05-36.94,5.49-2.22,10.63-2.34,15.27-.37,7.62,3.23,11.73,11.21,13.5,15.68.43,1.09.1,2.33-.82,3.06-.92.73-2.21.77-3.17.09-4-2.8-8.51-3.1-13.81-.92-.14.06-.29.1-.44.14-.97.22-23.99,5.75-28.21,32.65h0c-3.04,19.4-4.95,55.32,2.26,74.72.39,1.04.08,2.22-.76,2.94-.49.42-1.11.64-1.73.64ZM1459.84,643.91c-2.06,0-4.26.47-6.56,1.43-.14.06-.29.1-.44.14-.97.22-23.99,5.75-28.21,32.65-3.78,24.07-4.48,60.01,3.26,77.24-4.05-21.99-1.62-51.14.63-65.5h0c4.54-28.96,29.25-36.21,32.05-36.94,3.99-1.61,7.85-2.1,11.45-1.47-1.78-2.61-4.22-5.22-7.39-6.57-1.5-.64-3.11-.96-4.8-.96ZM1431.15,690.27h.03-.03Z"/>
      </g>
      <g>
        <path class="cls-11" d="M1480.25,721.11c.57-27.98-1.71-62.23-1.71-62.23,0,0-.25-.87-.79-2.23-4-2.8-9.35-4.07-16.34-1.2,0,0-25.69,5.71-30.26,34.83-3.19,20.33-4.97,56.23,2.4,76.06,1.84,1.03,3.88,1.59,6.17,1.59,23.98,0,39.97-18.84,40.54-46.82Z"/>
        <path class="cls-2" d="M1439.71,770.58c-2.66,0-5.17-.65-7.46-1.93-.55-.31-.97-.8-1.19-1.39-8.16-21.96-5.22-60.23-2.53-77.4,4.54-28.96,29.25-36.21,32.05-36.94,6.84-2.76,13.3-2.22,18.69,1.55.43.3.75.71.95,1.2.6,1.51.87,2.47.87,2.47.05.18.08.37.1.56.02.34,2.29,34.69,1.72,62.46-.6,29.56-17.96,49.42-43.19,49.42ZM1435.68,764.44c1.26.56,2.58.83,4.03.83,22.46,0,37.34-17.36,37.88-44.22h0c.53-26.14-1.46-58.21-1.69-61.69-.07-.21-.18-.54-.34-.97-3.83-2.39-8.14-2.55-13.16-.48-.14.06-.29.1-.44.14-.97.22-23.99,5.75-28.21,32.65-2.99,19.08-4.89,54.14,1.91,73.76Z"/>
      </g>
    </g>
    <g>
      <g>
        <path class="cls-14" d="M1340.06,734.07c4.49-28.63,29.76-34.25,29.76-34.25,6.87-2.83,12.14-1.58,16.07,1.18-2.24-5.66-9.6-19.89-25.05-13.53,0,0-25.26,5.61-29.76,34.25-4.06,25.91-5.83,77.54,11.34,87.14-7.25-19.5-5.49-54.8-2.36-74.79Z"/>
        <path class="cls-2" d="M1342.42,811.52c-.44,0-.89-.11-1.3-.34-8.45-4.73-13.49-18.05-14.98-39.59-1.26-18.18.37-37.89,2.32-50.28,4.47-28.49,28.77-35.64,31.55-36.36,5.41-2.18,10.47-2.3,15.05-.37,7.51,3.18,11.56,11.04,13.3,15.44.43,1.09.1,2.34-.82,3.06-.92.73-2.21.77-3.17.09-3.92-2.74-8.34-3.03-13.54-.9-.14.06-.29.1-.43.14-.95.22-23.57,5.65-27.71,32.07-2.99,19.08-4.87,54.38,2.22,73.46.39,1.04.08,2.22-.76,2.94-.49.42-1.11.64-1.73.64ZM1368.28,688.53c-2.02,0-4.17.47-6.43,1.4-.14.06-.29.1-.44.14-.95.22-23.56,5.65-27.71,32.07-3.69,23.51-4.4,58.55,3.06,75.6-3.89-21.59-1.52-50.02.68-64.07h0c4.47-28.49,28.77-35.64,31.55-36.36,3.9-1.57,7.67-2.05,11.18-1.47-1.74-2.53-4.12-5.05-7.19-6.35-1.47-.63-3.04-.94-4.7-.94Z"/>
      </g>
      <g>
        <path class="cls-11" d="M1388.34,764.39c.56-27.51-1.68-61.19-1.68-61.19,0,0-.25-.86-.78-2.19-3.93-2.75-9.2-4.01-16.07-1.18,0,0-25.26,5.61-29.76,34.25-3.14,19.99-4.89,55.3,2.36,74.79,1.81,1.01,3.82,1.56,6.06,1.56,23.58,0,39.3-18.53,39.86-46.04Z"/>
        <path class="cls-2" d="M1348.49,813.08c-2.63,0-5.1-.64-7.36-1.9-.55-.31-.97-.8-1.19-1.39-8.03-21.6-5.14-59.24-2.49-76.13,4.47-28.49,28.77-35.64,31.55-36.36,6.74-2.72,13.11-2.19,18.42,1.53.43.3.76.72.94,1.2.59,1.48.86,2.44.86,2.44.05.18.09.37.1.56.02.34,2.25,34.11,1.69,61.43-.59,29.09-17.68,48.63-42.51,48.63ZM1344.56,806.97c1.23.54,2.52.8,3.93.8,22.06,0,36.67-17.05,37.2-43.43h0c.53-25.69-1.44-57.21-1.66-60.66-.07-.2-.17-.53-.32-.93-3.75-2.33-7.97-2.48-12.88-.47-.14.06-.29.1-.43.14-.95.22-23.57,5.65-27.71,32.07-2.94,18.76-4.81,53.2,1.87,72.48Z"/>
      </g>
    </g>
    <g>
      <g>
        <path class="cls-14" d="M1249.65,783.86c4.25-27.09,28.16-32.41,28.16-32.41,6.5-2.68,11.48-1.49,15.2,1.11-2.12-5.35-9.08-18.82-23.7-12.8,0,0-23.91,5.31-28.16,32.41-3.84,24.51-5.51,73.38,10.73,82.46-6.86-18.45-5.2-51.85-2.23-70.77Z"/>
        <path class="cls-2" d="M1251.88,857.29c-.44,0-.89-.11-1.3-.34-19.17-10.72-15.2-65.13-12.06-85.19,4.24-27,27.24-33.82,29.94-34.52,5.15-2.08,9.97-2.2,14.34-.34,7.16,3.03,11.01,10.5,12.67,14.69.43,1.09.1,2.34-.82,3.06-.92.73-2.21.77-3.17.09-3.67-2.57-7.81-2.84-12.67-.84-.14.06-.29.1-.44.14-.9.2-22.2,5.33-26.11,30.23h0c-2.83,18.03-4.61,51.41,2.09,69.44.39,1.04.08,2.22-.76,2.94-.49.42-1.11.64-1.73.64ZM1276.35,740.91c-1.9,0-3.91.44-6.03,1.31-.14.06-.29.1-.44.14-.9.2-22.2,5.33-26.11,30.23-3.41,21.73-4.14,53.88,2.4,70.34-3.39-20.3-1.19-46.43.85-59.47,4.23-27,27.25-33.82,29.95-34.52,3.58-1.44,7.06-1.93,10.32-1.45-1.61-2.29-3.78-4.52-6.55-5.69-1.38-.58-2.85-.88-4.39-.88ZM1249.65,783.86h.03-.03Z"/>
      </g>
      <g>
        <path class="cls-11" d="M1295.34,812.55c.53-26.03-1.59-57.91-1.59-57.91,0,0-.23-.81-.73-2.08-3.72-2.6-8.7-3.79-15.2-1.11,0,0-23.91,5.31-28.16,32.41-2.97,18.92-4.63,52.33,2.23,70.77,1.71.96,3.61,1.48,5.74,1.48,22.31,0,37.19-17.53,37.72-43.56Z"/>
        <path class="cls-2" d="M1257.62,858.77c-2.51,0-4.88-.61-7.04-1.82-.55-.31-.97-.8-1.19-1.39-7.61-20.47-4.87-56.12-2.36-72.11,4.23-27,27.25-33.82,29.95-34.52,6.42-2.59,12.49-2.09,17.56,1.47.43.3.75.72.94,1.2.56,1.41.82,2.32.82,2.32.05.18.08.37.1.56.02.32,2.13,32.29,1.6,58.14-.56,27.61-16.79,46.16-40.37,46.16ZM1254.02,852.74c1.12.48,2.31.72,3.6.72,20.79,0,34.56-16.08,35.06-40.97h0c.5-24.26-1.35-54.02-1.57-57.37-.06-.18-.15-.46-.28-.81-3.5-2.16-7.44-2.29-12.02-.41-.14.06-.29.1-.44.14-.9.2-22.2,5.33-26.11,30.23-2.78,17.71-4.54,50.23,1.75,68.46Z"/>
      </g>
    </g>
  </g>
  <g>
    <path class="cls-1" d="M1893.24,995.24s24.66-119.17-61.64-133.85c-67.02-11.4-1813.1,109.19-1813.1,109.19,0,0-15.85,2.64-15.85,21.13s29.06,29.06,63.4,29.06,1503.14,81.89,1503.14,81.89c0,0,156.04,5.67,248.32-36.98,69.86-32.29,75.73-70.45,75.73-70.45Z"/>
    <path class="cls-1" d="M203.94,968.68c64.58-3.79,129.23-6.66,193.86-9.53,131.22-5.84,262.49-11.32,393.77-15.66,127.34-4.21,254.74-6.35,382.1-9.88,127.58-3.54,255.16-8.43,382.44-18.13,104.95-8,209.7-19.32,313.64-35.88-9.32-8.82-21.72-15.41-38.15-18.2-67.02-11.4-1813.1,109.19-1813.1,109.19,0,0-2.13.36-4.82,1.72,63.4,4.03,126.95.09,190.26-3.63Z"/>
    <path class="cls-9" d="M1851.83,867.54c-.82,6.67-2.66,13.27-4.64,19.04-5.48,15.96-13.94,31.93-25.39,44.44-16.21,17.7-41.65,24.81-64.75,26.99-33.2,3.14-67.21,2.32-100.54,3.11-142.68,3.39-285.42,3.19-428.12,5.03-71.28.92-142.56,2.34-213.81,4.98-71.69,2.65-143.3,7.12-215,9.73-144,5.25-288.11,6.43-432.19,6.48-70.07.03-140.15,1.63-210.22.67-14.66-.2-29.42-1.18-44.06-.29-12.57.76-25.07,2.29-37.62,3.27-21.17,1.66-46.29,3.69-65.12-8.15-.54-.34-.64-.94-.39-1.49,1.58-3.43,3.44-6.68,5.46-9.83-4.6,1.82-12.79,6.9-12.79,20.2,0,18.49,29.06,29.06,63.4,29.06s1503.14,81.89,1503.14,81.89c0,0,156.04,5.67,248.32-36.98,69.86-32.29,75.73-70.45,75.73-70.45,0,0,20.5-99.16-41.41-127.71Z"/>
    <path class="cls-9" d="M1886.33,903.55c1.45,22.68-3.79,46.16-13.58,65.98-22.73,46.04-69.55,64.96-117.57,73.09-132.61,22.46-267.51,6.93-400.89,2.87-139.14-4.24-278.36-5.45-417.55-5.02-69.61.21-139.26,1.79-208.86.97-68.83-.81-137.66-3.3-206.51-2.39-21.51.29-42.94,1-64.31,2.21,445.55,24.26,1112.14,61.42,1112.14,61.42,0,0,156.04,5.67,248.32-36.98,69.86-32.29,75.73-70.45,75.73-70.45,0,0,10.77-52.14-6.92-91.69Z"/>
    <path class="cls-5" d="M1586.61,1105.55c-10.8,0-17.21-.21-17.52-.22-14.74-.82-1469.16-81.89-1503.04-81.89-39.51,0-66.06-12.74-66.06-31.71,0-20.5,17.89-23.72,18.07-23.75,71.56-4.95,1747.44-120.45,1813.98-109.19,21.45,3.65,38.09,13.93,49.45,30.56,27.42,40.15,15.06,102.96,14.36,106.38-.41,2.48-7.75,40.26-77.23,72.37-73.56,34-188.46,37.45-232.01,37.45ZM18.84,973.22c-1.4.28-13.53,3.16-13.53,18.5s25.55,26.41,60.75,26.41,1488.59,81.08,1503.28,81.9c1.51.05,156.42,5.15,247.06-36.74,67.46-31.18,74.16-68.08,74.22-68.45,0-.04.01-.09.02-.12.13-.64,12.79-63.86-13.54-102.39-10.51-15.39-25.97-24.91-45.94-28.31-65.79-11.26-1786.79,107.45-1812.32,109.21Z"/>
  </g>
  <g>
    <g>
      <path class="cls-6" d="M1043.24,1018.75l-32.39-25.96s-196.06,35.85-281.11,126.83c0,0-55.63,40.05-25.22,120.16,19.65,51.75,87.52,63.29,149.83,68.24,62.3,4.94,220.53-12.36,220.53-12.36l-31.65-276.9Z"/>
      <path class="cls-6" d="M875.55,1101.96c4.09-20.06,10.49-39.89,20.81-57.66-.84.17-1.69.33-2.53.51-13.93,2.94-27.62,6.96-41.01,11.8-14.27,5.15-28.19,11.25-41.66,18.21-13.53,6.99-26.62,14.86-39.07,23.64-12.21,8.63-23.81,18.17-34.4,28.73-3.69,3.68-7.25,7.49-10.66,11.42,3.77-2.01,7.58-3.88,11.37-5.64,8.79-4.07,17.8-7.63,26.88-11.02,10.61-3.97,21.13-8.17,31.73-12.18,11.41-4.32,23.14-8.27,35.31-9.69,7.27-.85,17.39-1.28,22.13,5.55,1.78,2.57,2.42,5.75,2.76,8.81.45,4.04.35,8.13.35,12.19-.01,9.16-.45,18.3-.19,27.47.3,10.11,1.07,20.27,3.13,30.19,1.59,7.68,3.95,15.48,8.25,22.11,1.31-12.18,1.31-24.45,1.23-36.69-.07-11.81-.21-23.64.77-35.42.9-10.83,2.64-21.69,4.81-32.34Z"/>
      <path class="cls-6" d="M1010.85,992.79s-25.39,4.64-61.86,14.83c-2.95,2.04-5.85,4.15-8.65,6.4-18.83,15.14-33.56,34.72-43.49,56.7-12.47,27.6-20.76,57.14-20.55,87.6.08,11.66,3.12,23.26,2.28,34.91-.36,4.94-1.63,9.6-4.61,13.61-2.3,3.11-5.32,5.61-8.58,7.66-8.04,5.04-17.56,7.61-26.8,9.39-9.98,1.92-20.14,2.87-30.29,3.35-20.2.97-41.41.76-60.6-6.36-10.09-3.74-19.34-9.62-26.28-17.92-8.21-9.84-13.5-22.63-14.87-35.35-.72-6.7-.45-13.62.66-20.27.04-.27.11-.53.16-.79-11.02,19.97-18.86,51.04-2.85,93.22,19.65,51.75,87.52,63.29,149.83,68.24,62.3,4.94,220.53-12.36,220.53-12.36l-31.65-276.9-32.39-25.96Z"/>
      <path class="cls-2" d="M881.43,1311.54c-10.27,0-19.53-.27-27.29-.88-64.01-5.08-132.14-17.36-152.1-69.94-16.05-42.28-8.14-73.5,1.32-92.25,9.71-19.23,22.7-29.4,24.61-30.83,84.76-90.44,280.43-127.09,282.4-127.45.75-.14,1.54.06,2.14.54l32.39,25.96c.55.44.9,1.07.98,1.77l31.65,276.91c.08.7-.12,1.41-.56,1.96-.44.55-1.08.91-1.79.98-1.39.15-122.12,13.25-193.75,13.25ZM1010.15,995.62c-7.84,1.51-53.45,10.68-107.17,29-54.11,18.45-127.75,50.23-171.29,96.81-.12.12-.25.24-.39.34-.14.1-13.64,10.01-23.31,29.32-12.95,25.83-13.28,55.35-.98,87.75,18.91,49.81,85.2,61.59,147.55,66.53,56.93,4.53,196.4-9.85,217.38-12.07l-31.22-273.17-30.58-24.51Z"/>
    </g>
    <g>
      <circle class="cls-13" cx="1047.18" cy="1143.77" r="154.69"/>
      <path class="cls-12" d="M1047.2,1301.12c-86.76,0-157.34-70.58-157.34-157.34s70.59-157.35,157.34-157.35,157.35,70.59,157.35,157.35c0,86.76-70.58,157.34-157.35,157.34ZM1047.2,991.73c-83.84,0-152.04,68.2-152.04,152.04s68.2,152.04,152.04,152.04,152.04-68.2,152.04-152.04c0-83.84-68.2-152.04-152.04-152.04Z"/>
    </g>
    <g>
      <g>
        <path class="cls-1" d="M1047.2,1012.45c-2.66,0-5.29.1-7.91.26,68.88,4.09,123.48,61.22,123.48,131.13s-54.6,127.04-123.48,131.13c2.62.16,5.25.26,7.91.26,72.56,0,131.39-58.83,131.39-131.39,0-72.56-58.83-131.39-131.39-131.39Z"/>
        <path class="cls-12" d="M1047.2,1277.89c-2.44,0-5.08-.09-8.07-.26-1.4-.08-2.5-1.24-2.5-2.65s1.09-2.57,2.5-2.65c67.84-4.03,120.98-60.47,120.98-128.48s-53.14-124.45-120.98-128.48c-1.4-.08-2.5-1.24-2.5-2.65s1.09-2.57,2.5-2.65c2.99-.18,5.63-.27,8.07-.27,73.91,0,134.04,60.13,134.04,134.04s-60.13,134.04-134.04,134.04ZM1083.34,1020.27c48.38,20.38,82.08,68.3,82.08,123.57s-33.7,103.2-82.08,123.57c53.45-15.66,92.59-65.13,92.59-123.57,0-58.44-39.15-107.91-92.59-123.57Z"/>
      </g>
      <g>
        <path class="cls-3" d="M1162.76,1143.84c0-69.91-54.6-127.04-123.48-131.13-68.88,4.09-123.48,61.22-123.48,131.13s54.6,127.04,123.48,131.13c68.88-4.09,123.48-61.23,123.48-131.13Z"/>
        <path class="cls-4" d="M1139.04,1138.4c-8.98-6.79-14.37-17.37-19.67-27.04-5.28-9.62-10.54-19.52-18.33-27.39-16.76-16.94-42.98-18.67-64.32-10.2-10.62,4.22-20.28,10.98-27.79,19.6-7.71,8.85-12.71,19.48-14.61,31.06-2.06,12.58-1.01,25.63,1.52,38.06,2.4,11.75,6.19,23.3,11.53,34.04.2.41.22,1-.17,1.32-10.2,8.38-24.83,8.24-37.14,5.88-11.21-2.16-22.84-6.43-31.92-13.51-8.32-6.49-15.16-14.68-20.37-23.82,10.27,59.26,60.22,104.91,121.51,108.55,68.58-4.08,122.99-60.74,123.46-130.23-8.39,1.01-16.85-1.15-23.7-6.34Z"/>
        <path class="cls-10" d="M1039.28,1277.63c-.05,0-.1,0-.16,0-70.64-4.2-125.98-62.96-125.98-133.78s55.34-129.58,125.98-133.78c.1,0,.21,0,.31,0,70.64,4.19,125.98,62.96,125.98,133.78s-55.34,129.58-125.98,133.78c-.05,0-.1,0-.16,0ZM1039.28,1015.37c-67.76,4.11-120.82,60.51-120.82,128.47s53.06,124.36,120.82,128.47c67.76-4.11,120.82-60.51,120.82-128.47,0-67.96-53.06-124.36-120.82-128.47Z"/>
      </g>
    </g>
    <path class="cls-10" d="M1125.82,1236.49c-.79,0-1.56-.35-2.09-1.01l-155.02-197.29c-.91-1.15-.71-2.82.45-3.73,1.15-.91,2.82-.71,3.73.45l155.02,197.29c.91,1.15.71,2.82-.45,3.73-.49.38-1.06.57-1.64.57Z"/>
    <path class="cls-10" d="M941.14,1222.4c-.84,0-1.66-.39-2.17-1.13-.84-1.2-.56-2.85.64-3.69l200.26-140.92c1.2-.85,2.85-.56,3.7.64.84,1.2.56,2.85-.64,3.7l-200.26,140.92c-.47.33-1,.48-1.53.48Z"/>
    <path class="cls-10" d="M1042.75,1275.06c-.06,0-.13,0-.19,0-1.46-.1-2.56-1.38-2.45-2.84l18.54-256.63c.11-1.46,1.31-2.59,2.84-2.45,1.46.1,2.56,1.38,2.46,2.84l-18.54,256.63c-.1,1.4-1.27,2.46-2.65,2.46Z"/>
    <path class="cls-10" d="M1162.16,1154.91c-.09,0-.18,0-.27-.01l-245.5-24.48c-1.46-.15-2.52-1.45-2.38-2.91.15-1.46,1.45-2.48,2.91-2.38l245.5,24.48c1.46.15,2.52,1.45,2.38,2.91-.14,1.37-1.29,2.39-2.64,2.39Z"/>
    <g>
      <path class="cls-13" d="M1122.36,1132.79c0,27.95-43.64,56.41-66.64,56.41s-41.64-22.66-41.64-50.61,18.64-50.61,41.64-50.61,66.64,16.86,66.64,44.81Z"/>
      <path class="cls-6" d="M1063.05,1100.03c-7.06-.89-14.62-.98-21.66.71-4.39,4.72-7.68,10.45-10.28,16.31-2.21,4.98-3.94,10.23-5.02,15.58,2.64-1.62,5.05-3.55,7.22-5.8,2.24-2.31,4.19-4.87,6.33-7.28,3.99-4.5,8.78-7.58,14.79-8.56,3.36-.55,6.75-.49,10.15-.5,3.23,0,6.46,0,9.69.07,7.3.16,14.64.6,21.82,1.94,1.96.36,3.96.81,5.94,1.38-1.64-1.03-3.3-2.01-5-2.92-10.48-5.61-22.17-9.45-33.97-10.94Z"/>
      <path class="cls-6" d="M1102.27,1134.66c-5.05,1.11-10.1,2.16-15.15,3.23-3.49.74-7,1.43-10.43,2.43-6.23,1.81-12.37,3.88-18.67,5.45-6.08,1.52-12.78,3.06-19.06,1.98-9.85-1.68-11.8-12.97-11.81-21.3-.01-10.37,2.35-21.01,6.32-30.64-11.65,8.97-19.39,24.77-19.39,42.77,0,27.95,18.64,50.61,41.64,50.61s66.64-28.46,66.64-56.41c0-1.01-.07-2.01-.19-2.99-6.58,1.82-13.23,3.4-19.9,4.86Z"/>
      <path class="cls-12" d="M1055.72,1191.85c-24.42,0-44.29-23.89-44.29-53.26s19.87-53.26,44.29-53.26,69.29,18.02,69.29,47.47-44.46,59.06-69.29,59.06ZM1055.72,1090.63c-21.49,0-38.98,21.51-38.98,47.95s17.49,47.96,38.98,47.96c10.77,0,26.98-6.9,40.32-17.17,15.04-11.57,23.66-24.9,23.66-36.58,0-25.74-42.02-42.16-63.99-42.16Z"/>
    </g>
  </g>
  <path class="cls-6" d="M2576.56,831.46s-408.58,258.01-1087.51,345.18c0,0,597.91-31.7,1087.51-345.18Z"/>
  <g>
    <path class="cls-13" d="M3011.57,348.9c-236.52,81.1-186.15,424.69,76.43,471.18,84.3-63.24,145.78-125.87,179.81-182.35,103.66-172.03-83.61-277.77-148.28-308-32.37-.07-68.29,5.57-107.97,19.17Z"/>
    <path class="cls-13" d="M3211.12,437.6c-15.34-10.94-31.55-20.63-48.11-29.62-7.7-4.18-15.49-8.2-23.35-12.08-2.86-1.41-5.73-3.11-8.76-4.13-2.55-.86-5.2-1.43-7.81-2.04-6.42-1.5-13.01-2.85-19.08-5.48-2.16-.94-4.47-2.11-5.97-3.98-1.62-2.02-1.74-4.99-1.29-7.44,1.22-6.62,7.08-11.75,12.27-15.48,2.1-1.51,4.31-2.93,6.61-4.21-18.73,2.57-37.21,7.12-55.16,12.98-20.98,6.85-41.37,15.57-60.73,26.18-19.28,10.57-37.63,23.06-53.85,37.95-15.24,13.99-28.65,30.21-37.96,48.76-8.83,17.59-13.45,36.99-13.05,56.66,1.91-1.38,3.79-2.8,5.61-4.3,10.13-8.4,18.93-18.3,27.51-28.23,9.11-10.54,17.97-21.32,27.62-31.38,20.14-21,45.09-37.07,72.06-47.88,12.95-5.19,26.54-9.35,40.43-10.97,12.75-1.49,25.65-.94,38.33.89,27.26,3.94,53.45,13.68,78.39,25.1,22.54,10.32,44.22,22.34,65.8,34.5-.18-.23-.34-.46-.52-.69-10.98-13.67-24.81-24.97-39.02-35.11Z"/>
    <path class="cls-7" d="M3281.82,491.42c-15-4.95-30.61-8.21-46.36-9.36-39.63-2.91-79.17,5.69-116.75,17.59-18.74,5.93-37.18,12.78-55.51,19.86-12.8,4.95-25.4,10.03-37.81,15.88-24.55,11.58-49.64,23.87-76.48,29.09-11.68,2.27-24.25,3.25-35.77-.38-10.44-3.28-19.68-10.94-24.92-20.55-11.36-20.87-2.51-46.64,7.36-66.22,11-21.81,26.07-41.93,42.88-59.6,22.6-23.75,50.31-42.21,79.99-55.91,32.3-14.91,66.6-24.17,101.42-30.96.48-.09.97-.18,1.45-.27-.6-.28-1.2-.57-1.78-.84-32.37-.07-68.29,5.57-107.97,19.17-236.52,81.1-186.15,424.69,76.43,471.18,84.3-63.24,145.78-125.87,179.81-182.35,32.59-54.09,36.41-101.63,24.33-142.32-3.36-1.53-6.83-2.83-10.32-3.98Z"/>
    <path class="cls-12" d="M3088,822.74c-.15,0-.31-.01-.46-.04-147.68-26.15-221.83-141.57-229.82-244.36-6.56-84.52,30.18-189.84,152.99-231.95,37.38-12.82,73.8-19.31,108.26-19.31.58,0,1.17,0,1.69.25,43.15,20.17,146.47,76.75,173.72,166.23,14.13,46.38,5.96,95.35-24.29,145.54-34.32,56.96-96.74,120.28-180.5,183.11-.46.35-1.02.53-1.59.53ZM3118.94,332.39c-33.87,0-69.7,6.4-106.52,19.03-119.94,41.12-155.83,143.97-149.42,226.51,7.81,100.48,80.2,213.3,224.32,239.34,82.75-62.2,144.37-124.74,178.21-180.91,29.43-48.85,37.43-96.37,23.76-141.26-26.52-87.07-127.53-142.63-170.35-162.71ZM3011.57,348.9h.03-.03Z"/>
  </g>
  <g>
    <g>
      <path class="cls-6" d="M3034.05,1037.46l-28.88-23.15s-174.81,31.96-250.64,113.08c0,0-49.6,35.71-22.49,107.13,17.52,46.14,78.04,56.43,133.59,60.84,55.55,4.41,196.63-11.02,196.63-11.02l-28.22-246.89Z"/>
      <path class="cls-6" d="M2884.53,1111.65c3.64-17.89,9.36-35.57,18.55-51.41-.75.15-1.51.3-2.26.45-12.42,2.62-24.63,6.21-36.57,10.52-12.72,4.59-25.13,10.03-37.15,16.24-12.06,6.23-23.74,13.25-34.83,21.08-10.89,7.69-21.23,16.2-30.67,25.62-3.29,3.28-6.46,6.68-9.5,10.19,3.36-1.79,6.76-3.46,10.14-5.03,7.84-3.63,15.88-6.81,23.96-9.83,9.46-3.54,18.84-7.28,28.29-10.86,10.17-3.86,20.63-7.38,31.49-8.64,6.48-.75,15.5-1.14,19.73,4.95,1.59,2.29,2.16,5.13,2.46,7.85.4,3.6.31,7.25.31,10.87,0,8.17-.41,16.31-.17,24.49.26,9.02.96,18.08,2.79,26.92,1.42,6.85,3.52,13.8,7.35,19.71,1.17-10.86,1.17-21.8,1.1-32.71-.07-10.53-.18-21.08.69-31.58.8-9.66,2.35-19.34,4.29-28.84Z"/>
      <path class="cls-6" d="M3005.17,1014.31s-22.64,4.14-55.15,13.22c-2.63,1.82-5.22,3.7-7.71,5.71-16.78,13.5-29.92,30.95-38.78,50.56-11.12,24.61-18.51,50.94-18.32,78.11.07,10.39,2.78,20.74,2.03,31.12-.32,4.4-1.46,8.56-4.11,12.14-2.05,2.77-4.74,5.01-7.65,6.83-7.17,4.49-15.66,6.78-23.9,8.37-8.9,1.71-17.96,2.56-27,2.99-18.01.86-36.92.67-54.03-5.67-8.99-3.33-17.25-8.57-23.43-15.98-7.32-8.77-12.04-20.18-13.25-31.52-.64-5.98-.4-12.14.59-18.07.04-.24.1-.47.15-.71-9.82,17.81-16.82,45.51-2.54,83.12,17.52,46.14,78.04,56.43,133.59,60.84,55.55,4.41,196.63-11.02,196.63-11.02l-28.22-246.89-28.88-23.15Z"/>
      <path class="cls-2" d="M2889.78,1298.52c-9.16,0-17.41-.24-24.33-.79-57.07-4.53-117.81-15.48-135.61-62.36-14.31-37.7-7.26-65.54,1.17-82.26,8.66-17.15,20.24-26.22,21.94-27.49,75.57-80.64,250.04-113.32,251.79-113.64.67-.12,1.37.05,1.91.48l28.88,23.15c.49.39.8.96.87,1.58l28.22,246.89c.07.62-.11,1.25-.5,1.74-.39.49-.97.81-1.59.88-1.23.13-108.88,11.81-172.75,11.81ZM3004.54,1016.84c-6.99,1.35-47.66,9.52-95.56,25.85-48.24,16.45-113.9,44.79-152.73,86.32-.1.11-.22.21-.34.3-.12.09-12.16,8.93-20.79,26.14-11.54,23.03-11.84,49.35-.87,78.24,16.86,44.41,75.97,54.91,131.56,59.32,50.76,4.04,175.11-8.78,193.82-10.76l-27.83-243.56-27.27-21.85Z"/>
    </g>
    <g>
      <circle class="cls-13" cx="3037.55" cy="1148.94" r="137.92"/>
      <path class="cls-12" d="M3037.58,1289.23c-77.36,0-140.29-62.93-140.29-140.29s62.94-140.29,140.29-140.29,140.29,62.94,140.29,140.29-62.94,140.29-140.29,140.29ZM3037.58,1013.37c-74.75,0-135.56,60.81-135.56,135.56s60.81,135.56,135.56,135.56,135.56-60.81,135.56-135.56c0-74.75-60.81-135.56-135.56-135.56Z"/>
    </g>
    <g>
      <g>
        <path class="cls-1" d="M3037.58,1031.84c-2.37,0-4.72.09-7.05.23,61.41,3.65,110.1,54.59,110.1,116.92s-48.68,113.27-110.1,116.92c2.34.14,4.68.23,7.05.23,64.7,0,117.15-52.45,117.15-117.15,0-64.7-52.45-117.15-117.15-117.15Z"/>
        <path class="cls-12" d="M3037.58,1268.51c-2.17,0-4.53-.08-7.19-.24-1.25-.07-2.23-1.11-2.23-2.36s.98-2.29,2.23-2.36c60.49-3.59,107.87-53.92,107.87-114.56s-47.38-110.96-107.87-114.56c-1.25-.07-2.23-1.11-2.23-2.36s.98-2.29,2.23-2.36c2.67-.16,5.02-.24,7.19-.24,65.9,0,119.52,53.61,119.52,119.52s-53.62,119.52-119.52,119.52ZM3069.8,1038.81c43.14,18.17,73.19,60.9,73.19,110.18s-30.05,92.01-73.19,110.18c47.65-13.96,82.56-58.07,82.56-110.18,0-52.11-34.91-96.22-82.56-110.18Z"/>
      </g>
      <g>
        <path class="cls-3" d="M3140.62,1148.99c0-62.33-48.68-113.27-110.1-116.92-61.41,3.65-110.09,54.59-110.09,116.92s48.68,113.27,110.09,116.92c61.41-3.65,110.1-54.59,110.1-116.92Z"/>
        <path class="cls-4" d="M3119.46,1144.15c-8-6.05-12.81-15.49-17.54-24.11-4.71-8.58-9.4-17.4-16.34-24.42-14.95-15.11-38.32-16.65-57.35-9.09-9.47,3.76-18.08,9.79-24.77,17.48-6.88,7.9-11.33,17.37-13.02,27.69-1.84,11.22-.9,22.85,1.36,33.94,2.14,10.47,5.51,20.78,10.28,30.35.18.36.19.9-.15,1.18-9.1,7.48-22.14,7.35-33.11,5.24-10-1.92-20.37-5.73-28.46-12.04-7.42-5.78-13.51-13.09-18.16-21.24,9.16,52.84,53.69,93.54,108.34,96.79,61.15-3.64,109.66-54.16,110.08-116.12-7.48.9-15.02-1.02-21.13-5.65Z"/>
        <path class="cls-10" d="M3030.52,1268.28s-.09,0-.14,0c-62.99-3.74-112.32-56.14-112.32-119.28s49.34-115.54,112.32-119.28c.09,0,.19,0,.28,0,62.99,3.74,112.32,56.14,112.32,119.28s-49.34,115.54-112.32,119.28c-.05,0-.09,0-.14,0ZM3030.52,1034.45c-60.42,3.67-107.73,53.95-107.73,114.55s47.31,110.88,107.73,114.55c60.42-3.67,107.73-53.95,107.73-114.55s-47.31-110.88-107.73-114.55Z"/>
      </g>
    </g>
    <path class="cls-10" d="M3107.68,1231.61c-.7,0-1.39-.31-1.86-.9l-138.22-175.91c-.81-1.03-.63-2.52.4-3.32,1.03-.81,2.51-.63,3.32.4l138.22,175.91c.81,1.03.63,2.52-.4,3.32-.43.34-.95.51-1.46.51Z"/>
    <path class="cls-10" d="M2943.01,1219.04c-.74,0-1.48-.35-1.94-1.01-.75-1.07-.5-2.54.57-3.3l178.56-125.65c1.07-.76,2.55-.5,3.3.57.75,1.07.5,2.54-.57,3.3l-178.56,125.65c-.42.29-.89.43-1.36.43Z"/>
    <path class="cls-10" d="M3033.61,1266c-.06,0-.11,0-.17,0-1.3-.09-2.28-1.23-2.19-2.53l16.53-228.82c.09-1.3,1.17-2.31,2.53-2.19,1.3.09,2.28,1.23,2.19,2.53l-16.53,228.82c-.09,1.25-1.13,2.2-2.36,2.2Z"/>
    <path class="cls-10" d="M3140.08,1158.86c-.08,0-.16,0-.24-.01l-218.9-21.82c-1.3-.13-2.25-1.29-2.12-2.59.13-1.3,1.29-2.21,2.59-2.12l218.9,21.82c1.3.13,2.25,1.29,2.12,2.59-.12,1.22-1.15,2.13-2.35,2.13Z"/>
    <g>
      <path class="cls-13" d="M3104.59,1139.14c0,24.92-38.91,50.29-59.42,50.29s-37.12-20.2-37.12-45.12,16.62-45.12,37.12-45.12,59.42,15.04,59.42,39.96Z"/>
      <path class="cls-6" d="M3051.72,1109.93c-6.3-.79-13.03-.88-19.31.63-3.91,4.21-6.84,9.32-9.17,14.54-1.97,4.44-3.51,9.12-4.48,13.89,2.35-1.45,4.5-3.17,6.44-5.17,1.99-2.06,3.74-4.34,5.64-6.49,3.56-4.01,7.82-6.76,13.19-7.63,3-.49,6.02-.44,9.05-.44,2.88,0,5.76,0,8.64.06,6.5.14,13.05.53,19.46,1.73,1.74.33,3.53.72,5.3,1.23-1.46-.92-2.94-1.79-4.46-2.61-9.35-5.01-19.76-8.43-30.29-9.76Z"/>
      <path class="cls-6" d="M3086.69,1140.8c-4.5.99-9.01,1.92-13.51,2.89-3.11.66-6.24,1.28-9.3,2.16-5.55,1.61-11.03,3.46-16.65,4.86-5.42,1.35-11.4,2.72-17,1.77-8.78-1.5-10.52-11.56-10.53-18.99-.01-9.25,2.1-18.73,5.64-27.32-10.39,8-17.29,22.08-17.29,38.14,0,24.92,16.62,45.12,37.12,45.12s59.42-25.37,59.42-50.29c0-.9-.06-1.79-.17-2.67-5.87,1.62-11.8,3.03-17.74,4.33Z"/>
      <path class="cls-12" d="M3045.17,1191.8c-21.77,0-39.49-21.3-39.49-47.49s17.72-47.49,39.49-47.49,61.78,16.07,61.78,42.32-39.64,52.66-61.78,52.66ZM3045.17,1101.55c-19.17,0-34.76,19.18-34.76,42.76s15.59,42.76,34.76,42.76c9.6,0,24.05-6.15,35.95-15.31,13.41-10.32,21.1-22.21,21.1-32.62,0-22.95-37.46-37.59-57.05-37.59Z"/>
    </g>
  </g>
</svg>