<?xml version="1.0" encoding="UTF-8"?>
<svg xmlns="http://www.w3.org/2000/svg" version="1.1" viewBox="0 0 364.9 312.9">
  <!-- Generator: Adobe Illustrator 28.7.1, SVG Export Plug-In . SVG Version: 1.2.0 Build 142)  -->
  <g isolation="isolate">
    <g id="Layer_1">
      <g>
        <g>
          <path d="M348.3,128c-11.2-20-35.3-28.3-56.2-28.6-7.8-15.6-23.9-26.4-42.5-26.4s-18.9,3-26.4,8c-.4-.7-.8-1.4-1.3-2.1-7.5-11.3-22.3-15.9-35.1-17.1-25.3-2.4-51.7,8-64.9,30.1-6.2-3.7-13.5-5.9-21.3-5.9-17.7,0-32.8,11-38.8,26.6-3.4.3-7.3.7-9.2,1-19.5,3.1-35.6,11.6-41.8,31.5-4.1,12.8.3,32.6,12.4,40.1,4.9,3.1,10.9,5.1,16.4,6.7,1.6.4,15.2,1.7,15.1,1.4.2.4.3.9.5,1.3,4.2,9,11.5,16.2,19.9,21.6,17.6,11.2,40.2,15.1,60.8,12.3,2.2,2.1,4.6,4.1,7.1,5.8,11.3,7.8,26,10,39.4,10.5,29.1,1.1,57.9-6.1,80.4-25.2,2.4.5,4.9.8,7.3,1.1,47.9,4.8,108.4-38.7,78.3-92.6Z" fill="#fff"/>
          <path d="M187.9,245.9c-1.9,0-3.8,0-5.7-.1-17.4-.6-30.5-4.1-39.9-10.7-2.4-1.7-4.7-3.5-6.9-5.6-21.8,2.9-44-1.7-61-12.5-9.3-6-16.3-13.6-20.3-22-.1-.2-.2-.5-.3-.7-4.1,0-14.6-1.4-14.7-1.4-5-1.4-11.5-3.5-16.7-6.8-12.7-8-17-28.2-12.8-41.3,5.7-18,19.7-28.6,42.7-32.2,1.7-.3,5.2-.7,8.6-1,6.6-16.2,22.1-26.6,39.6-26.6s14.5,1.9,20.9,5.5c12.8-20.6,38.3-32.2,65.3-29.7,9.6.9,27.1,4.4,35.9,17.6.3.4.5.8.7,1.2,7.8-5,16.8-7.6,26.1-7.6,18.3,0,34.8,10.1,43.2,26.4,19.8.4,44.8,8.2,56.5,29.1,14.3,25.5,7.4,45.9-.8,58.4-15.6,23.7-48.6,38.7-78.5,35.7-2.2-.2-4.5-.5-6.9-1-19.7,16.6-45.5,25.2-75,25.2ZM135.8,227.5c.3,0,.5.1.7.3,2.2,2.1,4.5,4,7,5.7,9.1,6.3,21.9,9.7,38.8,10.3,31.5,1.2,59.1-7.5,79.6-25,.2-.2.6-.3.9-.2,2.6.5,5,.8,7.2,1.1,28.7,2.9,61.6-12.1,76.5-34.8,7.9-12.1,14.5-31.7.8-56.3-11.4-20.3-36-27.8-55.3-28-.4,0-.7-.2-.9-.6-7.9-15.9-23.9-25.8-41.6-25.8s-18.2,2.7-25.8,7.9c-.2.2-.5.2-.8.1-.3,0-.5-.3-.7-.5-.4-.7-.8-1.4-1.2-2-8.3-12.5-25.1-15.8-34.4-16.7-26.6-2.5-51.7,9.1-63.9,29.6-.1.2-.4.4-.6.5-.3,0-.6,0-.8-.1-6.3-3.8-13.5-5.7-20.8-5.7-16.9,0-31.7,10.2-37.9,25.9-.1.4-.5.6-.9.7-3.6.3-7.4.7-9.1,1-22.1,3.5-35.6,13.5-41,30.8-3.9,12.4.4,31.7,12,38.9,5,3.1,11.2,5.1,16.1,6.5,1.4.4,13.1,1.5,14.6,1.4.5-.1,1,.1,1.2.6h0s0,0,0,0l.2.5c0,.2.2.5.3.7,3.8,8.1,10.5,15.4,19.5,21.1,16.7,10.7,38.6,15.1,60.1,12.1,0,0,0,0,.1,0Z" fill="#b3e4fa"/>
        </g>
        <path d="M348.3,128c-4-7.2-9.8-12.9-16.5-17.3,4.8,4.6,8.7,10.2,11.1,16.4,2.2,5.8,2.9,12.2,1.7,18.3-1.2,6.5-4.5,12.5-8.6,17.5-6.8,8.2-16.9,13.3-27,16-10.9,3-22.6,3.6-33.8,1.6-6.1-1.1-12.2-3-17.6-6-4.6,4.1-9.9,7.5-15.6,10-19.1,8.5-41.3,9.1-61.7,6.2-12.6-1.8-26.9-6-37.1-14.4-.2,0-.3.1-.5.2-17.9,6.2-38.6,8.3-56.4.4-7-3.1-13.2-8-16.8-14.8-14.7,1-29.7-2-41.6-11.1-3.5-2.7-6.6-5.7-8.2-9.8-1.4-3.5-1.6-7.4-.7-11.1-3.5,4.1-6.3,9.1-8.2,15.1-4.1,12.8.3,32.6,12.4,40.1,4.9,3.1,10.9,5.1,16.4,6.7,1.6.4,15.2,1.7,15.1,1.4.2.4.3.9.5,1.3,4.2,9,11.5,16.2,19.9,21.6,17.6,11.2,40.2,15.1,60.8,12.3,2.2,2.1,4.6,4.1,7.1,5.8,11.3,7.8,26,10,39.4,10.5,29.1,1.1,57.9-6.1,80.4-25.2,2.4.5,4.9.8,7.3,1.1,47.9,4.8,108.4-38.7,78.3-92.6Z" fill="#b3e4fa" mix-blend-mode="multiply" opacity=".5"/>
      </g>
    </g>
  </g>
</svg>