<svg xmlns="http://www.w3.org/2000/svg" viewBox="0 0 349.28 140.45"><defs><style>.cls-1{fill:#fff}.cls-2,.cls-3{fill:#b3e4fa}.cls-3{mix-blend-mode:multiply;opacity:.49}.cls-4{isolation:isolate}</style></defs><g class="cls-4"><g id="Layer_1"><g><g><g><path d="M299.59,76.42c-1.43-8.25-6.62-15.6-15.79-18.33-4.13-1.23-8.85-1.31-13.06-.48-.27.05-.56.12-.84.18-1.03-5.68-4.16-10.89-8.15-14.99-7.5-7.71-18.7-12.84-29.62-12.31-1-2.88-2.39-5.65-4.26-8.25-7.26-10.1-18.87-16.43-30.75-19.4-12.42-3.11-26.09-2.87-37.97,2.22-10.73,4.6-19.87,13-25.61,23.22-.16-.02-.31-.05-.47-.07-8.88-1.01-18,.81-26.14,4.38-8.07,3.54-15.48,9-20.6,16.24-4.4,6.23-6.86,14.03-6.47,21.66-2.55.15-5.05.64-7.11,1.16-7.66,1.96-14.34,6.59-17.17,14.24-2.86,7.73.18,16.54,5.7,22.32,6.36,6.65,15.67,9.23,24.67,9.23,5.57,0,11.06-1.03,16.33-2.78.78-.26,1.57-.54,2.35-.82,6.52,3.99,14.17,5.91,21.54,7.79,17.65,4.51,36.89,2,53-6.43.12-.06.23-.13.35-.19,5.31,3.39,11.33,5.81,17.18,7.21,17.06,4.07,37.26,2.38,51.89-7.94,3.15-2.22,5.98-4.88,8.36-7.9,3.21,1.12,6.61,1.74,9.98,2.03,8.34.73,18.23-.98,24.53-6.84,6.75-6.29,9.68-16.15,8.12-25.17Z" class="cls-1"/><path d="M214.22,125.14c-5.81,0-11.77-.69-17.69-2.1-6.08-1.45-11.96-3.89-17.03-7.06-16.46,8.6-35.96,10.96-53.52,6.47l-.33-.08c-7.2-1.84-14.64-3.74-21.09-7.6-.67.24-1.34.48-2.01.7-5.65,1.87-11.23,2.82-16.59,2.82-10.45,0-19.42-3.37-25.26-9.48-6.33-6.62-8.63-15.71-5.87-23.16,2.69-7.27,8.99-12.51,17.74-14.75,2.21-.57,4.43-.95,6.47-1.13-.19-7.36,2.21-15.11,6.64-21.38,4.91-6.95,12.15-12.66,20.94-16.51,8.82-3.87,17.98-5.41,26.51-4.45,5.93-10.33,15.05-18.51,25.72-23.09,11.3-4.84,24.97-5.65,38.49-2.26,13.4,3.35,24.49,10.35,31.21,19.71,1.72,2.4,3.12,5.05,4.16,7.89,10.49-.31,21.75,4.48,29.64,12.58,4.19,4.3,7.08,9.45,8.2,14.58.02,0,.03,0,.05,0,4.58-.9,9.35-.72,13.45.5,8.76,2.61,14.73,9.53,16.36,18.97h0c1.64,9.47-1.64,19.64-8.37,25.9-5.69,5.3-15.09,7.94-25.16,7.06-3.52-.31-6.76-.94-9.63-1.89-2.33,2.87-5.07,5.43-8.17,7.61-9.46,6.67-21.79,10.17-34.86,10.17ZM179.53,114.21c.15,0,.31.04.44.13,5.01,3.2,10.86,5.66,16.93,7.11,18.79,4.48,37.94,1.56,51.23-7.82,3.13-2.2,5.88-4.81,8.19-7.74.21-.27.58-.38.91-.27,2.88,1.01,6.17,1.68,9.78,1.99,9.61.84,18.55-1.64,23.9-6.63,6.33-5.9,9.42-15.49,7.87-24.43h0c-1.53-8.81-7.08-15.26-15.22-17.69-3.85-1.15-8.35-1.31-12.67-.46-.18.03-.38.08-.57.12l-.25.06c-.22.05-.44,0-.63-.12-.18-.12-.31-.31-.35-.53-.92-5.09-3.74-10.26-7.93-14.57-7.72-7.94-18.84-12.55-29-12.07-.36.04-.69-.21-.81-.55-1-2.9-2.4-5.61-4.15-8.04-6.5-9.05-17.26-15.82-30.29-19.08-13.17-3.29-26.47-2.52-37.45,2.18-10.51,4.51-19.47,12.63-25.22,22.87-.16.29-.48.44-.81.41l-.46-.07c-8.25-.94-17.14.55-25.72,4.31-8.52,3.74-15.52,9.26-20.26,15.96-4.38,6.2-6.69,13.91-6.32,21.15.02.45-.32.83-.76.85-2.15.13-4.55.52-6.96,1.14-8.21,2.1-14.11,6.98-16.61,13.74-2.89,7.81.69,16.41,5.52,21.47,5.53,5.79,14.08,8.98,24.09,8.98,5.18,0,10.59-.92,16.08-2.74.77-.26,1.55-.53,2.33-.82.24-.08.5-.06.71.07,6.32,3.87,13.77,5.77,20.98,7.61l.33.09c17.19,4.4,36.3,2.07,52.42-6.36l.35-.19c.12-.06.25-.09.38-.09Z" class="cls-2"/></g><path d="M299.59,76.42c-.26-1.48-.64-2.93-1.14-4.33,1.9,14.75-16.78,21.25-28.17,22.14-15.13,1.19-22.22-1.08-31.32-6.02-2.05,1.73-4.3,3.23-6.74,4.45-9.72,4.84-21.15,5.69-31.85,5.56-7.21-.09-14.75-1-21.42-3.83-1.65.73-3.34,1.37-5.06,1.93-12.5,4.08-26.49,4.35-39.35,1.89-7.04-1.35-15.38-3.64-21.12-8.47-11.24,3.31-23.26,4.09-34.57.58-5.37-1.67-12.58-4.61-13.25-11.09-.21-2.02.33-3.82,1.31-5.4-5.09,2.5-9.25,6.48-11.33,12.09-2.86,7.73.18,16.54,5.7,22.32,6.36,6.65,15.67,9.23,24.67,9.23,5.57,0,11.06-1.03,16.33-2.78.78-.26,1.57-.54,2.35-.82,6.52,3.99,14.17,5.91,21.54,7.79,17.65,4.51,36.89,2,53-6.43.12-.06.23-.13.35-.19,5.31,3.39,11.33,5.81,17.18,7.21,17.06,4.07,37.26,2.38,51.89-7.94,3.15-2.22,5.98-4.88,8.36-7.9,3.21,1.12,6.61,1.74,9.98,2.03,8.34.73,18.23-.98,24.53-6.84,6.75-6.29,9.68-16.15,8.12-25.17Z" class="cls-3"/></g><g><g><path d="M154.86,109.54c-.9-5.19-4.16-9.8-9.93-11.52-2.6-.77-5.56-.82-8.21-.3-.17.03-.35.08-.53.12-.65-3.57-2.61-6.85-5.12-9.42-4.72-4.85-11.75-8.07-18.62-7.74-.63-1.81-1.5-3.55-2.68-5.18-4.56-6.35-11.86-10.32-19.33-12.19-7.81-1.95-16.4-1.8-23.86,1.4-6.74,2.89-12.49,8.17-16.09,14.6-.1-.01-.2-.03-.3-.04-5.58-.64-11.31.51-16.43,2.75-5.07,2.23-9.73,5.66-12.95,10.21-2.77,3.91-4.31,8.82-4.06,13.61-1.6.1-3.17.4-4.47.73-4.81,1.23-9.01,4.14-10.79,8.95-1.8,4.86.11,10.4,3.58,14.03,3.99,4.18,9.85,5.8,15.51,5.8,3.5,0,6.95-.65,10.27-1.75.49-.16.98-.34,1.48-.52,4.1,2.51,8.91,3.72,13.53,4.9,11.1,2.84,23.19,1.26,33.31-4.04.07-.04.15-.08.22-.12,3.34,2.13,7.12,3.65,10.8,4.53,10.72,2.56,23.41,1.5,32.61-4.99,1.98-1.4,3.76-3.06,5.25-4.96,2.01.71,4.15,1.09,6.27,1.28,5.24.46,11.46-.61,15.42-4.3,4.24-3.95,6.09-10.15,5.1-15.82Z" class="cls-1"/><path d="M101.2,140.45c-3.68,0-7.44-.44-11.19-1.33-3.8-.91-7.47-2.42-10.65-4.38-10.38,5.37-22.65,6.83-33.7,4.01l-.2-.05c-4.5-1.15-9.15-2.34-13.22-4.74-.38.14-.76.27-1.14.39-3.58,1.19-7.12,1.79-10.52,1.79-6.65,0-12.37-2.15-16.1-6.05-4.06-4.24-5.53-10.08-3.76-14.87,1.73-4.67,5.76-8.02,11.35-9.46.95-.24,2.33-.54,3.83-.69-.05-4.61,1.47-9.42,4.24-13.33,3.12-4.41,7.71-8.04,13.29-10.48,5.52-2.43,11.26-3.41,16.62-2.84,3.76-6.47,9.5-11.59,16.21-14.47,7.16-3.07,15.82-3.58,24.38-1.44,8.49,2.12,15.52,6.57,19.79,12.51,1.06,1.47,1.92,3.09,2.58,4.82,6.55-.11,13.68,2.91,18.64,8,2.59,2.66,4.41,5.84,5.17,9.02,2.84-.52,5.79-.39,8.34.37,5.62,1.68,9.45,6.11,10.5,12.16h0c1.05,6.05-1.05,12.55-5.35,16.55-3.64,3.39-9.64,5.07-16.04,4.52-2.16-.19-4.14-.57-5.92-1.14-1.45,1.76-3.15,3.33-5.06,4.68-6,4.23-13.81,6.45-22.09,6.45ZM79.5,133.03c.14,0,.26.02.35.08,3.12,1.99,6.77,3.52,10.55,4.43,11.72,2.8,23.67.98,31.96-4.87,1.94-1.37,3.65-2.98,5.08-4.8.21-.27.58-.38.91-.27,1.78.62,3.83,1.04,6.07,1.24,5.96.52,11.49-1.01,14.79-4.08,3.91-3.64,5.81-9.56,4.86-15.08h0c-.94-5.42-4.35-9.39-9.36-10.88-2.34-.7-5.19-.8-7.82-.28l-.36.08c-.22.05-.52.02-.7-.1-.19-.12-.39-.3-.42-.52-.57-3.14-2.31-6.34-4.9-9-4.79-4.93-11.69-7.8-17.99-7.49-.37.04-.69-.21-.81-.55-.62-1.8-1.48-3.47-2.57-4.97-4.04-5.63-10.74-9.85-18.86-11.88-8.22-2.06-16.51-1.57-23.35,1.36-6.55,2.8-12.12,7.86-15.7,14.25-.16.29-.48.45-.81.41-.01,0-.16-.03-.17-.03-5.24-.6-10.78.32-16.12,2.67-5.3,2.33-9.66,5.76-12.61,9.93-2.72,3.84-4.14,8.62-3.92,13.1.02.45-.32.83-.76.85-1.68.1-3.28.44-4.32.71-5.06,1.3-8.69,4.3-10.23,8.45-1.77,4.79.43,10.07,3.41,13.18,3.42,3.58,8.72,5.55,14.92,5.55,3.22,0,6.59-.57,10.01-1.71.48-.16.97-.33,1.46-.51.23-.09.49-.06.71.07,3.93,2.41,8.6,3.6,13.11,4.75l.2.05c10.73,2.74,22.66,1.29,32.73-3.98.17-.09.45-.16.69-.16ZM79.19,133.92l.07.13.02-.04-.09-.09Z" class="cls-2"/></g><path d="M154.86,109.54c-.16-.93-.4-1.84-.72-2.72,1.19,9.27-10.55,13.35-17.7,13.91-9.51.75-13.96-.68-19.69-3.78-1.29,1.09-2.7,2.03-4.23,2.79-6.11,3.04-13.3,3.58-20.02,3.49-4.53-.05-9.27-.63-13.46-2.41-1.04.46-2.1.86-3.18,1.21-7.86,2.56-16.65,2.74-24.73,1.19-4.42-.85-9.66-2.29-13.27-5.32-7.07,2.08-14.62,2.57-21.72.36-3.38-1.05-7.91-2.9-8.33-6.97-.13-1.27.21-2.4.82-3.39-3.2,1.57-5.82,4.07-7.12,7.6-1.8,4.86.11,10.4,3.58,14.03,3.99,4.18,9.85,5.8,15.51,5.8,3.5,0,6.95-.65,10.27-1.75.49-.16.98-.34,1.48-.52,4.1,2.51,8.91,3.72,13.53,4.9,11.1,2.84,23.19,1.26,33.31-4.04.07-.04.15-.08.22-.12,3.34,2.13,7.12,3.65,10.8,4.53,10.72,2.56,23.41,1.5,32.61-4.99,1.98-1.4,3.76-3.06,5.25-4.96,2.01.71,4.15,1.09,6.27,1.28,5.24.46,11.46-.61,15.42-4.3,4.24-3.95,6.09-10.15,5.1-15.82Z" class="cls-3"/></g><g><g><path d="M348.25,111.72c-.71-4.13-3.31-7.8-7.9-9.17-2.07-.62-4.42-.65-6.53-.24-.13.03-.28.06-.42.09-.51-2.84-2.08-5.45-4.07-7.5-3.75-3.86-9.35-6.42-14.81-6.16-.5-1.44-1.2-2.83-2.13-4.12-3.63-5.05-9.43-8.21-15.37-9.7-6.21-1.55-13.05-1.43-18.98,1.11-5.36,2.3-9.93,6.5-12.8,11.61-.08,0-.16-.03-.24-.04-4.44-.51-9,.4-13.07,2.19-4.04,1.77-7.74,4.5-10.3,8.12-2.2,3.11-3.43,7.02-3.23,10.83-1.27.08-2.53.32-3.56.58-3.83.98-7.17,3.3-8.59,7.12-1.43,3.86.09,8.27,2.85,11.16,3.18,3.33,7.83,4.61,12.34,4.61,2.78,0,5.53-.52,8.17-1.39.39-.13.78-.27,1.18-.41,3.26,2,7.09,2.96,10.77,3.9,8.83,2.26,18.45,1,26.5-3.22.06-.03.12-.06.18-.09,2.65,1.7,5.66,2.91,8.59,3.61,8.53,2.04,18.63,1.19,25.95-3.97,1.58-1.11,2.99-2.44,4.18-3.95,1.6.56,3.31.87,4.99,1.02,4.17.36,9.12-.49,12.26-3.42,3.38-3.14,4.84-8.08,4.06-12.58Z" class="cls-1"/><path d="M305.56,136.48c-2.94,0-5.95-.35-8.94-1.06-3.01-.72-5.91-1.91-8.44-3.46-8.28,4.26-18.04,5.41-26.84,3.16l-.18-.04c-3.56-.91-7.24-1.85-10.48-3.74-.28.1-.56.2-.83.29-8.49,2.81-16.82,1.3-21.35-3.43-3.27-3.42-4.46-8.14-3.02-12.01,1.39-3.76,4.64-6.47,9.15-7.63.73-.19,1.77-.41,2.92-.54,0-3.65,1.21-7.46,3.4-10.55,2.5-3.53,6.18-6.44,10.64-8.4,4.39-1.92,8.94-2.71,13.2-2.28,3.01-5.13,7.58-9.2,12.92-11.48,5.73-2.46,12.66-2.86,19.5-1.15,6.8,1.7,12.42,5.26,15.84,10.01.83,1.15,1.51,2.42,2.03,3.77,5.27,0,10.89,2.36,14.83,6.42,2.04,2.1,3.48,4.59,4.12,7.1,2.24-.38,4.55-.27,6.56.33,4.54,1.35,7.62,4.93,8.47,9.81h0c.86,4.94-.79,10.05-4.31,13.32-2.93,2.73-7.75,4.09-12.89,3.64-1.68-.15-3.24-.44-4.64-.88-1.15,1.38-2.49,2.61-3.99,3.67-4.8,3.39-11.05,5.16-17.67,5.16ZM288.29,130.25c.14,0,.27.02.37.09,2.46,1.58,5.35,2.79,8.34,3.5,9.28,2.22,18.73.78,25.29-3.85,1.53-1.08,2.88-2.35,4.01-3.79.21-.27.58-.38.91-.26,1.41.49,3.02.82,4.79.97,4.69.41,9.04-.79,11.64-3.21,3.07-2.86,4.57-7.51,3.81-11.85h0c-.74-4.25-3.41-7.36-7.33-8.52-1.83-.55-4.07-.63-6.14-.22l-.26.06c-.22.05-.51.02-.7-.1-.19-.12-.38-.3-.42-.52-.45-2.46-1.82-4.98-3.86-7.07-3.78-3.89-9.21-6.15-14.19-5.91-.38.03-.69-.21-.81-.55-.49-1.41-1.17-2.73-2.02-3.92-3.19-4.44-8.49-7.78-14.91-9.38-6.5-1.63-13.06-1.25-18.46,1.07-5.17,2.22-9.58,6.22-12.41,11.26-.16.29-.49.45-.81.41l-.14-.84-.09.81c-4.05-.46-8.43.27-12.65,2.13-4.19,1.84-7.64,4.55-9.96,7.84-2.14,3.03-3.26,6.79-3.08,10.32.02.45-.32.83-.76.85-1.33.08-2.58.35-3.4.56-3.97,1.02-6.82,3.37-8.03,6.62-1.39,3.74.34,7.88,2.67,10.31,4.09,4.28,11.77,5.63,19.66,3.01.38-.13.77-.26,1.15-.4.23-.08.49-.06.71.07,3.1,1.9,6.8,2.84,10.37,3.76l.18.05c8.5,2.17,17.95,1.03,25.92-3.15.16-.08.4-.14.62-.14Z" class="cls-2"/></g><path d="M348.25,111.72c-.13-.74-.32-1.47-.57-2.17.95,7.37-8.39,10.62-14.08,11.07-7.56.59-11.11-.54-15.66-3.01-1.02.87-2.15,1.62-3.37,2.22-4.86,2.42-10.58,2.84-15.93,2.78-3.6-.04-7.38-.5-10.71-1.92-.83.36-1.67.68-2.53.96-6.25,2.04-13.25,2.18-19.67.94-3.52-.67-7.69-1.82-10.56-4.24-5.62,1.66-11.63,2.04-17.28.29-2.69-.83-6.29-2.3-6.63-5.55-.1-1.01.16-1.91.65-2.7-2.55,1.25-4.63,3.24-5.67,6.05-1.43,3.86.09,8.27,2.85,11.16,3.18,3.33,7.83,4.61,12.34,4.61,2.78,0,5.53-.52,8.17-1.39.39-.13.78-.27,1.18-.41,3.26,2,7.09,2.96,10.77,3.9,8.83,2.26,18.45,1,26.5-3.22.06-.03.12-.06.18-.09,2.65,1.7,5.66,2.91,8.59,3.61,8.53,2.04,18.63,1.19,25.95-3.97,1.58-1.11,2.99-2.44,4.18-3.95,1.6.56,3.31.87,4.99,1.02,4.17.36,9.12-.49,12.26-3.42,3.38-3.14,4.84-8.08,4.06-12.58Z" class="cls-3"/></g></g></g></g></svg>