<?xml version="1.0" encoding="UTF-8"?>
<svg xmlns="http://www.w3.org/2000/svg" viewBox="0 0 378.38 494.71">
  <defs>
    <style>
      .cls-1 {
        fill: #bc7196;
      }

      .cls-2 {
        fill: #2e323e;
      }

      .cls-3, .cls-4 {
        fill: #fbe3e3;
      }

      .cls-5 {
        fill: #43aaa0;
      }

      .cls-6 {
        fill: #e0485a;
      }

      .cls-7 {
        isolation: isolate;
      }

      .cls-8 {
        fill: #f58e3f;
      }

      .cls-4 {
        mix-blend-mode: multiply;
      }
    </style>
  </defs>
  <g class="cls-7">
    <g id="OBJECTS">
      <g>
        <g>
          <g>
            <path class="cls-2" d="M139.26,413.53s-70.95-1.71-73.52-1.71-57.35-12.87-63.6-5.51c-6.25,7.35,2.57,24.93,8.82,29.93,6.25,5,57.35,24.11,164.69,23.01,107.34-1.1,174.98-3.82,177.19-15.7,2.21-11.88-70.95-20.97-70.95-20.97l-142.63-9.05Z"/>
            <path class="cls-2" d="M88.46,481.11c-4.43,8.56-13.83,12.5-21,8.79-7.17-3.71-9.38-13.66-4.95-22.22,4.43-8.56,13.83-12.5,21-8.79,7.17,3.71,9.38,13.66,4.95,22.22Z"/>
            <path class="cls-2" d="M313.68,484.53c-4.43,8.56-13.83,12.5-21,8.79-7.17-3.71-9.38-13.66-4.95-22.22,4.43-8.56,13.83-12.5,21-8.79,7.17,3.71,9.38,13.66,4.95,22.22Z"/>
          </g>
          <g>
            <path class="cls-5" d="M286.98,307.89c0,2.42-14.64,81.2-14.64,81.2,0,0-5.09,28.88-6.44,34.1-1.35,5.22-24.11-11.37-24.11-11.37,0,0-7.71-20.41-2.57-32,5.14-11.59,47.77-71.93,47.77-71.93Z"/>
            <path class="cls-5" d="M285.96,137.15s16.36,6.53,17.23,24.83c.87,18.3-11.12,95.63-11.12,95.63l-39.54-11.55,5.34-40.95,28.08-67.96Z"/>
          </g>
          <g>
            <g>
              <path class="cls-1" d="M113.18,364.01s-1.46-9.27-6.22-11.34c-4.76-2.07-28.83-1.86-33.75.83-4.92,2.69-34.7,52.32-33.87,58.94.83,6.62,4.55,21.51,16.54,28.54,11.99,7.03,21.51,0,21.51,0,0,0,4.14-12.41,5.17-21.3l29.36-25.02,1.25-30.64Z"/>
              <g>
                <path class="cls-2" d="M47.77,409.51c9.4-19.27,18.88-38.08,30.45-56.17.15-.24-.22-.46-.38-.22-11.75,17.56-22.74,36.51-30.52,56.21-.1.26.32.44.45.19h0Z"/>
                <path class="cls-2" d="M42.06,415.47c8.48-5.7,20.8-6.47,27.26,2.61,5.22,7.35,4.56,16.71,3.89,25.22-.04.53.77.52.82,0,.94-9.79,1.19-21.59-6.9-28.71-7.14-6.28-18.01-4.53-25.23.59-.17.12-.01.4.17.28h0Z"/>
                <path class="cls-2" d="M86.62,399.47c1.29,3.19,2.52,6.43,3.92,9.58.2.44.96.12.78-.33-1.28-3.2-2.76-6.33-4.16-9.48-.14-.31-.68-.08-.55.23h0Z"/>
                <path class="cls-2" d="M91.2,394.7c.98,3.53,2.23,7.25,3.68,10.61.22.5,1,.14.87-.36-.95-3.51-2.41-7.21-3.98-10.49-.15-.32-.66-.09-.57.24h0Z"/>
                <path class="cls-2" d="M108.24,358.25c-16.48,5.48-13.21,32.15-2.23,41.18.32.26.76-.15.46-.46-10.01-10.69-14-32.64,1.92-40.36.2-.1.06-.43-.15-.36h0Z"/>
              </g>
            </g>
            <path class="cls-3" d="M128.61,405.92c.06-6.38.24-12.76.69-19.13.4-5.68,1.01-11.39,2.21-16.97l-21.64-6.87s-5.25,3.47-7.31,11.26c-2.9,10.96,4.83,19.98,4.83,19.98,0,0,8.43,6.23,21.21,13.81,0-.7,0-1.39,0-2.09Z"/>
          </g>
          <g>
            <g>
              <path class="cls-8" d="M231.88,235.17s55.01,2.47,71.59,13.4c16.57,10.93,21.86,34.56,18.69,45.14-3.17,10.58-79.34,117.43-79.34,117.43l-40.2-63.83,13.75-24.16h-32.44l-25.39-30.86,73.35-57.13Z"/>
              <path class="cls-8" d="M126.15,367.08s-8.47,10.44-6.38,23.62c2.09,13.18,3.75,13.89,6.38,28.53,2.63,14.64-15.39,23.65-10.13,36.03,0,0,108.19-.59,128.6-39.41,20.41-38.82-18.04-61.18-18.04-61.18l-57.64-60.91,19.24-24.14-72.34-71.4s-34.75,37.46-42.62,58.48c-7.87,21.02,1.51,70.56,29.66,89.71,28.15,19.14,23.27,20.67,23.27,20.67Z"/>
            </g>
            <g>
              <path class="cls-2" d="M158.34,288.25c18,17.53,37.68,32.57,53.42,52.32.19.24.55-.07.41-.32-6.47-11.48-17.72-20.64-27.45-29.34-8.63-7.72-17.49-15.2-26-23.05-.26-.24-.64.14-.38.38h0Z"/>
              <path class="cls-2" d="M238.61,314.54c4.84-5.6,9.85-11.09,14.45-16.89.09-.11-.06-.27-.16-.16-5.09,5.37-9.77,11.15-14.53,16.81-.14.16.1.4.24.24h0Z"/>
              <path class="cls-2" d="M181.05,278.02c-3.9,5.42-7.9,10.79-11.65,16.32-.27.4.36.74.63.37,3.99-5.36,7.74-10.9,11.58-16.36.24-.35-.32-.67-.57-.33h0Z"/>
              <path class="cls-2" d="M107.27,347.78c15.28,17.59,36.03,31.99,58.49,38.63.29.09.39-.34.12-.44-22.33-8.82-41.74-20.96-58.26-38.53-.22-.24-.56.11-.35.35h0Z"/>
              <path class="cls-2" d="M102.38,215.72c3.54,5.61,7.07,11.31,10.98,16.67.27.37.87.04.62-.36-3.43-5.68-7.32-11.15-11.11-16.59-.2-.29-.68-.03-.49.28h0Z"/>
              <path class="cls-2" d="M113.22,231.94c-16.11,12.34-20.09,39.04-42.21,43.53-.49.1-.28.85.21.75,21.83-4.29,27.12-30.98,42.38-43.79.27-.22-.1-.7-.37-.49h0Z"/>
              <path class="cls-2" d="M97.33,219.37c4.7,5.46,8.32,11.34,11.8,17.61.18.32.64.04.49-.28-2.99-6.43-7.3-12.33-11.97-17.64-.19-.21-.5.1-.31.31h0Z"/>
              <path class="cls-2" d="M130.37,369.48c-7.11,13.57-2.21,28.47.67,42.5,2.09,10.19,2.32,18.84-3.72,27.71-3.35,4.92-6.69,9.94-4.85,16.09.15.51.95.29.8-.22-2.54-8.6,5.28-14.21,8.3-21.34,2.25-5.32,2.06-11.17,1.3-16.79-2.17-15.84-9.43-32.09-1.96-47.64.17-.34-.34-.65-.52-.3h0Z"/>
              <path class="cls-2" d="M302.66,261.42c5.59,5.24,7.29,11.62,7.36,19.04,0,.37.58.47.66.09,1.49-7.25-2.2-14.88-7.64-19.51-.26-.22-.63.14-.38.38h0Z"/>
              <path class="cls-2" d="M265.64,239.14c16.75,3.01,34.25,3.92,46.36,17.45,12.45,13.91,13.2,32.99,5.05,49.22-.15.3.27.54.45.26,8.98-14.44,7.6-33.81-2.56-47.27-11.95-15.81-30.89-17.75-49.22-20.2-.3-.04-.37.48-.07.53h0Z"/>
              <path class="cls-2" d="M126.54,366.14c-5.7,5.54-7.31,13.33-6.96,21.06.21,4.59,1.2,9.07,2.21,13.54,1.45,6.39,2.38,12.61,3.04,19.12.04.4.58.4.62,0,1.79-17.7-13.45-37.8,1.4-53.4.2-.21-.11-.52-.32-.32h0Z"/>
            </g>
          </g>
          <g>
            <path class="cls-1" d="M249.13,409.46s42.98,16.58,45.69,20.3c2.71,3.72,2.37,21.65,2.37,21.65l-41.37-1.69-6.69-40.25Z"/>
            <path class="cls-2" d="M279.74,449.59c.31-3.7,1.19-7.25,2.97-10.53,1.53-2.83,4.39-7.36,7.91-7.95.48-.08.27-.8-.2-.73-3.46.52-6.18,4.43-7.85,7.22-2.19,3.67-3.31,7.73-3.37,11.99,0,.36.52.35.55,0h0Z"/>
            <path class="cls-2" d="M277.96,441.82c-9.4-.86-18.84-1.31-28.24-2.17-.34-.03-.43.56-.08.61,9.3,1.27,18.93,2.3,28.33,2.18.4,0,.39-.58,0-.62h0Z"/>
            <path class="cls-2" d="M267.92,419.61c-.65.95-1.31,1.91-1.96,2.86-.59.86-1.25,1.67-1.57,2.67-.06.19.18.28.31.18.82-.67,1.34-1.6,1.93-2.46.65-.96,1.3-1.91,1.95-2.87.28-.41-.39-.79-.66-.39h0Z"/>
            <path class="cls-2" d="M272.4,422.08c-1.31,1.09-2.52,2.28-3.58,3.62-.86,1.09-1.88,2.32-2.23,3.69-.08.29.3.53.52.3,1.02-1.1,1.7-2.55,2.64-3.74s2.02-2.32,3.17-3.35c.36-.32-.16-.83-.52-.52h0Z"/>
          </g>
          <g>
            <path class="cls-5" d="M299.33,148.85s-.99,29.74-9.84,49.38c-8.85,19.63-82.47,88.02-110.63,75.15-28.16-12.87-80.05-62.35-61.55-88.1,18.5-25.75,38.22-18.54,57.53-36.42,19.31-17.88,96.55-39.61,96.55-39.61l27.95,39.61Z"/>
            <g>
              <path class="cls-2" d="M264.21,113c-2.77,2.72-2.3,8.58-2.25,12.12.07,5.57.97,11.12,2.59,16.45,3.21,10.54,9.34,20.58,17.8,27.71.25.21.62-.13.37-.37-7.49-7.24-13.3-15.48-16.65-25.42-1.59-4.73-2.63-9.63-3.05-14.61-.37-4.32-1.27-12.11,1.32-15.78.05-.08-.06-.16-.13-.1h0Z"/>
              <path class="cls-2" d="M298.69,157.54c-3.59,17.11-6.77,34.78-16.85,49.49-4.83,7.05-11.43,12.31-17.29,18.43s-11.54,12.03-18.02,17.47c-.17.14.05.4.23.29,7.27-4.27,12.68-11.1,18.43-17.12s12.17-11.15,16.96-17.96c10.37-14.74,14.1-33.02,17.06-50.46.06-.33-.44-.48-.52-.14h0Z"/>
              <path class="cls-2" d="M288.16,171.27c2.98-6.92,7.43-12.07,12.3-17.67.11-.12-.04-.35-.19-.24-5.78,4.25-9.86,11.22-12.49,17.76-.09.21.28.37.38.16h0Z"/>
              <path class="cls-2" d="M119.13,184.11c-1.7,20.56,9.41,40.28,22.56,55.3,6.89,7.86,15.23,14.31,23.51,20.64,8.21,6.26,16.54,11.47,27.09,11.99.34.02.34-.52,0-.53-11.39-.64-20.09-6.76-28.79-13.52-7.53-5.85-15.12-11.75-21.38-19-13.01-15.07-23.72-34.43-22.58-54.87.01-.27-.39-.26-.41,0h0Z"/>
              <path class="cls-2" d="M114.32,189.06c-3.01,22.68,12.45,41.87,26.92,57.5.12.13.31-.06.2-.2-13.79-16.59-28.87-34.17-26.8-57.3.02-.21-.29-.2-.32,0h0Z"/>
              <path class="cls-2" d="M148.2,252.86c4.84,4.58,10.38,8.54,16.52,11.17.16.07.31-.16.14-.24-6-3.05-11.52-6.53-16.52-11.08-.1-.09-.24.05-.15.15h0Z"/>
            </g>
          </g>
          <g>
            <g>
              <path class="cls-5" d="M240.09,284.75s16.18-93.04,10.79-117.31-22.47-26.97-22.47-26.97c0,0-22.02-.76-27.87,29.06-5.84,29.82-1.91,116.56-1.91,122.41s29.3,131.87,29.3,131.87l27.89-2.43s-6.29-97.08-15.73-136.64Z"/>
              <g>
                <path class="cls-2" d="M234.51,143.7c15.29,9.39,18.49,30.64,18.28,47.07-.21,17.34-4.37,34.28-5.35,51.54-.02.31.48.38.54.07,1.82-9.21,2.58-18.72,3.71-28.03,1.21-9.94,2.29-19.96,1.8-29.99-.72-14.66-4.82-33.3-18.79-40.99-.22-.12-.4.2-.19.33h0Z"/>
                <path class="cls-2" d="M198,189.03c-.13,21.96.3,43.93.53,65.89.19,17.9-1.66,38.86,6.81,55.31.13.25.56.08.46-.2-6.83-18.91-6.32-38.27-6.56-58.11-.25-20.96-.33-41.94-.93-62.9,0-.2-.31-.2-.31,0h0Z"/>
                <path class="cls-2" d="M238.57,277.47c5.39,24.04,7.29,49.06,9.67,73.54,1.18,12.12,2.27,24.24,3.51,36.35.84,8.16,1.46,16.48,3.18,24.51.06.3.48.16.44-.12-6.38-44.59-6.26-90.35-16.66-134.33-.02-.09-.17-.05-.14.04h0Z"/>
                <path class="cls-2" d="M203.78,322.35c8.37,25.15,9.45,52.41,18.94,77.18.16.42.83.26.7-.19-7.58-25.39-10.35-52.12-19.25-77.09-.08-.24-.46-.14-.38.1h0Z"/>
                <path class="cls-2" d="M228.94,419.21c8.95-1.32,17.91-2.18,26.92-2.84.55-.04.57-.9,0-.87-9.1.38-18.12,1.53-27.07,3.19-.35.06-.19.57.14.52h0Z"/>
              </g>
            </g>
            <g>
              <path class="cls-3" d="M230.01,423.82l2.81,10.84-2.81,23.79-8.85.17s2.38,6.03,8.64,7.76c6.26,1.73,26.53-.84,28.27-8.66,1.74-7.83-4.33-36.13-4.33-36.13l-23.72,2.24Z"/>
              <path class="cls-2" d="M221.99,459.28c4.03.35,8.73.26,12.48-1.44.26-.12.06-.47-.18-.43-4.17.64-8.03,1.55-12.3,1.4-.31-.01-.3.44,0,.47h0Z"/>
              <path class="cls-2" d="M233.1,431.89c-.05,3.83-.56,7.85,0,11.65.03.18.27.11.29-.04.5-3.79-.06-7.8-.16-11.61,0-.08-.13-.08-.13,0h0Z"/>
            </g>
          </g>
        </g>
        <g>
          <path class="cls-6" d="M328.32,13.95s24.08,1.49,30.79,8.01c6.71,6.52,1.3,9.88,5.59,12.67,4.29,2.8,7.83,2.61,6.9,7.64-.93,5.03-1.68,5.18,2.24,8.83,3.91,3.65-3.35,6.82-2.24,9.99,1.12,3.17.75,9.88-5.03,9.51s-38.25-56.66-38.25-56.66Z"/>
          <g>
            <path class="cls-3" d="M335.96,125.35s-22.69,9.95-34.64,21.5c-11.94,11.55-15.13,22.69-15.13,22.69,0,0-29.86-36.63-17.12-60.91,12.74-24.29,31.86-24.37,31.86-24.37l35.02,41.09Z"/>
            <path class="cls-3" d="M359.41,33.21s9.92,14.68,10.71,26.18c.79,11.51-3.97,19.04-3.17,24.99.79,5.95,11.44,8.13,11.44,8.13,0,0-7.07,8.53-13.82,8.13v6.35s-17.46,2.38-24.99-5.95c0,0,8.73,15.08,20.04,17.85,0,0-2.58,19.84-20.04,15.87-17.46-3.97-33.72-21.03-34.12-39.28-.4-18.25,53.96-62.29,53.96-62.29Z"/>
          </g>
          <g>
            <path class="cls-2" d="M348.48,72.13c2.72-.32,5.38-.98,8.13-.83,3.36.19,6.13,1.35,9.09,2.84.73.37,1.29-.62.63-1.08-5.26-3.71-12.2-3.83-17.98-1.39-.22.09-.11.49.13.46h0Z"/>
            <path class="cls-2" d="M361.48,80.56c-3.63-2.51-9.14-2-13.03-.4-.2.08-.13.41.09.33,4.44-1.44,8.46-1.28,12.77.46.24.1.35-.26.17-.39h0Z"/>
            <path class="cls-2" d="M357.23,126.71c-4.67,7.46-14.04,9.32-22.05,6.44-5.88-2.12-11.22-7.02-15.67-11.27-4.86-4.64-9.05-9.68-11.13-16.17s-1.91-12.71-1.32-19.11c.03-.35-.49-.33-.53,0-.98,7.47-.56,15.31,2.49,22.29,3.1,7.1,9.07,12.95,15.01,17.74,5.1,4.12,10.27,7.81,17,8.23s13.32-1.79,16.58-7.95c.13-.25-.22-.45-.37-.22h0Z"/>
            <path class="cls-4" d="M341.29,86.4c0,5.9-4.79,10.69-10.69,10.69s-10.69-4.79-10.69-10.69,4.79-10.69,10.69-10.69,10.69,4.79,10.69,10.69Z"/>
            <path class="cls-2" d="M363.64,100.46c5.04.25,10.75-2.11,13.35-6.64.14-.25-.21-.55-.41-.32-3.52,3.98-7.46,6.5-12.94,6.58-.24,0-.24.36,0,.38h0Z"/>
            <path class="cls-2" d="M361.72,37.76c5.93,8.3,8.19,17.95,7.5,28.08-.38,5.5-2.13,10.51-2.93,15.89-.3,2-.33,3.38,1.08,4.88.16.17.46-.05.33-.26-2.52-4.01,1.18-12.37,1.74-16.71s.73-8.58.28-12.85c-.73-7.04-3.15-13.79-7.68-19.26-.14-.17-.45.06-.32.24h0Z"/>
            <path class="cls-2" d="M338.7,100.77c5.57,7.43,17.37,8.14,25.7,6.46.22-.04.17-.41-.05-.4-8.96.48-18.67.91-25.37-6.28-.13-.14-.39.05-.27.21h0Z"/>
            <path class="cls-2" d="M340.79,102.88c1.05,4,4.39,7.1,7.24,9.93s6.27,5.57,10.36,6.39c.31.06.44-.38.13-.48-3.96-1.32-7.09-3.43-10.05-6.36-2.79-2.75-6.02-5.82-7.34-9.58-.08-.21-.4-.13-.34.09h0Z"/>
            <path class="cls-2" d="M336.77,101.2c.39-1.81,1.88-2.75,3.58-3.1.1-.02.1-.18,0-.2-1.93-.31-3.64,1.4-3.96,3.19-.04.25.33.36.38.1h0Z"/>
          </g>
          <path class="cls-6" d="M363.21,41.74c-.2-2.85-.53-5.72-1.81-8.05.03-.49.06-.99.11-1.48.07-.63-.89-.7-1.07-.14-.02.06-.03.12-.05.18-.42-.5-.92-.95-1.48-1.36-.62-1.5-1.4-2.86-2.43-3.75-1.56-1.35-3.26-2.52-5.01-3.63-3.65-2.32-7.51-4.26-11.5-5.88.46-.28.53-1.05-.14-1.22-3.5-.91-7.29-1.71-11.26-2.36-7.34-1.68-14.94-2.3-22.49-1.75-.38.03-.75.09-1.13.13-1.26.04-2.53.11-3.79.19.07-1.54-.26-3.06-.56-4.6-.47-2.44-1.03-4.86-1.61-7.28-.12-.51-.99-.41-.93.13.42,3.87.68,8.04,1.53,11.87-.1,0-.19.02-.29.03-.44-4.41-4.89-10.3-6.64-12.52-.51-.64-1.57.19-1.13.87,1.45,2.25,2.78,4.6,3.89,7.04.49,1.07.8,2.01,1.04,2.95-1.28-1.32-2.68-2.48-4.73-3.29-3.69-1.45-8.13-1.85-12.02-1.08-.75.15-.76,1.38,0,1.53,3.41.64,6.9.27,10.25,1.32,2.38.75,3.96,2.1,5.47,3.61-16.24,2.15-31.17,8.78-38.92,23.07-3.95,7.29-4.3,16.32-8.47,23.37-5.01,8.47-14.53,7.8-21.45,13.11-5.51,4.23-6.35,10.33-8.4,16.56-2.39,7.28-6.45,12.65-11.4,17.39-1.32.06-2.63.21-3.89.6-2.25.68-4.37,2.18-5.21,4.38-.41,1.07-.53,2.26-.87,3.34-1.01.77-2.03,1.54-3.07,2.32-.22.16-.32.38-.35.6-2.53.43-5.7-.3-7.66,1.42-1.45,1.28-1.66,3.47-2.75,5.06-2.7,3.91-9.41,2.8-12.34,6.54-1.74,2.23-1.48,5.35-1.69,8.25-2.62,1.78-5.55,2.69-8.57,4.44-.87.5-1.82.98-2.5,1.73-2.96,3.26-1.64,7.16-1.99,11.14-1.19,13.51-18.87,11.59-19.32,26.09-.02.74,1.09.72,1.14,0,.95-14.18,16.92-10.69,19.4-22.57.54-2.59-.81-5.84-.01-8.27,1.82-5.57,6.86-6.86,11.06-9.28.08-.04.13-.1.21-.15-.24.67-.54,1.31-1.01,1.88-2.09,2.52-6.1,2.71-8.22,5.21-3.9,4.6,1.49,12.78-2.46,17.34-2.17,2.51-6.06,2.47-8.97,4.07-2.4,1.33-4.08,3.88-4.35,6.61-.19,1.93.25,4.04-.74,5.71-1.51,2.54-5.12,2.41-7.94,3.28-4.3,1.33-6.85,5.92-6.39,10.39.91-2.12,3.01-3.56,5.24-4.14,2.23-.58,4.59-.4,6.86,0,3.01.53,6.53,1.3,8.77-.78,1.5-1.39,1.84-3.59,2.77-5.4,1.58-3.08,5.14-5.02,8.58-4.7,2.21.21,4.5,1.23,6.54.37,2.33-.98,3.05-3.84,4.07-6.15,2.87-6.53,11.07-10.69,18.07-9.34-3.07.29-5.82,2.17-7.74,4.59-1.91,2.41-3.09,5.33-4.04,8.26-1.39,4.26-.58,8.83-2.59,12.84-1.37,2.73-3.61,4.52-6.65,4.85,5.2,2.52,12.2.23,14.9-4.88.68-1.28,1.13-2.73,2.14-3.76,1.93-1.96,5.07-1.76,7.82-1.62,2.75.14,6.04-.24,7.31-2.68,1.06-2.03.17-4.61.99-6.75,1.75-4.59,9.14-3.63,12.2-7.47,2.39-3,1.23-7.85,3.78-10.72,3.04-3.42,9.54-2.02,12.11-5.81.5-.74.77-1.57.92-2.45,1.05-.23,2.14-.44,3.3-.63,3.27-.54,6.04-1.14,8.69-3.29,2.12-1.71,4.38-4.64,5.55-7.1,1.36-2.87,1.01-6.74,1.22-10.32.23-.57.51-1.12.91-1.6,2.13-2.6,6.24-2.57,8.76-4.81,1.87-1.66,2.53-4.28,3.86-6.4,1.33-2.12,4.09-2.97,6.59-2.73,1.87.18,3.78.35,5.61-.09s3.58-1.64,4.18-3.42c.36-1.07.29-2.27.84-3.25.91-1.65,3.12-2.02,5-1.92,1.88.1,3.89.46,5.57-.39,2.38-1.21,3.1-4.32,5.16-6.01,2.29-1.87,5.57-1.58,8.52-1.54.59,0,1.2-.02,1.82-.09-1.54,2.13-4.11,3.9-6.21,5.21-3.37,2.1-7.39,1.56-9.76,5.04-.11.16-.15.32-.17.48-.91,2.42-1.09,5.2-2.48,7.41-1.76,2.79-5,4.53-8.28,4.55-4.05.03-7.39-1.64-11.31.09-1.87,1.05-3.34,2.57-4.37,4.45-.97,1.76-1.99,4.08-1.6,6.1.14.72,1.1.71,1.45.19.96-1.44,1.09-3.34,1.89-4.89.86-1.69,2.08-3.02,3.73-3.96,3.57-1.58,7.16.33,10.82.15,2.03-.1,3.98-.73,5.7-1.81,4.55-2.84,4.72-7.13,6.47-11.69,1.57-2.51,5.35-2.58,7.78-3.9,2.01-1.1,4.02-2.66,5.71-4.22,1.17-1.08,2.05-2.29,2.71-3.58,1.64-.47,3.07-1.34,3.74-2.88.96-2.22-.08-4.96,1.05-7.1,1.83-3.48,7.6-2.58,10-5.7,1.91-2.48.82-6.45,2.9-8.8,2.49-2.82,7.68-1.29,10.32-3.97,1.54-1.57,1.75-4.12,2.52-6.16-.51,4.37,1.24,10.52-5.1,11.63-4.13.73-6.71-.81-8.32,4-.35,1.05,1.42,1.53,1.64.45.88-4.31,6.79-2.01,9.49-3.37,1.18-.59,2.06-1.53,2.7-2.68.88-1.58,1.08-3.43,1.15-5.2.11-2.72.1-5.11.71-7.55,1.62-.73,3.64-.31,5.31-1.01,4.2-1.75,3.07-8.53,6.44-11.58,1.48-1.34,3.6-1.72,5.26-2.83.49-.32.91-.73,1.29-1.17-1.07,3.9-3.28,6.92-5.79,10.07-.43.54.15,1.56.82,1.06,2.94-2.2,4.96-5.46,6.17-8.91.78-2.24.95-4.4.98-6.58,1,5.8-.66,12.78-2.52,17.32-.28.7.82,1.34,1.29.75,3.32-4.26,3.48-9.94,3.11-15.13ZM242.49,144.24c-3.34,3.35-7.58,3.84-11.86,4.46.09-1.84.14-3.7,1.1-5.21,2.87-4.53,10.85-2.13,14.52-5.85-.54,2.23-1.56,4.41-3.75,6.6ZM273.28,27.58c-2.78,3.16-5.04,6.73-7.11,10.38-3.24,5.72-6.04,11.69-8.37,17.83-1.44,3.81-3.25,8.22-7.19,9.27-1.13.3-2.36.28-3.41.79-3.75,1.82-2.14,7.98-4.95,11.06-2.37,2.59-7.03,2.05-9.19,4.83-2.26,2.92-.65,8.22-3.86,10.04-1.88,1.06-4.27.13-6.37.61-2.25.52-3.81,2.59-4.77,4.69s-1.52,4.41-2.8,6.33c-1.24,1.86-2.9,3.15-5.1,3.21,3.69-3.79,6.81-8.08,8.82-13.11,1.8-4.52,2.05-10.21,4.63-14.39,4.07-6.6,9.78-7.38,15.88-10.36,3.78-1.84,6.81-3.53,9.22-7.05,3.41-4.99,4.18-11.56,6.19-17.12,4.25-11.78,11.22-19.45,22.61-24.43,3.74-1.64,7.6-2.86,11.54-3.76-6,2.57-11.46,6.27-15.77,11.17Z"/>
        </g>
      </g>
    </g>
  </g>
</svg>