<?xml version="1.0" encoding="UTF-8"?>
<svg xmlns="http://www.w3.org/2000/svg" version="1.1" viewBox="0 0 364.9 312.9">
  <!-- Generator: Adobe Illustrator 28.7.1, SVG Export Plug-In . SVG Version: 1.2.0 Build 142)  -->
  <g isolation="isolate">
    <g id="Layer_1">
      <g>
        <g>
          <g>
            <path d="M333.6,156.9c-5.2,2.2-9.2-3-13.1-5.6-2.6-1.7-5.8-2.6-8.9-2.6-1.6,0-3.2.2-4.7.7-.4.1-.8.3-1.2.4,2-1.9,3.5-4.2,3.6-7,0-.7-.8-.9-1.3-.6-3,1.3-5.6,3.9-9.1,3.6-3.2-.3-5.5-2-7-4.9-1.5-3-2.6-6-5.5-7.9-.3-.2-.6-.4-.9-.5,2.6-2.1,4.6-4.8,6.1-8.1,1.5-3.4,2.3-7.1,2.7-10.8.5-4.1.5-8.4,2.7-12.1,3-4.9,9-6,14.1-7.5.8-.3,2.2-1.5,1.1-2.3-3.4-2.6-8.7-2.2-12.8-2.1-2.6,0-5,.6-7.3,1.7-1.6.8-3.1,1.7-4.6,2.6.7-2,1.4-4,1.2-6.3-.2-2-.7-5.1-2.7-6.1-.9-.4-2,.1-2.3,1-1.4,3.9-2.2,7.7-6,10-3.6,2.3-7.8,1.9-11.7.6-4.1-1.3-8.3-2.5-12.7-1.5-3.4.8-5.9,2.8-8.4,5,.2-.8.7-1.6,1-2.1.7-1.2,1.4-2.2,2.4-3.1,2.6-2.3,6-3.2,9-4.7,3-1.4,5.8-3.5,7.6-6.4,2.2-3.6,1.6-7.4,1.6-11.4,0-1.2-1.5-.9-2-.3-1.9,1.9-4.3,3.9-7,4.7.8-2.2,2.6-4,3.1-6.3.7-3.2-.3-6.3-1.6-9.1-1.1-2.5-3.4-5.7-2.6-8.6.4-1.4,1.6-2.1,2.7-2.9,1-.7,1.9-1.5,2.5-2.6.2-.4.3-1.2-.4-1.3-6.4-1.4-13.4-1.3-19.6.8-3.2,1.1-5.8,2.9-8.1,5.3-1.7,1.7-3.4,4.2-5.6,5.6.8-1.2,1.6-2.4,2-3.8.7-2.1.8-4.4.8-6.6,0-1.6-2-.6-2.4.2-2.9,6.5-10.2,6.6-16.2,8.1-1.2.3-2.4.7-3.5,1.2.6-4.3-.4-8.8-2.2-12.7-1.9-4.1-4.8-7.7-8.3-10.6-3.6-3-7.9-5-11.5-8-2.1-1.7-4.1-3.9-4.9-6.5-.9-2.8-.5-5.9,1.1-8.5.7-1.2-.7-1.6-1.6-1.1-5.5,3.4-10.6,7.8-14.2,13.3-1.7,2.6-3,5.6-3.5,8.7-.5,3.6.7,6.9,1.5,10.4.5,2.3.3,4.6-.9,6.7-.7,1.1-1.6,2.1-2.5,3,.6-4.7-1.6-9.8-5.6-12.4-.6-.4-2.1.4-1.7,1.2,1.4,3.5,0,6.8-1.5,10-1,2.3-2,4.7-2.4,7.2-2-2.6-4.5-4.8-7.1-6.6-3.9-2.7-8.2-4.6-12.7-5.9-4.3-1.2-8.9-2.3-12.4-5.2-4.6-3.8-4.4-9.8-2.2-14.9.5-1.2-1.1-1.3-1.8-.9-3,2-5.4,5-7.3,8-2.1,3.3-3.9,6.8-4.7,10.7-.8,4-.4,8.1,1.4,11.7,1.6,3.3,4.5,6,5.4,9.6.4,1.6.2,3.3-.3,4.9-.3.9-.7,2-1.3,2.8-.2-1.4-.2-2.8-.5-4.1-.3-1.6-1-3.1-1.9-4.5-1.4-2.2-3.5-4.9-6.4-4.7-.8,0-2.1,1-1.5,1.9.9,1.5,2,3,2.7,4.6.7,1.7.8,3.5.6,5.4-.5,3.9-2.1,7.6-1.4,11.5.4,2.3,1.5,4.6,2.9,6.6-.2-.2-.4-.3-.5-.5-2.2-1.8-4.4-3.5-6.8-5-9.5-5.9-21.3-7.5-32.1-4.6-6.1,1.6-11.6,4.7-16.1,9.1-.6.6-.3,1.8.7,1.5,1.4-.4,2.6-1,4-1.4,1.6-.4,3.2-.2,4.7.4,2.5,1,4.7,2.9,6.2,5.1,2.8,4.1,3.8,9.4,3.7,14.3,0,2.5-.5,4.9-.6,7.4,0,2.4,0,4.8.6,7.2,1,4.8,3.6,8.9,7.5,11.8.8.6,1.6,1.1,2.5,1.6-.3,0-.5,0-.8.1-5,.9-9.3,3.7-13.2,6.9-3.9,3.3-7.5,7.7-12.4,9.7-3,1.3-6.4,1.8-9.6,1.1-1.5-.3-3-.9-4.2-1.8-1.3-.9-2-2.3-3.2-3.4-.5-.5-1.5.2-1.8.6-1.1,1.5-.6,3.8-.1,5.4.5,2,1.2,3.9,1.9,5.8,1.9,5.5,4.8,11,8.9,15.2,8,8.1,19.3,11.5,30.4,9.7-1.5,1.9-2.6,4.1-3.4,6.4-1,2.9-1.2,5.7-1.3,8.8,0,3,0,6.3-1.1,9.1-1.3,3.5-4.5,4.1-7.7,5.2-3.2,1.2-6,3.3-7.7,6.2-1.8,2.9-2.3,6.3-2.3,9.6,0,3.2.4,6.8,2.3,9.5.7,1,2.4-.1,2.5-1.1.3-3.7,2.1-6.7,5.8-7.7,3.6-1,7.5-.6,11,.1,5.6,1.1,11,3,16.7,3.6,5.6.6,11.3-.2,16.5-2.3-.6,2.8-.6,5.7,0,8.7,1.2,5.7,4.5,11.1,3.4,17.1-.5,3-2.3,5.4-3.7,8-1.4,2.4-2.4,5-2.9,7.8-1.1,7,2.6,13.9,6.1,19.6.6,1,2.6-.1,2.5-1.1-.2-3.1.5-6,2.9-8.1,2.1-1.9,4.8-2.9,7.4-3.9,3.3-1.2,6.7-2.2,9.6-4.4,1.3-1,2.5-2.2,3.3-3.6.3,1.8.9,3.5,2.1,5.1,1.6,2.2,4.5,5.1,7.3,3.2.4-.3.7-.7.6-1.2-.6-3.1-3.1-5.5-1.6-8.7,1.3-2.8,4.3-4.2,6.8-5.5,2.8-1.4,5.6-2.9,7.6-5.3.6-.7,1-1.4,1.4-2.1,0,0,0,0,0,0,3.2,3.7,7.8,7,7.1,12.5-.3,2.3-1.3,4.5-2.3,6.6-1.2,2.5-2.4,5-2.9,7.8-1,5.4,1.7,10.2,5.4,13.9,4.4,4.4,9.8,7.9,15,11.4,1,.7,2.8-.7,2.2-1.9-2.8-4.7-1.3-10.9,2-14.9,3.4-4.3,8.2-7.1,12.7-10,4.5-2.9,9.1-5.9,12.2-10.4,2.2-3.3,3.5-7.2,3.3-11.2.5.1,1,.3,1.5.4,4.8,1,10,.8,14.5,3.3,4,2.3,7.4,5.7,8.9,10.2.9,2.6,1.3,5.5.4,8.2-.8,2.6-2.6,4.7-4.5,6.6-.5.5-.5,1.5.4,1.5,6.1,0,12.1-3,15.9-7.8,4.1-5.2,4.7-11.9,4.1-18.2,1.1.5,2.3.8,3.4,1,2.5.4,5,0,7-1.7.4-.4.5-1.1,0-1.5-1.2-1.1-3-1-4.3-2-1.3-1.1-2.3-2.7-2.9-4.3-1.6-4.1-1.3-8.3-.3-12.5.7-3.3,1.7-6.6,1.9-9.9,1.8,2.5,4,4.6,6.4,6.1,10.1,6.3,23.4,5.5,34.7,3.6,3.2-.5,6.3-1.3,9.4-2.4,2.5-.9,5.2-2,7-4,.4-.5.7-1.6-.2-1.8-1.3-.3-2.6-.4-3.8-1-1.3-.7-2.2-1.9-2.8-3.1-1.5-2.7-2-5.8-2.8-8.7-.7-2.8-1.7-5.6-3.7-7.7-1-1.1-2.1-1.9-3.4-2.5-.3-.1-.7-.3-1-.4,2.2-.9,4.2-2.7,5-4.9.2-.5-.2-1.2-.8-1.1-2,.2-4.1.7-6.1.3-2.1-.4-3.9-1.8-5.1-3.5-2.2-3-2.3-6.8-3.9-10-.3-.6-.7-1.2-1.1-1.7,2.2,0,4.4-.4,6.5-1.2,10.7-4,14.4-16.7,24.3-21.8,3-1.5,6-2,9.3-2.6,1.8-.3,3.6-.7,5.2-1.4.8-.3,1.5-.7,2.1-1.2.7-.5,1.3-1.1,2.1-1.4,1.5-.6,1.3-2.7-.5-2.1Z" fill="#faa21f"/>
            <path d="M178.8,308c-.4,0-.9-.1-1.2-.4l-2.2-1.5c-4.5-3-9.1-6.2-13-10-4.6-4.7-6.6-9.8-5.6-14.8.5-2.9,1.8-5.5,2.9-8v-.3c1-1.9,2-3.9,2.2-6,.5-3.9-2.1-6.7-4.9-9.5-.4-.4-.7-.7-1.1-1.1-.2.4-.5.7-.8,1-2.1,2.5-5,4.1-7.9,5.5h-.3c-2.5,1.4-5,2.6-6.1,5-.8,1.8-.2,3.2.6,5,.4,1,.9,2,1.1,3.1.2.8-.2,1.7-1,2.3-1.5,1.1-4.7,2.1-8.8-3.4-.7-1-1.3-2.1-1.7-3.3-.6.7-1.4,1.4-2.2,2.1-2.5,2-5.4,3-8.3,4l-1.6.6c-2.7,1-5.2,2-7.1,3.7-1.9,1.7-2.8,4.1-2.6,7.2,0,1.2-1,2.2-2,2.5-1,.3-1.9,0-2.4-.8-3.9-6.4-7.3-13.3-6.2-20.3.4-2.6,1.4-5.3,3-8.2.3-.5.6-1,.9-1.6,1.2-2,2.3-3.9,2.7-6.1.7-3.8-.5-7.3-1.8-11.1-.6-1.8-1.2-3.7-1.6-5.7-.5-2.5-.6-4.9-.3-7.3-4.9,1.6-10.1,2.2-15.3,1.7-3.7-.4-7.3-1.3-10.7-2.2-2-.5-4-1-6.1-1.5-4.3-.9-7.7-.9-10.5-.1-3.8,1.1-4.9,4.3-5,6.8,0,1.1-1.1,2.1-2.1,2.4-.9.3-1.7,0-2.2-.7-1.7-2.4-2.5-5.6-2.5-10.1,0-4.1.8-7.5,2.5-10.1,1.8-3,4.8-5.4,8.3-6.6.5-.2.9-.3,1.4-.5,2.5-.9,4.7-1.6,5.7-4.1.9-2.4,1-5.2,1-7.8v-1c.1-2.9.3-6,1.4-9.1.6-1.7,1.3-3.3,2.2-4.8-10.9,1-21.5-2.7-29-10.3-3.8-3.9-6.9-9.1-9.1-15.6l-.2-.6c-.6-1.7-1.2-3.5-1.7-5.3-.4-1.6-1.1-4.3.3-6.3.4-.5,1.1-1.1,1.9-1.2.5,0,1,0,1.4.4.6.5,1,1.1,1.5,1.7.5.6,1,1.2,1.6,1.7,1.1.8,2.4,1.3,3.9,1.6,2.8.6,6,.3,9-1,3.3-1.4,6.1-4.1,8.8-6.6,1.1-1,2.2-2,3.3-3,4-3.4,7.9-5.7,11.9-6.7-.1,0-.2-.2-.3-.2-4.1-3-6.9-7.3-7.9-12.4-.5-2.2-.7-4.7-.6-7.4,0-1.3.2-2.5.3-3.8.1-1.2.2-2.4.3-3.6.2-5.3-1.1-10.2-3.5-13.7-1.5-2.2-3.5-3.9-5.7-4.7-1.5-.6-2.9-.7-4.1-.4-.6.2-1.2.4-1.8.7-.7.3-1.4.6-2.1.8-.9.2-1.7,0-2.1-.8-.4-.8-.3-1.8.4-2.5,4.6-4.5,10.2-7.7,16.6-9.4,11.3-3,23.3-1.3,33,4.7,1.2.7,2.4,1.6,3.6,2.5-.3-.9-.6-1.7-.7-2.6-.5-2.9,0-5.6.7-8.2.3-1.2.5-2.4.7-3.6.2-1.9,0-3.4-.5-4.8-.5-1.2-1.2-2.2-1.9-3.4-.2-.4-.5-.7-.7-1.1-.4-.6-.4-1.3,0-2,.5-.9,1.6-1.5,2.4-1.5,2.7-.2,5.1,1.5,7.4,5.2,1,1.7,1.7,3.2,2,4.8,0,0,0,.1,0,.2.2-1.2.2-2.3,0-3.3-.5-2-1.7-3.7-3-5.6-.8-1.2-1.7-2.5-2.4-3.8-1.9-3.8-2.4-8-1.5-12.4.9-4.4,3.2-8.4,4.9-11,2.4-3.9,4.9-6.5,7.6-8.4.8-.5,2.1-.6,2.9,0,.6.5.7,1.3.4,2.1-1.2,2.7-3.3,9.4,1.9,13.7,2.9,2.4,6.7,3.5,10.4,4.5l1.5.4c5,1.5,9.3,3.4,13,6.1,2.4,1.7,4.3,3.4,5.9,5.2.5-1.7,1.2-3.4,2-5.3,1.5-3.4,2.6-6.3,1.4-9.2-.3-.8,0-1.6.7-2.2.7-.5,1.8-.9,2.6-.3,3.5,2.3,5.8,6.3,6.2,10.5.2-.3.4-.5.5-.8,1-1.7,1.3-3.6.8-5.9-.2-.8-.4-1.6-.6-2.4-.7-2.6-1.3-5.3-.9-8.3.4-3,1.6-6.1,3.6-9.1,3.3-5.1,8.2-9.6,14.5-13.6.9-.6,2.2-.5,2.9.2.5.5.8,1.3.1,2.3-1.4,2.3-1.8,5.1-1,7.6.8,2.6,2.9,4.7,4.5,6,1.7,1.4,3.6,2.6,5.4,3.7,2.1,1.3,4.2,2.7,6.2,4.3,3.8,3.2,6.7,6.9,8.5,10.9,1.8,3.8,2.6,7.8,2.4,11.5.7-.2,1.4-.5,2.1-.6,1.2-.3,2.4-.5,3.6-.8,5-1,9.8-1.9,11.9-6.7.4-1,1.9-1.9,3.1-1.7.7.1,1.3.7,1.3,1.9,0,1.7-.1,3.7-.6,5.7.5-.6,1-1.2,1.5-1.7,2.5-2.6,5.4-4.5,8.6-5.5,6.1-2.1,13.2-2.4,20.1-.9.5.1,1,.5,1.2,1,.3.7.1,1.4-.1,1.9-.7,1.3-1.8,2.2-2.8,2.9l-.4.3c-.9.6-1.6,1.2-1.9,2-.6,1.9.6,4.2,1.7,6.2.3.6.6,1.2.8,1.7,1.2,2.7,2.5,6.2,1.7,9.8-.3,1.4-1,2.6-1.7,3.7,1.3-.8,2.6-1.9,3.9-3.2.6-.6,1.8-1.1,2.8-.7.7.3,1.1.9,1.1,1.7,0,.7,0,1.4,0,2,0,3.3.2,6.7-1.8,9.9-1.7,2.8-4.4,5.1-8,6.8-.9.4-1.8.8-2.7,1.2-2.2.9-4.4,1.8-6.1,3.4,0,0-.2.2-.3.3,1.3-.8,2.7-1.4,4.3-1.8,4.6-1.1,8.9,0,13.2,1.5,4.4,1.4,8,1.3,10.8-.5,2.9-1.8,3.9-4.6,5-7.9.2-.5.4-1.1.5-1.6.3-.8.9-1.4,1.6-1.7.7-.3,1.5-.3,2.1,0,2.5,1.2,3,4.5,3.3,6.9.1,1.5,0,2.9-.4,4.1.8-.4,1.5-.9,2.4-1.2,2.3-1.1,4.8-1.7,7.7-1.8h.6c4.1-.2,9.3-.4,12.8,2.3.6.5.9,1.2.8,1.9-.2,1.2-1.4,2-2.2,2.3-.7.2-1.4.4-2.1.6-4.5,1.2-9.1,2.5-11.4,6.4-1.7,2.8-2,6.1-2.3,9.5,0,.7-.1,1.4-.2,2.1-.5,4.4-1.4,8-2.8,11.1-1.3,2.9-3,5.4-5.3,7.5,2.5,1.8,3.7,4.3,4.9,6.7.2.5.5.9.7,1.4,1.3,2.6,3.3,4,6.1,4.3,2.1.2,3.9-.9,5.8-2,.9-.5,1.8-1.1,2.8-1.5.7-.3,1.5-.3,2,.1.5.3.8.9.7,1.5,0,1.7-.6,3.4-1.6,5,.9-.2,1.8-.2,2.8-.2,3.4,0,6.7,1,9.5,2.8,1,.6,1.9,1.4,2.9,2.2,3,2.4,5.8,4.7,9.2,3.3h0c1.5-.5,2.5.1,2.8,1,.4,1,0,2.4-1.5,3-.5.2-.9.5-1.4.9-.2.1-.4.3-.5.4-.7.5-1.5.9-2.4,1.3-1.9.8-3.9,1.2-5.5,1.4-3,.5-6.1,1-9,2.5-4.5,2.3-7.6,6.1-10.9,10.2-3.7,4.6-7.6,9.4-13.6,11.6-1.6.6-3.2,1-5,1.2,0,.1.1.2.2.3.7,1.4,1.1,2.9,1.5,4.4.6,2,1.1,3.9,2.3,5.5,1.2,1.6,2.8,2.8,4.4,3.1,1.3.2,2.7,0,4.1-.1.6,0,1.1-.2,1.7-.2.6,0,1.2.2,1.6.7.4.5.5,1.2.3,1.8-.7,1.7-2,3.3-3.6,4.4,1,.6,2,1.4,2.8,2.3,1.8,2,3,4.6,3.9,8.2.1.5.3,1.1.4,1.7.5,2.3,1.1,4.7,2.3,6.8.5,1,1.3,2.1,2.4,2.7.8.4,1.8.6,2.8.8l.8.2c.7.1,1.1.6,1.3,1.1.3.8-.1,1.8-.6,2.3-2,2.2-4.7,3.4-7.4,4.3-3.2,1.1-6.4,1.9-9.6,2.4-10,1.6-24.5,3-35.5-3.8-1.8-1.1-3.6-2.6-5.1-4.4-.3,1.9-.7,3.7-1.2,5.5-.2.7-.3,1.4-.5,2-.8,3.3-1.4,7.7.3,11.9.7,1.6,1.6,3,2.6,3.8.5.4,1.1.6,1.8.8.8.3,1.7.6,2.5,1.2.4.4.7.9.7,1.5,0,.6-.3,1.2-.7,1.6-2,1.8-4.7,2.5-7.8,2-.6,0-1.3-.2-2.1-.5.4,7.3-1.1,13-4.5,17.3-4.1,5.2-10.3,8.2-16.7,8.2-.8,0-1.4-.4-1.6-1.1-.3-.7,0-1.6.5-2.2,1.6-1.6,3.5-3.7,4.3-6.2.8-2.7.2-5.6-.4-7.5-1.3-3.9-4.3-7.3-8.4-9.6-2.9-1.6-6.1-2-9.5-2.4-1.5-.2-3.1-.4-4.7-.7,0,0-.1,0-.2,0,0,3.6-1.3,7.2-3.5,10.4-3.3,4.8-8.4,8.1-12.5,10.7l-1,.6c-4.1,2.6-8.4,5.3-11.5,9.2-2.8,3.5-4.6,9.3-1.9,13.7.5.9.3,2-.5,2.8-.6.5-1.3.8-1.9.8ZM155.6,252.8l1,1.1c.6.7,1.3,1.4,2,2.1,2.8,3,6,6.3,5.5,11.2-.3,2.4-1.3,4.5-2.3,6.6v.3c-1.3,2.5-2.4,4.9-2.9,7.5-1,5.5,2.2,10.1,5.1,13,3.7,3.7,8.3,6.8,12.7,9.8l2.2,1.5s.2,0,.4-.1c.2-.1.3-.3.3-.3-3.2-5.3-1.2-12.1,2-16.1,3.3-4.1,7.7-6.9,12-9.6l1-.6c5-3.2,9.1-6,11.9-10.1,2.2-3.2,3.3-6.9,3.1-10.5v-1.5c0,0,1.3.4,1.3.4.5.1.9.3,1.4.4,1.5.3,3,.5,4.5.7,3.4.4,7,.9,10.2,2.7,4.6,2.6,7.9,6.4,9.4,10.7.8,2.2,1.5,5.6.4,8.8-.9,2.8-2.8,5-4.5,6.7,5.5-.2,11-3,14.4-7.4,3.3-4.2,4.6-10,3.9-17.5l-.2-1.8,1.7.8c1.1.5,2.3.8,3.1.9,2.5.4,4.6-.1,6.1-1.5-.4-.3-1-.5-1.7-.7-.8-.3-1.7-.5-2.5-1.2-1.7-1.4-2.7-3.3-3.3-4.7-1.9-4.7-1.2-9.5-.4-13.1.2-.7.3-1.4.5-2.1.6-2.5,1.2-5.1,1.4-7.7l.2-2.9,1.7,2.4c1.7,2.4,3.8,4.5,6.1,5.9,10.3,6.4,24.4,5.1,34,3.5,3-.5,6.1-1.3,9.2-2.4,2.4-.8,4.9-1.9,6.6-3.7,0,0,0,0,0-.1h-.4c-1.1-.3-2.3-.5-3.3-1.1-1.6-.8-2.6-2.3-3.3-3.5-1.3-2.3-1.9-4.9-2.5-7.3-.1-.5-.3-1.1-.4-1.6-.8-3.3-1.9-5.6-3.4-7.3-.9-1-1.9-1.7-3-2.3-.3-.1-.6-.3-.9-.4l-2.4-1,2.4-1c1.9-.8,3.5-2.2,4.3-3.9-.4,0-.8.1-1.2.2-1.6.2-3.2.4-4.8.1-2.2-.4-4.2-1.8-5.7-3.9-1.4-1.9-2-4.1-2.6-6.1-.4-1.4-.8-2.8-1.4-4-.3-.5-.6-1-1-1.6l-1.1-1.6h2c2.2,0,4.2-.5,6.1-1.2,5.4-2,9-6.4,12.7-11,3.3-4.1,6.7-8.3,11.6-10.8,3.2-1.6,6.6-2.2,9.6-2.7,1.4-.2,3.3-.6,5-1.3.7-.3,1.4-.7,1.9-1.1.2-.1.3-.3.5-.4.5-.4,1.1-.9,2-1.2.1,0,.2-.1.2-.2,0,0,0,0,0,0-4.5,1.9-8.1-1-11.3-3.6-.9-.8-1.8-1.5-2.7-2-2.4-1.6-5.4-2.4-8.4-2.4-1.6,0-3,.2-4.4.7-.4.1-.8.3-1.2.4l-5.1,2,4-3.7c1.9-1.8,3-3.7,3.3-5.8-.8.4-1.6.8-2.3,1.3-2.1,1.3-4.3,2.6-7.1,2.3-3.5-.3-6.1-2.2-7.8-5.4-.2-.5-.5-1-.7-1.4-1.2-2.4-2.2-4.6-4.4-6.1-.3-.2-.5-.3-.8-.4l-1.4-.7,1.2-1c2.5-2.1,4.5-4.7,5.8-7.7,1.3-2.9,2.1-6.3,2.6-10.5,0-.7.1-1.4.2-2.1.3-3.5.7-7.2,2.6-10.4,2.8-4.6,8.1-6.1,12.7-7.4.7-.2,1.4-.4,2.1-.6.3,0,.7-.5.8-.6-2.9-2.1-7.6-1.9-11.4-1.7h-.6c-2.6.1-4.9.6-6.9,1.6-1.2.6-2.4,1.2-3.5,1.9l-3.5,2,1-2.7c.7-1.8,1.3-3.7,1.1-5.8-.3-2.9-1-4.7-2.1-5.3-.2,0-.3,0-.4,0-.2,0-.4.3-.4.4-.2.5-.4,1-.5,1.6-1.1,3.3-2.3,6.8-5.9,9-3.4,2.1-7.5,2.3-12.6.7-4-1.3-8-2.4-12.1-1.4-3.2.7-5.6,2.8-8,4.8l-2.5,2.1.9-3.2c.2-.8.7-1.7,1-2.2.9-1.6,1.8-2.7,2.7-3.6,2-1.7,4.4-2.7,6.7-3.7.9-.4,1.7-.7,2.6-1.1,3.2-1.6,5.6-3.6,7.1-6,1.7-2.7,1.6-5.7,1.5-8.8,0-.6,0-1.2,0-1.8-.1,0-.2,0-.3.1-2.5,2.5-5,4.2-7.4,5l-2,.7.7-2c.4-1.1,1-2,1.5-2.9.7-1.1,1.3-2.1,1.5-3.2.7-3-.4-6-1.5-8.5-.2-.5-.5-1-.8-1.6-1.2-2.3-2.6-5.1-1.8-7.7.5-1.5,1.6-2.4,2.7-3.1l.4-.3c.8-.6,1.6-1.3,2.2-2.1-6.4-1.3-13-1-18.6.9-2.9,1-5.4,2.6-7.7,5-.5.5-1,1.1-1.5,1.7-1.2,1.4-2.6,3-4.3,4.1l-3.9,2.5,2.8-4.5c.6-1,1.2-1.9,1.6-3,.6-1.9.7-4.1.8-5.9-.2,0-.3.2-.4.3-2.5,5.8-8.3,6.9-13.4,7.9-1.2.2-2.4.5-3.5.7-1.1.3-2.3.7-3.4,1.1l-1.7.7.2-1.8c.5-3.9-.2-8.1-2.1-12.1-1.7-3.8-4.4-7.2-8-10.2-1.8-1.5-3.9-2.9-5.9-4.1-1.9-1.2-3.8-2.4-5.6-3.8-1.8-1.5-4.2-3.9-5.2-7-.9-3-.6-6.2.9-8.9-6,3.8-10.6,8.1-13.7,12.9-1.8,2.8-2.9,5.5-3.3,8.3-.4,2.6.2,5,.9,7.5.2.8.4,1.7.6,2.5.6,2.8.2,5.2-1,7.4-.7,1.1-1.5,2.1-2.7,3.2l-2.1,2,.4-2.9c.6-4.3-1.6-9-5.2-11.4,0,0,0,0-.1.2,1.4,3.9-.2,7.7-1.5,10.7-1.1,2.5-2,4.6-2.3,6.9l-.4,2.5-1.5-2c-1.7-2.2-4-4.4-6.9-6.4-3.6-2.5-7.6-4.4-12.4-5.8l-1.5-.4c-3.9-1.1-7.9-2.2-11.2-4.9-4.3-3.5-5.3-9.4-2.6-15.7,0,0,0,0,0,0-2.5,1.7-4.7,4.1-7,7.7-2.5,4-3.9,7.2-4.6,10.3-.8,3.9-.4,7.7,1.3,11,.6,1.2,1.4,2.3,2.2,3.5,1.3,1.9,2.7,3.9,3.3,6.3.4,1.6.3,3.4-.3,5.4-.4,1.3-.9,2.3-1.4,3.1l-1.6,2.2-.3-2.7c0-.4,0-.9-.1-1.3,0-.9-.2-1.8-.4-2.7-.3-1.3-.8-2.7-1.8-4.1-1.9-3-3.6-4.3-5.5-4.2-.2,0-.6.3-.7.4.2.3.5.6.7,1,.8,1.2,1.5,2.4,2.1,3.7.7,1.8,1,3.7.7,5.9-.2,1.3-.4,2.6-.7,3.8-.6,2.5-1.1,4.9-.6,7.4.3,1.9,1.3,4,2.7,6.2l4,6-6.1-5.1c-2.4-2-4.6-3.6-6.7-4.9-9.1-5.7-20.6-7.3-31.3-4.5-5.8,1.5-10.9,4.3-15.1,8.3.4-.1.7-.3,1.1-.4.7-.3,1.3-.5,2-.7,1.7-.5,3.5-.3,5.4.4,2.6,1,4.9,3,6.7,5.5,3.4,4.9,4,10.8,3.8,14.9,0,1.2-.2,2.5-.3,3.7-.1,1.2-.2,2.4-.3,3.7,0,2.6.1,4.8.5,6.9.9,4.6,3.4,8.4,7.1,11.2.7.5,1.4,1,2.4,1.5l2.6,1.5-3.3.5c-.1,0-.3,0-.4,0-4.2.8-8.3,3-12.7,6.7-1.1.9-2.1,1.9-3.2,2.9-2.8,2.7-5.8,5.5-9.5,7-3.4,1.4-7,1.8-10.2,1.1-1.7-.4-3.3-1-4.6-2-.9-.6-1.5-1.4-2.1-2.1-.4-.5-.7-.9-1.1-1.3-.1,0-.3.2-.4.3-.8,1.1-.4,3,0,4.6.4,1.7,1,3.4,1.6,5.1l.2.6c2.2,6.2,5.1,11.2,8.7,14.8,7.5,7.7,18.5,11.2,29.5,9.4l2.6-.4-1.6,2.1c-1.4,1.9-2.5,3.9-3.3,6.1-.9,2.6-1.1,5.3-1.2,8.4v1c0,2.8-.2,5.8-1.2,8.5-1.3,3.4-4.2,4.4-7,5.4-.4.2-.9.3-1.3.5-3.1,1.1-5.6,3.2-7.2,5.8-1.4,2.4-2.1,5.3-2.2,9.1,0,4,.7,6.9,2.1,8.8.1,0,.5-.4.6-.6.3-4.5,2.7-7.5,6.6-8.6,3.2-.9,6.9-.9,11.5,0,2.1.4,4.2,1,6.2,1.5,3.4.9,6.9,1.8,10.4,2.1,5.5.6,11-.2,16-2.2l1.8-.7-.4,1.9c-.6,2.6-.6,5.4,0,8.2.4,1.8,1,3.6,1.6,5.4,1.3,3.8,2.6,7.8,1.8,12.1-.5,2.6-1.7,4.7-3,6.8-.3.5-.6,1-.9,1.5-1.5,2.6-2.4,5.1-2.7,7.5-1,6.4,2.3,12.9,5.9,18.9,0,0,.5-.4.6-.6-.3-3.7.8-6.7,3.3-8.9,2.2-1.9,4.9-3,7.8-4.1l1.6-.6c2.8-1,5.4-1.9,7.7-3.7,1.3-1,2.3-2.1,3.1-3.3l1.5-2.4.4,2.8c.3,1.7.9,3.3,1.9,4.6,1.6,2.1,3.8,4.4,5.9,2.9.1,0,.2-.2.2-.2-.2-.9-.6-1.7-1-2.6-.8-1.9-1.8-4.1-.6-6.7,1.4-3,4.4-4.5,7.1-5.8h.3c2.8-1.5,5.4-2.9,7.3-5.2.5-.5.9-1.2,1.3-1.9l.7-1.3Z" fill="#ce6c1a"/>
          </g>
          <path d="M90.3,96.6c-.1-2-.4-3.6-1.4-5.3-.6-1.1-1.6-2-2.5-2.8-2.1-1.9-5.2-2-7.7-.8-2.7,1.2-4.8,3.7-5.5,6.6-.4,1.7-.6,3.3-.5,5,0,1.3.2,2.7.5,4,0,.4.2.8.3,1.2.3.8.7,1.7,1.2,2.4.8,1,1.7,1.6,2.9,2.1,1.2.5,2.6.5,3.9.2,1.4-.2,2.9-.9,4-1.7,3.4-2.5,5.2-6.7,4.9-10.8Z" fill="#faa81f" mix-blend-mode="screen" opacity=".5"/>
          <path d="M67.2,155.3c-.6-1.8-1.9-3.1-3.5-4-1.6-.8-3.2-1.2-5-.9-1.7.3-3.2,1.2-4.4,2.4-.9.9-1.7,2-2.2,3.3-2,1.8-3.6,4.5-3.4,7.1.1,1.8,1,3.5,2.6,4.4,1.7,1,3.8,1.2,5.7.7,4-.9,7.8-3.9,9.6-7.6.8-1.7,1.3-3.6.7-5.5Z" fill="#faa81f" mix-blend-mode="screen" opacity=".5"/>
          <path d="M72.8,145.1c-.1-.2-.2-.3-.4-.3-.1,0-.2-.1-.4-.1-.2,0-.4,0-.6,0h-.4c-.3.3-.6.4-.8.7-.2.1-.3.3-.5.5,0,0,0,0-.1.1-.2.3-.4.5-.5.8,0,.1,0,.3,0,.4,0,0,0,0,0,0,0,0,0,.2,0,.3,0,.1,0,.2,0,.4,0,.1,0,.2.1.3,0,0,.2.2.3.2.2.1.3.2.5.2.1,0,.3,0,.4,0,.1,0,.3,0,.4,0,.2,0,.3,0,.4-.2.2-.1.4-.2.6-.4,0,0,.1-.2.2-.2,0,0,0,0,0,0,0-.1.2-.3.3-.4,0,0,0,0,0,0,0,0,0-.1.1-.2,0-.2.2-.3.3-.5.1-.2.2-.4.2-.6,0-.2,0-.4,0-.5,0-.1,0-.2-.1-.3Z" fill="#faa81f" mix-blend-mode="screen" opacity=".5"/>
          <path d="M81.3,209.4c0,0,0-.1,0-.2,0-.3-.2-.5-.5-.7-.2-.1-.4-.2-.6-.2-.2,0-.5,0-.7,0-.4,0-.7.2-1,.4-.2.2-.5.4-.7.6,0,0,0,0,0,.1-.1.1-.2.3-.3.4h0c0-.1.2-.2.2-.3,0,0-.1.1-.2.2,0,0,0,0,0,0,0,0-.2,0-.2.1-.2.1-.4.3-.6.5-.1.2-.3.3-.4.5,0,0-.1.2-.1.3,0,0,0,.2-.1.3,0,0-.1.5-.1.5,0,0,0,0,0,0,0,.2,0,.4,0,.5,0-.2.1.3.2.5,0,0,.3.3.4.4,0,0,0,0,0,0,0,0,.3.1.3.1,0,0,.1,0,.2,0,.3.1.6,0,.9,0,.1,0,.3,0,.4,0,.1,0,.3,0,.4-.1.1,0,.3,0,.4-.1.2,0,.5-.2.7-.4,0,0,.1,0,.2-.1.5-.4.7-.5,1-1.1,0,0,0,0,0-.2.2-.5.4-.8.4-1.4,0-.1,0-.2,0-.3,0-.2,0-.4,0-.6Z" fill="#faa81f" mix-blend-mode="screen" opacity=".5"/>
          <path d="M126.9,51c0-.3-.1-.5-.2-.8-.1-.3-.2-.5-.4-.8-.1-.2-.3-.3-.4-.5-.4-.4-.8-.6-1.3-.8-.4-.2-.9-.2-1.4-.2-.7,0-1.3.1-1.9.4-1,.5-1.9,1.3-2.2,2.3,0,.3-.1.5-.2.8,0,0,0,.2-.1.2-.3.7-.4,1.5-.5,2.2,0,.5,0,.9,0,1.3,0,.3,0,.5.2.8.3.9.9,1.6,1.8,1.8,1.4.3,2.8-.3,3.9-1.1.7-.6,1.4-1.2,1.9-2,.5-.8.8-1.7.8-2.6,0-.4,0-.9,0-1.3Z" fill="#faa81f" mix-blend-mode="screen" opacity=".5"/>
          <path d="M182.6,31.8c-.4-.3-1-.5-1.5-.5-.6,0-1.3.1-1.9.4-.4.2-.8.4-1.2.6-.7.2-1.4.5-1.9.9,0,0,0,0,0,0,0,0,0,0,0,0-.2.1-.3.3-.5.4,0,0-.2.1-.2.2-.2.3-.5.5-.7.8-.3.4-.5.9-.7,1.5-.3,1-.3,2.1-.1,3.2.2.8.5,1.6,1,2.2.4.5.9.8,1.5,1,.6.2,1.3.2,2,0,1.7-.3,3-1.6,3.9-2.9.9-1.2,1.4-2.6,1.5-4,.1-1.4,0-3-1.2-4Z" fill="#faa81f" mix-blend-mode="screen" opacity=".5"/>
          <path d="M175,48.3c-1.9,0-3.7,3.4-1.2,3.4s3.7-3.4,1.2-3.4Z" fill="#faa81f" mix-blend-mode="screen" opacity=".5"/>
          <path d="M125,250.8c-.2-.8-.7-1.5-1.3-2-.9-.6-2-.7-3-.5-.6.1-1.2.3-1.8.6,0,0,0,0,0,0-.4.1-.7.3-1.1.4-.8.5-1.6,1-2.3,1.7-1.2,1.2-2.3,2.7-2.8,4.3-.6,2.1-.6,4.7,1.4,6,2.3,1.5,5.3.4,7.3-1.1,1.6-1.2,2.8-2.9,3.3-4.8.4-1.5.7-3.2.2-4.7Z" fill="#faa81f" mix-blend-mode="screen" opacity=".5"/>
          <path d="M114,266.6c0,0-.1,0-.2-.1,0,0-.1,0-.2,0,0,0-.2,0-.2,0,0,0-.2,0-.2,0,0,0,0,0,0,0-.1,0-.3,0-.4,0,0,0,0,0,0,0-.2,0-.3,0-.5.2,0,0,0,0,0,0-.1,0-.3.2-.4.3-.1.1-.3.2-.4.3,0,.1-.2.3-.3.4,0,.1-.1.3-.2.4,0,.1,0,.3,0,.4,0,.1,0,.3,0,.4,0,.1.1.2.2.3.1.2.3.3.4.3.1,0,.2.1.4.1.1,0,.3,0,.4,0,.2,0,.3,0,.4,0,.2,0,.3-.1.4-.2.2,0,.3-.2.4-.3.1,0,.3-.2.3-.4,0,0,.1-.2.2-.3.2-.2.4-.4.5-.7,0-.2,0-.4,0-.6,0-.2-.2-.4-.3-.5Z" fill="#faa81f" mix-blend-mode="screen" opacity=".5"/>
          <path d="M179.1,274.5c-.2-1.1-.7-2-1.5-2.8-.8-.7-1.8-1-2.8-1.1-1.5-.2-3,.3-4.3,1.1-1.5.3-2.8,1.2-3.9,2.3-2.1,2.2-3.1,5.5-2,8.4.4,1.1,1,2.1,2.1,2.7,1.2.6,2.4.7,3.7.5,2.4-.4,4.8-2,6.4-3.8,1.7-2.1,2.8-4.5,2.4-7.2Z" fill="#faa81f" mix-blend-mode="screen" opacity=".5"/>
          <path d="M177,263.4c0-.2,0-.4,0-.7,0-.2-.1-.4-.3-.5-.1-.2-.3-.3-.5-.3-.1,0-.3,0-.4,0-.2,0-.5,0-.7.1-.2,0-.3.1-.5.2-.2.1-.4.3-.6.5,0,.1-.2.3-.3.4-.2.2-.3.5-.3.8,0,.2,0,.5,0,.7,0,.3,0,.5.2.8,0,0,.2.2.3.3.2.2.5.2.8.2.2,0,.5,0,.7-.1.3,0,.5-.2.7-.3.2-.1.4-.3.6-.5.2-.2.3-.4.4-.6,0-.3.1-.5,0-.8Z" fill="#faa81f" mix-blend-mode="screen" opacity=".5"/>
          <g mix-blend-mode="screen" opacity=".5">
            <path d="M232.5,247.5s0,0,0,0c0,0-.1.1-.2.2,0,0,0,0,0,0,0,0,.1-.1.2-.2Z" fill="#faa81f"/>
            <path d="M232.4,247.6s0,0,0,0c0,0,0,0,0,0,0,0,0,0-.2.1Z" fill="#faa81f"/>
            <path d="M237.2,248.4c0-.3-.2-.6-.4-.8,0-.2-.2-.3-.3-.5-.1-.1-.3-.3-.4-.4-.2-.2-.5-.3-.8-.3-.2,0-.4,0-.6,0-.3,0-.7,0-1,.2-.2.1-.5.3-.7.4,0,0,0,0,0,0,0,0-.1,0-.2.1-.1,0-.2.2-.3.3.2,0,.3-.2.5-.3-.3.1-.5.3-.7.5,0,0-.2.2-.3.2,0,0,.2-.2.3-.2,0,0-.1,0-.2.1-.2.2-.4.4-.6.6-.1,0-.2.2-.3.3-.2.3-.4.4-.5.8-.1.3-.2.5-.2.8,0,0,0,.1,0,.2,0,.2,0,.4,0,.5,0,0,0,0,0,.1,0,0,0,.1,0,.2,0-.1,0-.3,0-.4,0,.2,0,.5.1.6,0,.2.2.4.4.5,0,0,0,0,.1.1,0,0,.2.2.2.2,0,0,0,0,0,0,0,0,0,0,0,0,.1.1.2.2.5.3,0,0,0,0,0,0,0,0,0,0,0,0,0,0,.1,0,.2,0,.3,0,.6.1.9.1.3,0,.6,0,.9-.1.3,0,.5-.1.8-.3,0,0,0,0,0,0,.2-.1.5-.2.7-.4.2-.2.5-.4.7-.6.3-.3.4-.5.6-.8,0-.2.2-.3.2-.5,0-.2.1-.5.1-.7,0,0,0-.2,0-.3,0-.3,0-.6-.1-.8Z" fill="#faa81f"/>
            <path d="M235.9,247.9s0,0,0,0c0,0,0,0,0,0,0,0,0,0,0,0,0,0,0,0,0,0Z" fill="#faa81f"/>
            <path d="M236.9,250.7s0,0,0,0c0,0,0,.1,0,.2,0,0,0-.1,0-.2Z" fill="#faa81f"/>
            <path d="M231,252.1s0,0,0,0c0-.1-.2-.2-.3-.3l.3.3Z" fill="#faa81f"/>
            <path d="M236.9,250.7c0-.1.1-.2.2-.4,0,.1-.1.3-.2.4Z" fill="#faa81f"/>
            <path d="M231,252.1s0,0,0,0c0,0,0,0,0,0,0,0,0,0,0,0Z" fill="#faa81f"/>
          </g>
          <path d="M239.3,257.1c-2.1,0-4,3.7-1.3,3.7s4-3.7,1.3-3.7Z" fill="#faa81f" mix-blend-mode="screen" opacity=".5"/>
          <path d="M273.1,221.4c-.2-1.8-1.1-3.4-2.4-4.7-1.2-1.2-2.5-2-4.2-2.1-2.3-.2-4.5,1-6,2.7-.4.2-.7.4-1,.7-2.5,2-4.4,5.7-3.1,8.9,1.5,3.7,5.9,5.4,9.6,4.2,2.3-.7,4.2-2.1,5.7-4.1,1.2-1.6,1.7-3.7,1.5-5.7Z" fill="#faa81f" mix-blend-mode="screen" opacity=".5"/>
          <path d="M277.7,231.7c0-.1,0-.3,0-.4,0,0,0-.2-.1-.3,0,0,0-.2,0-.3-.2-.2-.4-.4-.7-.5-.3-.1-.7,0-1,0-.4,0-.5.1-.8.3-.3.1-.5.3-.7.5-.1.1-.2.3-.3.4,0,0,0,0,0,0,0,0-.2.4-.2.4,0,0,0,0,0,0,0,0,0,.4,0,.5,0,.1,0,.3,0,.4,0,.3.2.5.5.7.1,0,.3.1.4.2,0,0,0,0,.1,0,.2,0,.5,0,.7,0,.3,0,.5,0,.7-.2.2,0,.3-.2.5-.3,0,0,0,0,0,0,.3-.1.6-.4.8-.7.1-.2.2-.4.2-.6,0,0,0-.2,0-.3Z" fill="#faa81f" mix-blend-mode="screen" opacity=".5"/>
          <path d="M286.9,165.8c-.6-1.1-1.6-1.6-2.8-1.7-.1,0-.3-.2-.4-.3-.9-.4-2-.2-2.8.2-1,.5-1.8,1.1-2.5,1.9-.6.6-1.2,1.4-1.6,2.1-.5,1.1-1,2.2-1,3.4,0,1.1.1,2.1.6,3.1.4.8,1.2,1.5,2.1,1.8,1.2.4,2.5.2,3.6-.2.6-.2,1.2-.6,1.7-.9.6-.4,1.1-.9,1.6-1.4.8-.9,1.4-1.8,1.8-2.9.3-.8.4-1.7.4-2.5,0-1-.2-1.8-.6-2.7Z" fill="#faa81f" mix-blend-mode="screen" opacity=".5"/>
          <path d="M293.8,167.2c-2.1,0-4.1,3.8-1.3,3.8s4.1-3.8,1.3-3.8Z" fill="#faa81f" mix-blend-mode="screen" opacity=".5"/>
          <g mix-blend-mode="screen" opacity=".5">
            <path d="M281.2,121.3c0-.3-.2-.6-.4-.9,0-.1-.1-.2-.2-.3-.2-.2-.4-.4-.6-.6-1-.6-2.1-.6-3.2-.5-.5,0-1,.3-1.5.5-.4.2-.7.4-1,.6-.1,0-.3.2-.4.3-.4.3-.9.7-1.2,1.1-.5.6-.9,1.2-1.2,2-.2.4-.2.8-.3,1.2,0,.3-.1.5-.2.8,0,.3,0,.7,0,1,0,.4,0,.8.1,1.1.1.5.3.9.5,1.3.4.8,1,1.4,1.9,1.7,0,0,.1,0,.2,0,.2,0,.5,0,.7,0,.3,0,.7,0,1-.1.7-.2,1.5-.5,2-1,.3-.3.7-.6,1-.9.3-.3.6-.7.9-1.1.4-.5.7-1.1,1-1.7.3-.6.6-1.3.8-2,.1-.5.3-1.1.3-1.7,0-.3,0-.7-.1-1Z" fill="#faa81f"/>
            <path d="M271,126.6s0,0,0-.1c0,0,0-.2,0-.3,0,.1,0,.3,0,.4Z" fill="#faa81f"/>
          </g>
          <path d="M285.8,114c-1.8,0-3.6,3.3-1.1,3.3s3.6-3.3,1.1-3.3Z" fill="#faa81f" mix-blend-mode="screen" opacity=".5"/>
          <g mix-blend-mode="screen" opacity=".5">
            <path d="M239.3,71.6c.2,0,.3,0,.5,0,0,0,0,0,.1,0-.2,0-.4,0-.6,0Z" fill="#faa81f"/>
            <path d="M240,71.5s0,0,0,0h0s0,0,0,0Z" fill="#faa81f"/>
            <path d="M243.1,73.8c0-.3-.2-.6-.4-.8-.1-.1-.2-.3-.4-.4-.1-.3-.3-.6-.5-.7-.2-.1-.4-.2-.6-.3-.3-.1-.7,0-1,0-.1,0-.2,0-.3,0-.3,0-.6,0-.9.2-.4,0-.7.3-1,.5-.2.2-.4.3-.6.5-.3.3-.5.6-.6.9-.1.2-.2.4-.2.6,0,.2,0,.4,0,.6,0,0,0,.2-.1.2-.1.3-.2.7-.2,1,0,.4,0,.8.3,1.2,0,0,0,0,0,0,.1.1.3.3.4.4.2.1.4.2.6.3.6.2,1.2.2,1.8,0,.3,0,.7-.2,1-.3.1,0,.3,0,.4-.2.6-.3.9-.5,1.5-1,.2-.2.5-.5.6-.8.1-.2.3-.5.3-.7.1-.5.2-.8,0-1.3Z" fill="#faa81f"/>
          </g>
          <path d="M249.6,67.8c-1.8,0-3.5,3.2-1.1,3.2s3.5-3.2,1.1-3.2Z" fill="#faa81f" mix-blend-mode="screen" opacity=".5"/>
        </g>
        <circle cx="176.6" cy="157.7" r="92.7" fill="#faa21f" mix-blend-mode="multiply" opacity=".5"/>
        <g>
          <circle cx="176.6" cy="157.9" r="88.5" fill="#ffdd01"/>
          <path d="M176.6,247.4c-49.4,0-89.5-40.2-89.5-89.5s40.2-89.5,89.5-89.5,89.5,40.2,89.5,89.5-40.2,89.5-89.5,89.5ZM176.6,70.5c-48.2,0-87.4,39.2-87.4,87.4s39.2,87.4,87.4,87.4,87.4-39.2,87.4-87.4-39.2-87.4-87.4-87.4Z" fill="#d28528"/>
        </g>
        <circle cx="174.3" cy="142.8" r="69.6" fill="#fff462"/>
      </g>
    </g>
  </g>
</svg>