<?xml version="1.0" encoding="UTF-8"?>
<svg id="Layer_1" data-name="Layer 1" xmlns="http://www.w3.org/2000/svg" viewBox="0 0 33.51 27.92">
  <defs>
    <style>
      .cls-1 {
        fill: #5e63ad;
      }

      .cls-2 {
        fill: #111143;
      }

      .cls-3 {
        fill: #ffcd3b;
      }

      .cls-4 {
        fill: #fff;
      }

      .cls-5 {
        stroke: #ffcd3b;
      }

      .cls-5, .cls-6, .cls-7 {
        fill: none;
        stroke-linecap: round;
        stroke-linejoin: round;
      }

      .cls-5, .cls-7 {
        stroke-width: .6px;
      }

      .cls-6 {
        stroke-width: .83px;
      }

      .cls-6, .cls-7 {
        stroke: #111143;
      }

      .cls-8 {
        fill: #e6f3fc;
      }

      .cls-9 {
        opacity: .13;
      }

      .cls-10 {
        opacity: .5;
      }
    </style>
  </defs>
  <g class="cls-10">
    <path class="cls-3" d="M2.38,6.52l-.35.13c-.16.06-.35-.02-.41-.19l-.13-.35c-.06-.16.02-.35.19-.41l.35-.13c.16-.06.35.02.41.19l.13.35c.06.16-.02.35-.19.41Z"/>
  </g>
  <g class="cls-9">
    <path class="cls-3" d="M7.52,5.43h-.02s-.02,0-.02,0v-.02s0-.02,0-.02h.02s.02,0,.02,0v.02s0,.02,0,.02Z"/>
  </g>
  <path class="cls-4" d="M33.1,4.24v19.44c0,2.11-1.71,3.83-3.83,3.83H7.86c-2.11,0-3.83-1.71-3.83-3.83V4.24c0-2.11,1.71-3.83,3.83-3.83h21.41c2.11,0,3.83,1.71,3.83,3.83Z"/>
  <path class="cls-6" d="M33.1,4.24v19.44c0,2.11-1.71,3.83-3.83,3.83H7.86c-2.11,0-3.83-1.71-3.83-3.83V4.24c0-2.11,1.71-3.83,3.83-3.83h21.41c2.11,0,3.83,1.71,3.83,3.83Z"/>
  <path class="cls-1" d="M33.1,4.02v1.39H4.04v-1.39c0-1.99,1.61-3.6,3.6-3.6h21.85c1.99,0,3.6,1.61,3.6,3.6Z"/>
  <path class="cls-6" d="M33.1,4.02v1.39H4.04v-1.39c0-1.99,1.61-3.6,3.6-3.6h21.85c1.99,0,3.6,1.61,3.6,3.6Z"/>
  <path class="cls-4" d="M8.76,3.07c0,.38-.31.69-.69.69s-.69-.31-.69-.69.31-.69.69-.69.69.31.69.69Z"/>
  <path class="cls-4" d="M11.19,3.07c0,.38-.31.69-.69.69s-.69-.31-.69-.69.31-.69.69-.69.69.31.69.69Z"/>
  <path class="cls-4" d="M13.61,3.07c0,.38-.31.69-.69.69s-.69-.31-.69-.69.31-.69.69-.69.69.31.69.69Z"/>
  <path class="cls-8" d="M18.38,11.65H6.89v-3.89h11.49v3.89Z"/>
  <path class="cls-8" d="M23.01,14.19H6.89l.15-1.52h16.12l-.15,1.52Z"/>
  <path class="cls-1" d="M17.69,24.29h-4.08v-2.44h4.08v2.44Z"/>
  <path class="cls-1" d="M23.78,24.29h-4.08v-6.83h4.08v6.83Z"/>
  <path class="cls-1" d="M29.86,24.29h-4.08v-12h4.08v12Z"/>
  <path class="cls-3" d="M.84,5.21l2.31-2.23c.17-.16.08-.44-.15-.48l-2.65-.43c-.18-.03-.34.13-.32.31l.33,2.66c.03.23.3.32.47.17Z"/>
  <path class="cls-3" d="M13.37,9.72c-.18.23-.38.46-.6.65l-4.23-4.32-.52-.53-.37-.38-2.19,2.24c-.08.08-.19.13-.31.13-.11,0-.23-.04-.31-.12l-3.1-3.03-.27-.26c-.17-.17-.17-.44,0-.61.17-.17.44-.17.61,0l.29.28,2.77,2.71,2.19-2.25c.08-.08.19-.13.31-.13h0c.12,0,.23.05.31.13l.64.65.52.52,4.26,4.32Z"/>
  <path class="cls-1" d="M16.15,8.61l-.6,1.25.65.31c-.1.41-.12.83-.07,1.23l-.68.24.46,1.31.68-.24c.21.35.49.66.82.92l-.31.65,1.25.6.31-.65c.41.1.83.12,1.23.07l.24.68,1.31-.46-.24-.68c.35-.21.66-.49.92-.82l.65.31.6-1.25-.65-.31c.1-.41.12-.83.07-1.23l.68-.24-.46-1.31-.68.24c-.21-.35-.49-.66-.82-.92l.31-.65-1.25-.6-.31.65c-.41-.1-.83-.12-1.23-.07l-.24-.68-1.31.46.24.68c-.35.21-.66.49-.92.82l-.65-.31ZM20.06,9.41c.97.38,1.37,1.52.84,2.41-.41.71-1.29,1.01-2.05.72-.97-.38-1.37-1.52-.84-2.41.41-.7,1.29-1.01,2.05-.72Z"/>
  <path class="cls-4" d="M15.25,24.59H1.4c-.61,0-1.1-.49-1.1-1.1v-7.18c0-.6.49-1.1,1.1-1.1h13.85c.6,0,1.1.49,1.1,1.1v7.18c0,.6-.49,1.1-1.1,1.1Z"/>
  <path class="cls-7" d="M15.25,24.59H1.4c-.61,0-1.1-.49-1.1-1.1v-7.18c0-.6.49-1.1,1.1-1.1h13.85c.6,0,1.1.49,1.1,1.1v7.18c0,.6-.49,1.1-1.1,1.1Z"/>
  <path class="cls-5" d="M1.73,20.04c-.02-.55.47-1.03,1.01-1.15.54-.13,1.11.02,1.62.23.73.3,1.41.72,1.99,1.24.36.32.68.68,1.1.92.41.24.94.36,1.37.15.32-.16.54-.47.69-.79.15-.32.26-.67.43-.98.21-.39.58-.74,1.03-.74.29,0,.56.16.78.36s.38.44.57.66c.73.84,1.84,1.34,2.95,1.34"/>
  <path class="cls-7" d="M2.1,22.77c.15-.41.25-.81.34-1.21.29-1.25,1.86-1.72,2.74-.78.02.02.04.05.07.07.17.21.31.45.56.57.3.15.67.05.94-.15.27-.19.47-.47.7-.72.22-.25.49-.49.81-.56.33-.07.68.04.98.2.3.16.57.37.88.52.65.32,1.43.35,2.1.07.67-.28,1.2-.85,1.43-1.54"/>
  <path class="cls-3" d="M3.25,18.95c0,.29-.23.52-.52.52s-.52-.23-.52-.52.23-.52.52-.52.52.23.52.52Z"/>
  <path class="cls-3" d="M11.6,19.01c0,.29-.23.52-.52.52s-.52-.23-.52-.52.23-.52.52-.52.52.23.52.52Z"/>
  <path class="cls-3" d="M15.79,21.26c0,.29-.23.52-.52.52s-.52-.23-.52-.52.23-.52.52-.52.52.23.52.52Z"/>
  <path class="cls-2" d="M2.73,22.7c0,.29-.23.52-.52.52s-.52-.23-.52-.52.23-.52.52-.52.52.23.52.52Z"/>
  <path class="cls-2" d="M6.16,21.26c0,.29-.23.52-.52.52s-.52-.23-.52-.52.23-.52.52-.52.52.23.52.52Z"/>
  <path class="cls-2" d="M9.36,20.02c0,.29-.23.52-.52.52s-.52-.23-.52-.52.23-.52.52-.52.52.23.52.52Z"/>
  <path class="cls-2" d="M14.16,19.26c0,.29-.23.52-.52.52s-.52-.23-.52-.52.23-.52.52-.52.52.23.52.52Z"/>
</svg>