<?xml version="1.0" encoding="UTF-8"?>
<svg id="Layer_1" data-name="Layer 1" xmlns="http://www.w3.org/2000/svg" xmlns:xlink="http://www.w3.org/1999/xlink" viewBox="0 0 30.3 22.86">
  <defs>
    <style>
      .cls-1 {
        fill: #cbd9eb;
      }

      .cls-2 {
        fill: #fff;
      }

      .cls-3 {
        mask: url(#mask);
      }

      .cls-4 {
        fill: none;
      }

      .cls-5 {
        fill: #f9ef93;
      }

      .cls-6 {
        fill: #41ba89;
      }

      .cls-7 {
        fill: #a2d7c0;
      }

      .cls-8 {
        fill: #f7e768;
      }

      .cls-9 {
        fill: #88bdc4;
      }

      .cls-10 {
        fill: #e5ecf5;
      }

      .cls-11 {
        fill: #60a6b0;
      }

      .cls-12 {
        fill: #202b36;
      }
    </style>
    <mask id="mask" x="-1.54" y="-10.05" width="33.37" height="33.37" maskUnits="userSpaceOnUse">
      <g id="mask0_20565_50310" data-name="mask0 20565 50310">
        <path class="cls-2" d="M31.83-10.05H-1.54V23.32H31.83V-10.05Z"/>
      </g>
    </mask>
  </defs>
  <g class="cls-3">
    <g>
      <path class="cls-9" d="M22.23,13.22h4.29v9.65h-4.29v-9.65Z"/>
      <path class="cls-4" d="M22.23,13.22h4.29v9.65h-4.29v-9.65Z"/>
      <path class="cls-11" d="M22.23,13.58h1.27v8.93h-1.27v-8.93Z"/>
      <path class="cls-2" d="M25.68,21.83h-.69v-.69h.69v.69Z"/>
      <path class="cls-2" d="M25.68,17.69h-.69v-.69h.69v.69Z"/>
      <path class="cls-2" d="M25.68,14.94h-.69v-.69h.69v.69Z"/>
      <path class="cls-12" d="M24.99,19.76h.69v.69h-.69v-.69Z"/>
      <path class="cls-12" d="M24.99,18.38h.69v.69h-.69v-.69Z"/>
      <path class="cls-12" d="M24.99,15.63h.69v.69h-.69v-.69Z"/>
      <path class="cls-2" d="M24.37,21.83h-.69v-.69h.69v.69Z"/>
      <path class="cls-2" d="M24.37,17.69h-.69v-.69h.69v.69Z"/>
      <path class="cls-2" d="M24.37,14.94h-.69v-.69h.69v.69Z"/>
      <path class="cls-12" d="M23.69,19.76h.69v.69h-.69v-.69Z"/>
      <path class="cls-12" d="M23.69,18.38h.69v.69h-.69v-.69Z"/>
      <path class="cls-12" d="M23.69,15.63h.69v.69h-.69v-.69Z"/>
      <path class="cls-10" d="M3.99,14.59h3.58v8.27h-3.58v-8.27Z"/>
      <path class="cls-4" d="M3.99,14.59h3.58v8.27h-3.58v-8.27Z"/>
      <path class="cls-1" d="M4.14,14.93h.78v7.59h-.78v-7.59Z"/>
      <path class="cls-2" d="M5.61,21.83h-.69v-.69h.69v.69Z"/>
      <path class="cls-2" d="M5.61,19.07h-.69v-.69h.69v.69Z"/>
      <path class="cls-2" d="M5.61,16.32h-.69v-.69h.69v.69Z"/>
      <path class="cls-12" d="M4.92,17h.69v.69h-.69v-.69Z"/>
      <path class="cls-12" d="M4.92,19.76h.69v.69h-.69v-.69Z"/>
      <path class="cls-2" d="M6.98,21.83h-.69v-.69h.69v.69Z"/>
      <path class="cls-2" d="M6.98,19.07h-.69v-.69h.69v.69Z"/>
      <path class="cls-2" d="M6.98,16.32h-.69v-.69h.69v.69Z"/>
      <path class="cls-12" d="M6.29,17h.69v.69h-.69v-.69Z"/>
      <path class="cls-12" d="M6.29,19.76h.69v.69h-.69v-.69Z"/>
      <path class="cls-10" d="M18.79,22.86h-6.89V0h6.89v22.86Z"/>
      <path class="cls-4" d="M18.79,22.86h-6.89V0h6.89v22.86Z"/>
      <path class="cls-1" d="M13.23,22.51h1.03V4.36h-1.38V.34h-1.03v4.68h1.38v17.49Z"/>
      <path class="cls-2" d="M14.95,21.05h-.69v-1.03h.69v1.03Z"/>
      <path class="cls-2" d="M14.95,17.6h-.69v-1.03h.69v1.03Z"/>
      <path class="cls-2" d="M16.33,14.16h-.69v-1.03h.69v1.03Z"/>
      <path class="cls-2" d="M14.95,10.71h-.69v-1.03h.69v1.03Z"/>
      <path class="cls-2" d="M16.33,5.54h-.69v-1.03h.69v1.03Z"/>
      <path class="cls-2" d="M17.71,2.1h-.69v-1.03h.69v1.03Z"/>
      <path class="cls-2" d="M14.95,2.1h-.69v-1.03h.69v1.03Z"/>
      <path class="cls-12" d="M17.02,4.51h.69v1.03h-.69v-1.03Z"/>
      <path class="cls-12" d="M15.64,18.29h.69v1.03h-.69v-1.03Z"/>
      <path class="cls-12" d="M15.64,20.01h.69v1.03h-.69v-1.03Z"/>
      <path class="cls-12" d="M17.02,2.79h.69v1.03h-.69v-1.03Z"/>
      <path class="cls-12" d="M17.02,6.23h.69v1.03h-.69v-1.03Z"/>
      <path class="cls-12" d="M15.64,16.57h.69v1.03h-.69v-1.03Z"/>
      <path class="cls-12" d="M12.89,2.79h.69v1.03h-.69v-1.03Z"/>
      <path class="cls-12" d="M14.26,2.79h.69v1.03h-.69v-1.03Z"/>
      <path class="cls-12" d="M12.89,1.07h.69v1.03h-.69v-1.03Z"/>
      <path class="cls-12" d="M14.26,4.51h.69v1.03h-.69v-1.03Z"/>
      <path class="cls-12" d="M14.26,6.23h.69v1.03h-.69v-1.03Z"/>
      <path class="cls-12" d="M14.26,7.96h.69v1.03h-.69v-1.03Z"/>
      <path class="cls-12" d="M14.26,18.29h.69v1.03h-.69v-1.03Z"/>
      <path class="cls-12" d="M15.64,7.96h.69v1.03h-.69v-1.03Z"/>
      <path class="cls-12" d="M15.64,6.23h.69v1.03h-.69v-1.03Z"/>
      <path class="cls-12" d="M15.64,11.4h.69v1.03h-.69v-1.03Z"/>
      <path class="cls-12" d="M15.64,9.68h.69v1.03h-.69v-1.03Z"/>
      <path class="cls-12" d="M15.64,2.79h.69v1.03h-.69v-1.03Z"/>
      <path class="cls-12" d="M14.26,13.12h.69v1.03h-.69v-1.03Z"/>
      <path class="cls-12" d="M15.64,14.85h.69v1.03h-.69v-1.03Z"/>
      <path class="cls-2" d="M17.71,14.16h-.69v-1.03h.69v1.03Z"/>
      <path class="cls-12" d="M17.02,18.29h.69v1.03h-.69v-1.03Z"/>
      <path class="cls-12" d="M17.02,20.01h.69v1.03h-.69v-1.03Z"/>
      <path class="cls-12" d="M17.02,16.57h.69v1.03h-.69v-1.03Z"/>
      <path class="cls-12" d="M17.02,7.96h.69v1.03h-.69v-1.03Z"/>
      <path class="cls-12" d="M17.02,11.4h.69v1.03h-.69v-1.03Z"/>
      <path class="cls-12" d="M17.02,9.68h.69v1.03h-.69v-1.03Z"/>
      <path class="cls-12" d="M17.02,14.85h.69v1.03h-.69v-1.03Z"/>
      <path class="cls-12" d="M14.26,11.4h.69v1.03h-.69v-1.03Z"/>
      <path class="cls-12" d="M15.64,1.07h.69v1.03h-.69v-1.03Z"/>
      <path class="cls-12" d="M14.26,14.85h.69v1.03h-.69v-1.03Z"/>
      <path class="cls-5" d="M17.36,8.3h6.59v14.56h-6.59v-14.56Z"/>
      <path class="cls-4" d="M17.36,8.3h6.59v14.56h-6.59v-14.56Z"/>
      <path class="cls-8" d="M17.7,8.64h.7v14.22h-.7v-14.22Z"/>
      <path class="cls-2" d="M23.07,21.05h-3.3v-.69h3.3v.69Z"/>
      <path class="cls-2" d="M19.09,21.05h-.69v-.69h.69v.69Z"/>
      <path class="cls-2" d="M23.07,18.29h-.69v-.69h.69v.69Z"/>
      <path class="cls-2" d="M21.69,18.29h-3.3v-.69h3.3v.69Z"/>
      <path class="cls-2" d="M23.07,14.16h-.69v-.69h.69v.69Z"/>
      <path class="cls-2" d="M21.69,14.16h-3.3v-.69h3.3v.69Z"/>
      <path class="cls-2" d="M23.07,10.02h-.69v-.69h.69v.69Z"/>
      <path class="cls-2" d="M21.69,10.02h-3.3v-.69h3.3v.69Z"/>
      <path class="cls-12" d="M22.38,14.85h.69v.69h-.69v-.69Z"/>
      <path class="cls-12" d="M19.78,12.09h3.3v.69h-3.3v-.69Z"/>
      <path class="cls-12" d="M22.38,10.71h.69v.69h-.69v-.69Z"/>
      <path class="cls-12" d="M18.4,10.71h3.3v.69h-3.3v-.69Z"/>
      <path class="cls-12" d="M18.4,16.22h.69v.69h-.69v-.69Z"/>
      <path class="cls-12" d="M19.78,16.22h3.3v.69h-3.3v-.69Z"/>
      <path class="cls-12" d="M22.38,18.98h.69v.69h-.69v-.69Z"/>
      <path class="cls-12" d="M18.4,14.85h3.3v.69h-3.3v-.69Z"/>
      <path class="cls-12" d="M18.4,12.09h.69v.69h-.69v-.69Z"/>
      <path class="cls-12" d="M18.4,18.98h3.3v.69h-3.3v-.69Z"/>
      <path class="cls-9" d="M6.64,4.86h6.59v18.01h-6.59V4.86Z"/>
      <path class="cls-4" d="M6.64,4.86h6.59v18.01h-6.59V4.86Z"/>
      <path class="cls-5" d="M7.33,3.02h1.84v1.84h-1.84v-1.84Z"/>
      <path class="cls-4" d="M7.33,3.02h1.84v1.84h-1.84v-1.84Z"/>
      <path class="cls-11" d="M6.98,5.2h.69v17.32h-.69V5.2Z"/>
      <path class="cls-8" d="M7.39,3.24h.63v1.39h-.63v-1.39Z"/>
      <path class="cls-2" d="M11.66,21.74h-2.07v-.69h2.07v.69Z"/>
      <path class="cls-2" d="M8.9,21.74h-.69v-.69h.69v.69Z"/>
      <path class="cls-2" d="M12.2,17.6h-.69v-.69h.69v.69Z"/>
      <path class="cls-2" d="M12.2,12.09h-.69v-.69h.69v.69Z"/>
      <path class="cls-2" d="M11.66,6.58h-.69v-.69h.69v.69Z"/>
      <path class="cls-2" d="M10.28,6.58h-2.07v-.69h2.07v.69Z"/>
      <path class="cls-12" d="M7.67,8.65h.69v.69h-.69v-.69Z"/>
      <path class="cls-12" d="M7.67,14.16h.69v.69h-.69v-.69Z"/>
      <path class="cls-7" d="M28.15,19.72c.16,1.52.22,3.11.22,3.11l-.22-3.11Z"/>
      <path class="cls-4" d="M28.15,19.72c.16,1.52.22,3.11.22,3.11"/>
      <path class="cls-6" d="M28.45,21.1c.63-.13,1.08-.72,1.02-1.37-.03-.36-.21-.68-.49-.9.31-.68-.24-1.47-1-1.4-.76.07-1.16.93-.74,1.56-.24.27-.36.61-.33.98.06.66.61,1.16,1.25,1.17l.29-.03Z"/>
      <path class="cls-4" d="M28.45,21.1c.63-.13,1.08-.72,1.02-1.37-.03-.36-.21-.68-.49-.9.31-.68-.24-1.47-1-1.4-.76.07-1.16.93-.74,1.56-.24.27-.36.61-.33.98.06.66.61,1.16,1.25,1.17l.29-.03Z"/>
      <path class="cls-6" d="M2.57,22.05c0-1.52,1.24-2.76,2.76-2.76.92,0,1.74.45,2.24,1.15.19-.05.39-.07.6-.07,1.36,0,2.45,1.1,2.45,2.45H2.68c-.07-.24-.11-.5-.11-.77Z"/>
      <path class="cls-4" d="M2.57,22.05c0-1.52,1.24-2.76,2.76-2.76.92,0,1.74.45,2.24,1.15.19-.05.39-.07.6-.07,1.36,0,2.45,1.1,2.45,2.45H2.68c-.07-.24-.11-.5-.11-.77Z"/>
      <path class="cls-6" d="M8.84,22.23c0-1.23.82-2.23,2.06-2.23.75,0,1.42.37,1.83.93.16-.04.39-.06.56-.06,1.1,0,1.94.66,2.07,1.98h-6.43c-.06-.2-.09-.41-.09-.62Z"/>
      <path class="cls-4" d="M8.84,22.23c0-1.23.82-2.23,2.06-2.23.75,0,1.42.37,1.83.93.16-.04.39-.06.56-.06,1.1,0,1.94.66,2.07,1.98h-6.43c-.06-.2-.09-.41-.09-.62Z"/>
    </g>
  </g>
</svg>