<?xml version="1.0" encoding="UTF-8"?>
<svg id="Layer_1" xmlns="http://www.w3.org/2000/svg" version="1.1" viewBox="0 0 12 12">
  <!-- Generator: Adobe Illustrator 29.3.1, SVG Export Plug-In . SVG Version: 2.1.0 Build 151)  -->
  <defs>
    <style>
      .st0 {
        fill: #4f4f4f;
        fill-rule: evenodd;
      }
    </style>
  </defs>
  <path class="st0" d="M1.87.98c-.23,0-.46.09-.63.26s-.26.39-.26.63v2.07c0,.27-.22.49-.49.49S0,4.21,0,3.93V1.87C0,1.37.19.9.54.55.89.2,1.37,0,1.87,0h2.07C4.2,0,4.42.22,4.42.49s-.22.49-.49.49H1.87ZM7.57.49C7.57.22,7.79,0,8.06,0h2.07C10.62,0,11.1.2,11.45.55c.35.35.55.83.55,1.32v2.07c0,.27-.22.49-.49.49s-.49-.22-.49-.49V1.87c0-.23-.09-.46-.26-.63-.17-.17-.39-.26-.63-.26h-2.07c-.27,0-.49-.22-.49-.49ZM.49,7.57c.27,0,.49.22.49.49v2.07c0,.23.09.46.26.63.17.17.39.26.63.26h2.07c.27,0,.49.22.49.49s-.22.49-.49.49H1.87c-.5,0-.97-.2-1.32-.55C.19,11.1,0,10.63,0,10.13v-2.07c0-.27.22-.49.49-.49ZM11.5,7.57c.27,0,.49.22.49.49v2.07c0,.5-.2.97-.55,1.32-.35.35-.83.55-1.32.55h-2.07c-.27,0-.49-.22-.49-.49s.22-.49.49-.49h2.07c.23,0,.46-.09.63-.26.17-.17.26-.39.26-.63v-2.07c0-.27.22-.49.49-.49Z"/>
</svg>