<?xml version="1.0" encoding="UTF-8"?>
<svg id="Layer_1" xmlns="http://www.w3.org/2000/svg" version="1.1" viewBox="0 0 12 12">
  <!-- Generator: Adobe Illustrator 29.3.1, SVG Export Plug-In . SVG Version: 2.1.0 Build 151)  -->
  <defs>
    <style>
      .st0 {
        fill: #4f4f4f;
      }
    </style>
  </defs>
  <path class="st0" d="M10.59,4.47v-2.2c0-.3-.12-.59-.33-.81-.21-.21-.5-.33-.79-.33H2.53c-.3,0-.58.12-.79.33-.21.21-.33.5-.33.8v2.21c-.38.04-.73.21-.99.5-.26.28-.41.65-.42,1.04v1.5c0,.4.14.79.4,1.09.26.3.62.49,1.01.55v.92c0,.09.04.19.1.25.07.07.16.1.25.1s.18-.04.25-.1c.07-.07.1-.16.1-.25v-1.05h7.76v1.05c0,.1.04.19.1.25.07.07.16.1.25.1s.18-.04.25-.1c.07-.07.1-.16.1-.25v-.9c.39-.05.75-.24,1.01-.53.26-.3.4-.68.4-1.08v-1.54c0-.39-.16-.76-.42-1.04-.26-.28-.61-.46-.99-.5ZM2.53,1.85h6.94c.11,0,.21.04.29.12.08.08.12.18.12.29v2.45h-.7v-1.65c0-.13-.05-.26-.14-.35-.09-.09-.22-.14-.34-.14h-1.85c-.13,0-.25.05-.34.14-.09.09-.14.22-.14.35v1.65h-.71v-1.65c0-.13-.05-.26-.14-.35-.09-.09-.22-.14-.34-.14h-1.85c-.06,0-.13.01-.19.04-.06.02-.11.06-.16.11-.05.05-.08.1-.11.16s-.04.12-.04.19v1.65h-.71v-2.45c0-.11.04-.22.12-.29.08-.08.18-.12.29-.12ZM8.47,4.72h-1.41v-1.43h1.41v1.43ZM4.94,4.72h-1.41v-1.43h1.41v1.43ZM10.47,8.3H1.53c-.11,0-.22-.02-.32-.06-.1-.04-.19-.1-.27-.18-.08-.08-.14-.17-.18-.27-.04-.1-.06-.21-.06-.32v-1.19c0-.22.09-.44.24-.59.15-.16.36-.25.58-.25h8.94c.22,0,.43.09.58.25.15.16.24.37.24.59v1.19c0,.11-.02.22-.06.32-.04.1-.1.19-.18.27-.08.08-.17.14-.27.18-.1.04-.21.06-.32.06Z"/>
</svg>