<?xml version="1.0" encoding="UTF-8"?>
<svg id="Layer_1" data-name="Layer 1" xmlns="http://www.w3.org/2000/svg" viewBox="0 0 32.02 32.57">
  <defs>
    <style>
      .cls-1 {
        fill: #333;
      }

      .cls-2 {
        fill: #7999b3;
      }

      .cls-3 {
        fill: #547480;
      }

      .cls-4 {
        fill: #c3d1eb;
      }

      .cls-5 {
        fill: #fece88;
      }

      .cls-6 {
        fill: #d95757;
      }

      .cls-7 {
        fill: #f15f43;
      }
    </style>
  </defs>
  <path class="cls-5" d="M6.46,27.45c-.09,0-.18.02-.27.05-.08.03-.16.09-.23.15-.06.06-.12.14-.15.23-.03.08-.05.17-.05.27,0,.25-.1.48-.27.66-.17.17-.41.27-.66.27-1.23-.04-1.23-1.82,0-1.86.09,0,.18-.02.27-.05.08-.03.16-.09.23-.15.06-.06.12-.14.15-.23.03-.08.05-.18.05-.27v-2.06c-.03-.92-1.36-.92-1.39,0v1.47c-2.5.82-1.96,4.49.7,4.54.62,0,1.21-.25,1.64-.68.44-.44.68-1.03.68-1.64,0-.18-.07-.36-.2-.49-.13-.13-.31-.2-.49-.2Z"/>
  <path class="cls-4" d="M4.05,14.72h1.58v6.2h-1.58v-6.2Z"/>
  <path class="cls-7" d="M6.69,21.78c-.02-.23-.12-.45-.3-.61-.17-.16-.4-.25-.63-.25h-1.84c-.24,0-.46.09-.63.25-.17.16-.28.38-.3.61l-.24,3.09h4.18l-.24-3.09Z"/>
  <path class="cls-2" d="M4.05,14.72h1.58v2.85h-1.58v-2.85Z"/>
  <path class="cls-6" d="M10.77,10.97h1.79v1.96h-1.79v-1.96ZM6.67,10.97h1.79v1.96h-1.79v-1.96Z"/>
  <path class="cls-4" d="M18.39,1.72l.97-1.25,11.57,8.97-.97,1.25L18.39,1.72Z"/>
  <path class="cls-4" d="M4.7,9.46L18.54.69l.85,1.33L5.55,10.8l-.85-1.33Z"/>
  <path class="cls-7" d="M26.38,12.93H2.94l1.27-1.96h22.16v-1.79H3.73c-.15,0-.3.04-.43.11-.13.07-.24.17-.32.3l-2.44,3.75c-.09.14-.14.29-.14.45,0,.16.03.32.11.46.08.14.19.26.33.34.14.08.3.13.46.13h25.08v-1.79Z"/>
  <path class="cls-5" d="M31.62,16.28h-5.24v-7.1h3.91c.18,0,.35.03.51.1.16.07.31.17.43.29.12.12.22.27.29.43.07.16.1.34.1.51v5.77Z"/>
  <path class="cls-7" d="M15.98,17.16h1.79v13.22h-1.79v-13.22ZM19.77,17.16h1.79v13.22h-1.79v-13.22Z"/>
  <path class="cls-6" d="M17.77,20.62h2.01v1.79h-2.01v-1.79ZM17.77,25.13h2.01v1.79h-2.01v-1.79ZM14.89,30.38h7.76c.13,0,.26.03.38.07.12.05.23.12.32.21s.16.2.21.32c.05.12.07.25.07.38v.81h-9.72v-.81c0-.13.03-.26.07-.38.05-.12.12-.23.21-.32.09-.09.2-.16.32-.21.12-.05.25-.07.38-.07Z"/>
  <path class="cls-7" d="M18.17,9.18V1.29c0-.12.02-.24.06-.35.04-.11.11-.21.19-.3.08-.09.18-.15.29-.2.11-.05.23-.07.35-.07s.24.02.35.07c.11.05.21.11.29.2.08.09.15.19.19.3.04.11.06.23.06.35v7.89h-1.79Z"/>
  <path class="cls-5" d="M22.35,9.18v7.98h-7.17v-5.36c0-.7.28-1.36.77-1.86.49-.49,1.16-.77,1.86-.77h4.55Z"/>
  <path class="cls-3" d="M19.55,11.02v2.92h-2.62v-1.55c0-.36.14-.71.4-.97.26-.26.6-.4.97-.4h1.26Z"/>
  <path class="cls-1" d="M32.02,10.51c0-.37-.12-.72-.33-1.02-.22-.3-.52-.52-.87-.63-.06-.06-10.58-8.21-10.65-8.26-.47-.79-1.67-.81-2.17-.04-.01,0-10.81,6.86-10.83,6.86-.09.06-.15.15-.18.25-.02.1,0,.21.05.3.06.09.15.15.25.18.1.02.21,0,.3-.05L17.77,1.65v.93l-9.79,6.21H3.73c-.22,0-.43.05-.62.16-.19.1-.35.25-.47.43L.21,13.12c-.13.2-.2.42-.21.65,0,.23.04.46.16.67.11.2.28.38.48.49s.43.18.66.18h2.35v5.43c-.28.06-.54.21-.73.42-.19.22-.31.49-.33.78l-.24,3.09c0,.05,0,.11.02.16.02.05.05.1.08.14.04.04.08.07.13.09.05.02.1.03.16.03h.99v.39c-2.67,1.19-1.84,5.18,1.09,5.21,2.45.1,3.83-3.61,1.63-3.81-.29,0-.57.12-.77.32-.21.21-.32.48-.32.77,0,.14-.06.28-.16.38-.1.1-.23.16-.38.16-.7-.02-.7-1.04,0-1.06.29,0,.57-.12.77-.32.21-.21.32-.48.32-.77v-1.26h.99c.05,0,.11-.01.16-.03s.1-.05.13-.09c.04-.04.07-.09.08-.14.02-.05.03-.11.02-.16l-.24-3.09c-.02-.29-.14-.56-.33-.78-.19-.22-.45-.37-.73-.42v-4.35c0-.05,0-.1-.03-.15-.02-.05-.05-.09-.09-.13-.04-.04-.08-.07-.13-.09-.05-.02-.1-.03-.15-.03s-.1.01-.15.03c-.05.02-.09.05-.13.09-.04.04-.07.08-.09.13-.02.05-.03.1-.03.15v4.32h-.78v-5.4h10.34v2.04c0,.11.04.21.12.28.07.07.18.12.28.12h.39v12.43h-.69c-.37,0-.72.15-.98.4-.26.26-.4.61-.4.98v.81c0,.11.04.21.12.28.07.07.18.12.28.12h9.72c.11,0,.21-.04.28-.12s.12-.18.12-.28v-.81c0-.37-.15-.72-.4-.98s-.61-.4-.98-.4h-.69v-11.22c0-.11-.04-.21-.12-.28-.07-.07-.18-.12-.28-.12s-.21.04-.28.12c-.07.07-.12.18-.12.28v11.22h-.99v-12.43h2.18c.11,0,.21-.04.28-.12s.12-.18.12-.28v-2.04h3.23v1.17c0,.11.04.21.12.28s.18.12.28.12h5.24c.11,0,.21-.04.28-.12s.12-.18.12-.28v-5.77ZM18.57,1.29c.02-.66.97-.66.99,0v7.49h-.99V1.29ZM17.77,3.51v5.27s-.08,0-.12,0c-.02-.01-8.15,0-8.18,0l8.3-5.26ZM5.13,26.52c0,.08-.03.15-.09.21-.06.06-.13.09-.21.09-1.76.06-1.76,2.59,0,2.66.35,0,.69-.14.94-.39.25-.25.39-.59.39-.94,0-.08.03-.16.09-.21.06-.06.13-.09.21-.09s.16.03.21.09c.06.06.09.13.09.21,0,.51-.2,1-.56,1.36s-.85.56-1.36.56c-2.19-.03-2.66-3.08-.58-3.76.08-.03.15-.08.2-.14.05-.07.08-.15.08-.24v-.67h.6v1.26ZM5.62,21.31c.33-.03.63.15.66.49l.2,2.66h-3.32l.2-2.66c.01-.13.07-.26.17-.35.1-.09.23-.14.36-.14h1.71,0ZM15.05,10.57H4.22c-.07,0-.13.02-.19.05-.06.03-.11.08-.14.13l-1.27,1.96c-.04.06-.06.13-.06.2,0,.07.01.14.05.21.03.06.08.12.15.15.06.04.13.06.2.06h10.6c.52-.01.53-.78,0-.8h-.59v-1.17h1.86c-.06.24-.02,2.65-.03,2.96H1.29c-.09,0-.18-.02-.25-.07-.08-.05-.14-.11-.18-.19-.04-.08-.06-.17-.06-.26,0-.09.03-.18.08-.25l2.44-3.75c.05-.07.11-.13.18-.17.07-.04.15-.06.24-.06,2.7,0,9.27,0,12.04,0-.3.28-.55.62-.72.99ZM12.16,11.37v1.17h-.99v-1.17h.99ZM10.37,11.37v1.17h-1.51v-1.17h1.51ZM8.06,11.37v1.17h-.99v-1.17h.99ZM6.27,11.37v1.17h-2.6l.76-1.17h1.84ZM21.56,30.78h1.09c.15,0,.3.06.41.17.11.11.17.26.17.41v.41h-8.93v-.41c0-.15.06-.3.17-.41.11-.11.26-.17.41-.17h6.67ZM16.37,29.98v-12.43h.99v12.43h-.99ZM19.37,21.02v.99h-1.21v-.99h1.21ZM18.16,20.22v-2.66h1.21v2.66h-1.21ZM19.37,22.81v1.92h-1.21v-1.92h1.21ZM19.37,25.53v.99h-1.21v-.99h1.21ZM19.37,27.32v2.66h-1.21v-2.66h1.21ZM21.96,16.76h-6.38v-4.96c0-.59.24-1.16.65-1.57.42-.42.98-.65,1.57-.65,1.11,0,3.03,0,4.15,0v7.19ZM25.98,14.32h-3.23v-.99h3.23v.99ZM25.98,12.53h-3.23v-1.17h3.23v1.17ZM25.98,10.57h-3.23v-.99h3.23v.99ZM22.47,8.78s-.08,0-.11,0h-1.99V3.76l5.65,4.38s.09.06.14.07c.05.01.1.02.15.01.05,0,.1-.02.15-.05.05-.03.09-.06.12-.1.03-.04.06-.09.07-.14s.02-.1.01-.15c0-.05-.02-.1-.05-.15-.03-.05-.06-.09-.1-.12l-6.14-4.76v-.99l9.06,7.02h-6.95ZM31.22,15.88h-4.45v-6.31h3.51c.25,0,.49.1.66.27.18.18.27.41.27.66v5.37Z"/>
  <path class="cls-1" d="M19.55,10.62h-1.26c-.47,0-.92.19-1.25.52-.33.33-.52.78-.52,1.25v1.55c0,.11.04.21.12.28s.18.12.28.12h2.62c.11,0,.21-.04.28-.12s.12-.18.12-.28v-2.92c0-.11-.04-.21-.12-.28s-.18-.12-.28-.12ZM19.16,13.54h-1.83v-1.15c0-.26.1-.5.28-.69s.43-.28.69-.28h.86v2.13ZM19.55,15h-.78c-.11,0-.21.04-.28.12-.07.07-.12.18-.12.28s.04.21.12.28.18.12.28.12h.78c.52-.01.52-.78,0-.8Z"/>
</svg>