<?xml version="1.0" encoding="UTF-8"?>
<svg id="Layer_1" xmlns="http://www.w3.org/2000/svg" version="1.1" viewBox="0 0 12 12">
  <!-- Generator: Adobe Illustrator 29.3.1, SVG Export Plug-In . SVG Version: 2.1.0 Build 151)  -->
  <defs>
    <style>
      .st0 {
        fill: none;
        stroke: #797979;
      }
    </style>
  </defs>
  <path class="st0" d="M11.08,10.63h-1.17V1.4c0-.22-.08-.44-.23-.59-.15-.16-.34-.25-.55-.25H2.9c-.21,0-.4.09-.55.25-.15.16-.23.37-.23.59v9.23H.95c-.1,0-.2.04-.28.12-.07.08-.11.19-.11.3s.04.22.11.3c.07.08.17.12.28.12h10.13c.1,0,.2-.04.28-.12.07-.08.11-.19.11-.3s-.04-.22-.11-.3c-.07-.08-.17-.12-.28-.12ZM9.14,1.4v9.23h-.78V1.4h.78ZM2.9,1.4h4.67v9.23H2.9V1.4ZM6.8,6.23c0,.12-.03.25-.1.35-.06.1-.16.18-.26.23-.11.05-.22.06-.34.04-.11-.02-.22-.08-.3-.17-.08-.09-.14-.2-.16-.32-.02-.12-.01-.25.03-.36.04-.11.12-.21.22-.28.1-.07.21-.11.32-.11.15,0,.3.07.41.18.11.12.17.28.17.44Z"/>
</svg>