<svg width="24" height="21" viewBox="0 0 24 21" fill="none" xmlns="http://www.w3.org/2000/svg"><path d="M15.2199 20.9999C17.0679 20.9999 18.5716 19.4964 18.5716 17.6482V16C18.5716 15.6924 18.3749 15.4196 18.0833 15.3224L13.7976 13.8937C13.5164 13.7999 13.2064 13.8894 13.0189 14.1189L11.9563 15.4185C9.04787 14.239 6.76114 11.9527 5.58087 9.04393L6.88044 7.98151C7.10997 7.79334 7.19998 7.48394 7.10615 7.20243L5.67749 2.91673C5.58017 2.62526 5.30763 2.42847 4.99986 2.42847H3.3477C1.50204 2.42847 0.000171125 3.92999 1.05762e-06 5.77552C-0.00149367 9.84188 1.58142 13.665 4.45577 16.5408C7.33064 19.4162 11.153 21 15.2193 21L15.2199 20.9999ZM3.34788 3.85708H4.48521L5.59511 7.18701L4.27824 8.26387C4.04423 8.45503 3.95588 8.77242 4.05752 9.05673C5.37588 12.7499 8.2496 15.6239 11.9427 16.9419C12.2249 17.0417 12.5439 16.9545 12.7356 16.7214L13.8124 15.4045L17.1425 16.5147V17.6482C17.1425 18.7085 16.2797 19.5714 15.2195 19.5714C11.5348 19.5714 8.07111 18.1361 5.4661 15.5305C2.86109 12.9247 1.42734 9.46036 1.42814 5.77585C1.42848 4.7179 2.28945 3.85727 3.34757 3.85727L3.34788 3.85708Z" fill="white"></path><path d="M5.5 7L4.5 4H3L2 4.5L1.5 8.5L4 14L8.5 18L15 19.5L17 18.1803V16.5L14 15.5L12.5 17L9.5 16L6.5 13.5L4.5 10.5L4 8.5L5.5 7Z" stroke="white" fill="white"></path><path d="M13.4682 0.000188828C12.6633 0.000188828 12 0.66349 12 1.46841V9.78821C12 9.97813 12.11 10.1508 12.282 10.2313C12.4541 10.3119 12.6571 10.2855 12.8029 10.1639L15.6027 7.83067H22.2777C23.0826 7.83067 23.7459 7.16737 23.7459 6.36244V1.46822C23.7459 0.663302 23.0826 0 22.2777 0L13.4682 0.000188828ZM13.4682 0.978949H22.2776C22.5571 0.978949 22.767 1.1887 22.767 1.46841V6.36263C22.767 6.64219 22.5573 6.8521 22.2776 6.8521L15.426 6.85193C15.3113 6.8521 15.2004 6.89224 15.1124 6.96582L12.9789 8.74375V1.46849C12.9789 1.18894 13.1886 0.979028 13.4683 0.979028L13.4682 0.978949Z" fill="white"></path><path d="M12.7557 1.5V9L15.2557 6.5L21.7557 7L22.7557 6.5V1.5L22.2557 1H13.7557L12.7557 1.5Z" fill="white" stroke="white"></path></svg>