<?xml version="1.0" encoding="UTF-8"?>
<svg id="Layer_1" data-name="Layer 1" xmlns="http://www.w3.org/2000/svg" viewBox="0 0 34 30.94">
  <defs>
    <style>
      .cls-1 {
        fill: #8282be;
      }

      .cls-2 {
        fill: #ebf1e0;
      }

      .cls-3 {
        fill: #02a5cc;
      }

      .cls-4 {
        fill: #fff;
      }

      .cls-5 {
        fill: #f7e549;
      }

      .cls-6 {
        fill: #42434a;
      }

      .cls-7 {
        fill: #a1ddf9;
      }

      .cls-8 {
        fill: #f7a130;
      }

      .cls-9 {
        fill: #6abfeb;
      }

      .cls-10 {
        fill: #febf10;
      }

      .cls-11 {
        fill: #46489d;
      }

      .cls-12 {
        fill: #645ca8;
      }

      .cls-13 {
        fill: #dbf1fd;
      }
    </style>
  </defs>
  <path class="cls-2" d="M24.11,13.47c0-.78-.64-1.41-1.44-1.41h-6.56c-.79,0-1.44-.63-1.44-1.41s.64-1.41,1.44-1.41h1.49c.79,0,1.44-.63,1.44-1.41s-.64-1.41-1.44-1.41H6.51c-.79,0-1.44.63-1.44,1.41s.64,1.41,1.44,1.41h1.49c.79,0,1.44.63,1.44,1.41s-.64,1.41-1.44,1.41H1.44c-.79,0-1.44.63-1.44,1.41s.64,1.41,1.44,1.41h2.27c.79,0,1.44.63,1.44,1.41s-.64,1.41-1.44,1.41h-.08c-.79,0-1.44.63-1.44,1.41s.64,1.41,1.44,1.41h6.99c.79,0,1.44-.63,1.44-1.41s-.64-1.41-1.44-1.41h-2.04c-.79,0-1.44-.63-1.44-1.41s.64-1.41,1.44-1.41h14.09c.79,0,1.44-.63,1.44-1.41Z"/>
  <path class="cls-2" d="M27.61,3.34c0,.16.13.29.29.29h.55c.16,0,.29.13.29.29s-.13.29-.29.29h-2.59c-.16,0-.29-.13-.29-.29s.13-.29.29-.29h.55c.16,0,.29-.13.29-.29s-.13-.29-.29-.29h-1.23c-.16,0-.29-.13-.29-.29s.13-.29.29-.29h3.95c.16,0,.29.13.29.29s-.13.29-.29.29h-1.23c-.16,0-.29.13-.29.29Z"/>
  <path class="cls-2" d="M21.57,26.58c0-.78-.6-1.41-1.34-1.41h-1.06c-.74,0-1.34-.63-1.34-1.41s.6-1.41,1.34-1.41h13.48c.74,0,1.34.63,1.34,1.41s-.6,1.41-1.34,1.41h-3.5c-.74,0-1.34.63-1.34,1.41s.6,1.41,1.34,1.41h.41c.74,0,1.34.63,1.34,1.41s-.6,1.41-1.34,1.41H11.46c-.74,0-1.34-.63-1.34-1.41s.6-1.41,1.34-1.41h8.77c.74,0,1.34-.63,1.34-1.41Z"/>
  <path class="cls-6" d="M32.79,30.94h-1.75c-.05,0-.1-.04-.1-.1s.04-.1.1-.1h1.75c.05,0,.1.04.1.1s-.04.1-.1.1Z"/>
  <path class="cls-6" d="M29.29,30.94H2.24c-.05,0-.1-.04-.1-.1s.04-.1.1-.1h27.05c.05,0,.1.04.1.1s-.04.1-.1.1Z"/>
  <path class="cls-9" d="M21.61,2.18c.72,1.72-.1,3.7-1.83,4.42-1.72.72-3.7-.1-4.42-1.83-.72-1.72.1-3.7,1.83-4.42,1.72-.72,3.7.1,4.42,1.83Z"/>
  <path class="cls-3" d="M20.47.74c.13.19.24.39.33.61.74,1.79-.11,3.85-1.9,4.59-.92.38-1.9.34-2.75-.03.94.9,2.36,1.22,3.64.69,1.72-.72,2.54-2.69,1.83-4.42-.25-.6-.65-1.09-1.14-1.44Z"/>
  <path class="cls-6" d="M18.5,6.96c-1.37,0-2.67-.8-3.23-2.14-.73-1.77.11-3.81,1.88-4.55.86-.36,1.8-.36,2.66,0,.86.36,1.53,1.02,1.88,1.88.73,1.77-.11,3.81-1.88,4.54-.43.18-.88.26-1.31.27ZM18.47.19c-.42,0-.84.09-1.24.25-1.67.69-2.47,2.62-1.77,4.29.69,1.67,2.62,2.47,4.29,1.77,1.67-.69,2.47-2.62,1.77-4.29-.34-.81-.97-1.44-1.78-1.78-.41-.17-.84-.25-1.27-.25Z"/>
  <path class="cls-1" d="M17.8,17.88c4.14.01,7.96.96,11.03,2.55.16-.81.24-1.65.25-2.51.02-6.9-5.22-12.51-11.7-12.53-6.49-.02-11.76,5.56-11.78,12.46,0,1.02.11,2.02.33,2.97,3.21-1.84,7.35-2.95,11.88-2.93Z"/>
  <path class="cls-13" d="M16.22,13.79l-1.86,1.85c-.06.06-.14.05-.2,0l-1.85-1.86c-.06-.06-.05-.14,0-.2l1.86-1.85c.06-.06.14-.05.2,0l1.85,1.86c.06.06.05.14,0,.2Z"/>
  <path class="cls-13" d="M10.09,13.77l-1.86,1.85c-.05.06-.14.05-.2,0l-1.8-1.81c.05-.15.1-.3.15-.44l1.66-1.65c.05-.06.14-.05.2,0l1.85,1.86c.06.05.05.14,0,.2Z"/>
  <path class="cls-13" d="M22.36,13.81l-1.86,1.85c-.06.06-.14.05-.2,0l-1.85-1.86c-.06-.06-.05-.14,0-.2l1.86-1.85c.06-.06.14-.05.2,0l1.85,1.86c.06.06.05.14,0,.2Z"/>
  <path class="cls-11" d="M25.65,10.9c.03.05.06.1.09.15.17.31.33.63.47.96l.2-.19c.08-.08.21-.08.28,0l1.63,1.64c-.08-.23-.17-.46-.27-.69-.17-.4-.35-.78-.55-1.16-.22-.41-.47-.8-.73-1.18l-.31-.29-.81.76Z"/>
  <path class="cls-11" d="M29.08,17.8v.11c0,.86-.09,1.7-.25,2.51-.13-.07-.25-.13-.38-.19-.02-.01-.04-.02-.07-.03-.01,0-.03-.01-.04-.02-.1-.05-.19-.09-.29-.14-.02,0-.03-.01-.05-.02,0,0,0,0,0,0-.28-.13-.57-.25-.87-.37h0c.13-.73.2-1.48.2-2.25,0-.76-.06-1.51-.18-2.23l1.3-1.29s0,0,0-.01c.13.42.25.85.34,1.28.03.13.05.26.08.4.03.16.05.32.08.48,0,.02,0,.05,0,.07,0,.07.02.14.03.2,0,.01,0,.02,0,.03h0c.01.11.03.23.03.34,0,.09.02.18.02.27,0,.06.01.12.01.18h0s0,.07,0,.1c0,.07,0,.13,0,.2,0,0,0,.02,0,.03,0,.04,0,.08,0,.12,0,.08,0,.15,0,.23Z"/>
  <path class="cls-11" d="M19.65,5.62c1.91.75,3.59,2.01,4.88,3.63.24.3.47.62.68.94l.79-.74c-1.65-1.93-3.86-3.3-6.36-3.83Z"/>
  <path class="cls-13" d="M26.78,10.44h0c-.24-.34-.49-.67-.76-.98h0c.27.31.52.64.76.98Z"/>
  <path class="cls-13" d="M25.65,10.9l-1.96,1.84s-.02.01-.03.02c0,0-.02.02-.03.02-.01,0-.02.02-.04.02-.01,0-.02.01-.03.02-.01,0-.03,0-.04.01-.01,0-.02,0-.03,0-.02,0-.03,0-.05,0,0,0-.02,0-.03,0,0,0,0,0,0,0-.01,0-.02,0-.03,0-.02,0-.03,0-.04,0-.01,0-.02,0-.03,0-.01,0-.03,0-.04-.01,0,0-.02-.01-.03-.02-.01,0-.02-.01-.04-.02-.01,0-.02-.01-.03-.02,0,0-.02-.01-.02-.02l-2.76-2.62-2.77,2.6s-.01.01-.02.02c-.01,0-.02.02-.03.02-.01,0-.02.01-.03.02-.01,0-.02.01-.04.02-.01,0-.02,0-.04.01-.01,0-.02,0-.04,0-.01,0-.03,0-.04,0-.01,0-.02,0-.04,0-.01,0-.02,0-.04,0-.01,0-.03,0-.04,0-.01,0-.02,0-.04,0-.01,0-.02,0-.04-.01-.01,0-.02-.01-.04-.02-.01,0-.02-.01-.03-.02-.01,0-.02-.02-.03-.03,0,0-.02-.01-.02-.02l-2.76-2.62-2.78,2.6s-.02.01-.03.02c0,0-.02.02-.03.02-.01,0-.03.02-.04.02,0,0-.02,0-.03.01-.02,0-.03.01-.05.02,0,0-.01,0-.02,0-.02,0-.04,0-.06,0h-.01s-.05,0-.08,0c0,0-.02,0-.02,0-.02,0-.04,0-.05-.02,0,0-.02,0-.03-.01-.02,0-.03-.01-.04-.02,0,0-.02-.01-.03-.02,0,0-.02-.01-.03-.02l-2.76-2.62-.13.12c.19-.27.4-.52.61-.77l2.55,2.42,2.77-2.6c.16-.15.4-.15.55,0l2.76,2.62,2.78-2.6c.16-.15.4-.15.55,0l2.76,2.62,1.81-1.69c.15.23.29.46.43.7Z"/>
  <path class="cls-7" d="M25.22,10.2c.15.23.29.46.43.7l.81-.76.31.29c-.24-.34-.49-.67-.76-.98l-.79.74Z"/>
  <path class="cls-13" d="M28.45,13.59l-.13-.13c.05.13.09.27.13.4.07-.08.07-.2,0-.27Z"/>
  <path class="cls-13" d="M24.63,13.57c-.08.08-.08.2,0,.28l1.76,1.77c.08.08.2.08.28,0l.48-.47c-.18-1.11-.51-2.16-.95-3.15l-1.58,1.57Z"/>
  <path class="cls-7" d="M26.41,11.81l-.2.19c.44.99.76,2.04.95,3.15l1.3-1.29s0,0,0-.01c-.04-.13-.09-.27-.13-.4l-1.64-1.64c-.08-.08-.2-.08-.28,0Z"/>
  <path class="cls-4" d="M17.96,10.18c-.17.3-.56.4-.86.23-.3-.17-.4-.56-.23-.86.17-.3.56-.4.86-.23.3.17.4.56.23.86Z"/>
  <path class="cls-4" d="M11.83,10.16c-.17.3-.56.4-.86.23-.3-.17-.4-.56-.23-.86.17-.3.56-.4.86-.23.3.17.4.56.23.86Z"/>
  <path class="cls-4" d="M24.08,10.2c-.17.3-.56.4-.86.23-.3-.17-.4-.56-.23-.86.17-.3.56-.4.86-.23.3.17.4.56.23.86Z"/>
  <path class="cls-4" d="M17.94,15.98c-.17.3-.56.4-.86.23-.3-.17-.4-.56-.23-.86.17-.3.56-.4.86-.23.3.17.4.56.23.86Z"/>
  <path class="cls-4" d="M11.82,15.96c-.17.3-.56.4-.86.23-.3-.17-.4-.56-.23-.86.17-.3.56-.4.86-.23.3.17.4.56.23.86Z"/>
  <path class="cls-4" d="M6.36,15.94c-.14.24-.41.35-.67.3.05-.42.12-.83.21-1.24.08.01.15.04.22.08.3.17.4.56.23.86Z"/>
  <path class="cls-4" d="M24.07,16c-.17.3-.56.4-.86.23-.3-.17-.4-.56-.23-.86.17-.3.56-.4.86-.23.3.17.4.56.23.86Z"/>
  <path class="cls-4" d="M28.99,16.32c-.07-.01-.15-.04-.22-.08-.3-.17-.4-.56-.23-.86.06-.11.15-.19.25-.24,0,0,0,0,0,0,.03.13.05.26.08.4.03.16.05.32.08.48,0,.02,0,.05,0,.07,0,.07.02.14.03.2,0,.01,0,.02,0,.03Z"/>
  <path class="cls-6" d="M5.86,20.96l-.03-.13c-.22-.98-.33-1.99-.33-2.99.01-3.36,1.25-6.52,3.49-8.89,2.22-2.35,5.17-3.65,8.3-3.67.03,0,.05,0,.08,0,3.16,0,6.13,1.33,8.36,3.72,2.23,2.39,3.45,5.55,3.44,8.91,0,.85-.09,1.7-.25,2.53l-.02.13-.12-.06c-3.18-1.65-6.98-2.52-10.99-2.53-4.32-.02-8.53,1.02-11.83,2.92l-.11.07ZM17.29,5.47c-3.08.01-5.98,1.29-8.16,3.61-2.21,2.34-3.43,5.45-3.44,8.76,0,.95.1,1.89.3,2.82,3.26-1.84,7.38-2.86,11.63-2.88.06,0,.13,0,.19,0,3.99.01,7.77.88,10.96,2.5.14-.78.22-1.57.22-2.37,0-3.31-1.19-6.43-3.39-8.78-2.19-2.35-5.11-3.65-8.22-3.65-.03,0-.05,0-.08,0Z"/>
  <path class="cls-9" d="M27.84,23.99l-3.27-.25c-4.82-.37-9.68-.38-14.5-.04l-3.27.23c-1.24.09-2.3-.7-2.3-1.69v-3.09c.01-.88.85-1.6,1.93-1.68l3.66-.26c4.83-.34,9.68-.33,14.5.04l3.66.28c1.09.08,1.91.82,1.91,1.69v3.09c-.01,1-1.08,1.77-2.32,1.68Z"/>
  <path class="cls-3" d="M28.93,17.68v2.97c-.01,1-1.08,1.77-2.32,1.68l-3.27-.25c-4.82-.37-9.68-.38-14.5-.04l-3.27.23c-.38.03-.74-.03-1.06-.15v.11c0,1,1.06,1.78,2.3,1.69l3.27-.23c4.83-.34,9.68-.33,14.5.04l3.27.25c1.24.09,2.3-.68,2.31-1.68v-3.09c.01-.68-.49-1.27-1.22-1.54Z"/>
  <path class="cls-6" d="M28.05,24.1c-.07,0-.14,0-.22,0l-3.27-.25c-4.81-.37-9.68-.38-14.49-.04l-3.27.23c-.7.05-1.4-.18-1.86-.61-.35-.33-.54-.75-.54-1.18v-3.09c.01-.93.88-1.7,2.02-1.78l3.66-.26c4.82-.34,9.7-.32,14.52.04l3.66.28c1.14.09,2,.86,2,1.79v3.09c-.01.43-.2.85-.56,1.18-.42.39-1.02.61-1.65.61ZM27.85,23.89c.65.05,1.29-.16,1.72-.55.31-.29.48-.65.48-1.03v-3.09c.01-.83-.77-1.51-1.81-1.59l-3.66-.28c-4.81-.37-9.68-.38-14.49-.04l-3.66.26c-1.04.07-1.83.75-1.83,1.58v3.09c-.01.38.16.75.47,1.04.42.4,1.07.61,1.71.56l3.27-.23c4.82-.34,9.7-.33,14.52.04l3.27.25Z"/>
  <path class="cls-5" d="M14.89,26.78l-8.88.1c-.15,0-.27-.12-.27-.26l-.03-2.79c0-.15.12-.27.26-.27l8.88-.1c.15,0,.27.12.27.26l.03,2.79c0,.15-.12.27-.26.27Z"/>
  <path class="cls-10" d="M14.77,26.01l-8.66.1c-.21,0-.38-.16-.38-.37v.77c.01.21.18.38.39.37l8.66-.1c.21,0,.38-.17.37-.38v-.77c0,.21-.17.38-.38.38Z"/>
  <path class="cls-6" d="M6.11,27.01c-.13,0-.25-.05-.35-.14-.09-.09-.15-.22-.15-.35l-.03-2.57c0-.27.22-.5.49-.5l8.66-.1s0,0,0,0c.27,0,.49.22.5.49l.03,2.57c0,.13-.05.26-.14.35-.09.09-.22.15-.35.15l-8.66.1s0,0,0,0ZM14.74,23.58h0l-8.66.1c-.07,0-.13.03-.18.08-.05.05-.07.11-.07.18l.03,2.57c0,.07.03.13.08.18.05.05.11.07.18.07l8.66-.1c.07,0,.13-.03.18-.08.05-.05.07-.11.07-.18l-.03-2.57c0-.07-.03-.13-.08-.18-.05-.05-.11-.07-.18-.07Z"/>
  <path class="cls-5" d="M20.19,26.72l8.88-.1c.15,0,.26-.12.26-.27l-.03-2.79c0-.15-.12-.26-.27-.26l-8.88.1c-.15,0-.26.12-.26.27l.03,2.79c0,.15.12.26.27.26Z"/>
  <path class="cls-10" d="M20.29,25.95l8.66-.1c.21,0,.38-.17.37-.38v.77c.01.21-.16.38-.36.38l-8.66.1c-.21,0-.38-.16-.38-.37v-.77c0,.21.16.38.37.37Z"/>
  <path class="cls-6" d="M20.29,26.84c-.27,0-.49-.22-.5-.49l-.03-2.57c0-.13.05-.26.14-.35.09-.09.22-.15.35-.15l8.66-.1s0,0,0,0c.27,0,.49.22.5.49l.03,2.57c0,.13-.05.26-.14.35-.09.09-.22.15-.35.15l-8.66.1s0,0,0,0ZM28.93,23.42h0l-8.66.1c-.07,0-.13.03-.18.08-.05.05-.07.11-.07.18l.03,2.57c0,.14.12.26.26.26h0l8.66-.1c.07,0,.13-.03.18-.08.05-.05.07-.11.07-.18l-.03-2.57c0-.14-.12-.26-.26-.26Z"/>
  <path class="cls-12" d="M24.91,21.66c-4.95-.95-10.04-.89-14.97.18-1.03.22-1.76,1.15-1.75,2.2l.02,2.13c.03,2.31,1.92,4.16,4.23,4.14,1.96-.02,3.64-1.4,4.05-3.32l.32-1.53c.15-.69,1.12-.7,1.28-.02l.36,1.53c.45,1.91,2.16,3.25,4.12,3.22,2.31-.03,4.16-1.92,4.14-4.23l-.02-2.13c-.01-1.05-.76-1.96-1.8-2.16Z"/>
  <path class="cls-1" d="M15.55,20.45l-.08.08-.13.13-.74.72-.13.13-.13.13-5.57,5.46-.09.09-.09.09-.48.47-.1-.11-.19-.2-.17-.18c-.07-.26-.11-.54-.13-.82l.11-.11.11-.11.66-.65.12-.11.12-.12,3.52-3.45.29-.28.79-.78.14-.14.14-.13c.67-.08,1.34-.14,2.01-.18l.04.04Z"/>
  <path class="cls-1" d="M18.35,20.34l-.12.12h0l-.12.12-.67.67h0l-.12.12-.12.12-7.4,7.32-.08.08-.08.08-.47.47-.08.08-.08.08c-.22-.2-.41-.43-.59-.67l.08-.08.08-.08.48-.48.09-.08.08-.08,6.65-6.59.12-.12h0l.12-.12h0l.7-.69h0l.12-.12.12-.12h0c.43,0,.85-.01,1.27,0Z"/>
  <path class="cls-11" d="M17.57,24.74c-.15-.65-1.54-.63-1.68.02l-.3,1.46c-.38,1.82-1.96,3.13-3.8,3.15-1.01.01-1.93-.36-2.63-.99.71,1.09,1.94,1.8,3.32,1.78,1.84-.02,3.42-1.33,3.8-3.15l.3-1.46c.07-.32.8-.49,1.06-.5l-.07-.31Z"/>
  <path class="cls-12" d="M22.16,29.23c-.1,0-.2,0-.31-.01l-.52.51c.32.13.65.22,1,.26l.96-.95c-.36.12-.74.18-1.14.19Z"/>
  <path class="cls-11" d="M26.7,23.99c0-.71-.37-1.34-.92-1.72.14.28.23.59.23.93l.02,1.89.67-.67v-.43Z"/>
  <path class="cls-11" d="M19.53,28.25c.44.67,1.07,1.19,1.81,1.49l.52-.51c-.88-.06-1.69-.41-2.33-.98Z"/>
  <path class="cls-11" d="M25.82,26.55c-.4,1.19-1.34,2.12-2.53,2.5l-.96.95c.17.02.34.03.51.03,2.17-.03,3.91-1.83,3.88-4.02v-.35s-.91.89-.91.89Z"/>
  <path class="cls-1" d="M23.3,29.05l2.53-2.5c.14-.42.22-.87.22-1.34v-.13s-4.19,4.14-4.19,4.14c.1,0,.2.01.31.01.4,0,.78-.07,1.14-.19Z"/>
  <path class="cls-12" d="M25.82,26.55l.9-.89v-1.24s-.69.67-.69.67v.13c0,.47-.07.92-.21,1.34Z"/>
  <path class="cls-4" d="M12.57,29.16c-.29,0-.59-.03-.87-.1-.13-.03-.21-.16-.17-.29.03-.13.16-.21.29-.17.26.06.52.09.8.09h0c.13,0,.23.1.24.23,0,.13-.1.24-.23.24-.01,0-.03,0-.04,0Z"/>
  <path class="cls-4" d="M10.98,28.77s-.07,0-.11-.03c-1.2-.63-1.96-1.86-1.98-3.22l-.02-1.75c0-.13.1-.24.23-.24h0c.13,0,.23.1.24.23l.02,1.75c.01,1.18.67,2.26,1.72,2.81.12.06.16.2.1.32-.04.08-.12.13-.21.13Z"/>
  <path class="cls-8" d="M27.31,23.78c0-.64-.24-1.24-.63-1.71-.39-.47-.93-.8-1.56-.92-2.29-.44-4.59-.67-6.88-.69h0c-.43,0-.85,0-1.28,0-.49.01-.99.03-1.48.06-.7.04-1.41.11-2.11.19-1.22.15-2.43.35-3.64.61-1.25.27-2.14,1.4-2.13,2.68l.02,2.16c0,.06,0,.12,0,.19.02.38.08.75.19,1.1.15.5.38.97.68,1.39.17.25.37.47.59.68.86.82,2.02,1.32,3.3,1.3,2.22-.03,4.09-1.56,4.55-3.73l.33-1.56c.03-.15.15-.17.21-.17.06,0,.18.02.21.17l.37,1.55c.51,2.16,2.42,3.65,4.63,3.62,2.6-.03,4.68-2.17,4.65-4.76l-.02-2.16ZM22.67,29.8c-1.79.02-3.34-1.18-3.75-2.93l-.37-1.55c-.12-.52-.57-.87-1.1-.86-.54,0-.97.36-1.08.89l-.33,1.56c-.37,1.75-1.88,3-3.68,3.02-1.02.01-1.96-.38-2.65-1.04-.22-.2-.41-.43-.58-.69-.2-.31-.36-.64-.47-1-.1-.33-.15-.68-.16-1.04v-.68s-.03-1.48-.03-1.48c0-.86.59-1.61,1.42-1.79.79-.17,1.58-.32,2.38-.44.73-.11,1.45-.2,2.18-.26.51-.05,1.02-.08,1.53-.11h0c.44-.02.88-.04,1.31-.04,2.55-.04,5.09.19,7.63.68.84.16,1.45.9,1.46,1.76l.03,2.16c.02,2.1-1.66,3.82-3.76,3.85Z"/>
  <path class="cls-6" d="M27.43,23.78c-.02-1.34-.98-2.49-2.29-2.75-2.25-.43-4.52-.67-6.79-.69h0c-.42,0-.85,0-1.27,0h0c-.52,0-1.04.03-1.56.06-.67.04-1.34.1-2.01.18-1.27.14-2.54.35-3.81.63-1.3.28-2.24,1.46-2.22,2.8l.03,2.16c0,.1,0,.2.01.29.02.28.06.55.13.82.15.6.41,1.16.76,1.65.18.24.37.47.59.67.87.83,2.04,1.34,3.33,1.34h.06c2.27-.03,4.19-1.6,4.66-3.83l.33-1.56s.03-.08.1-.08h0c.06,0,.08.03.09.08l.37,1.55c.52,2.19,2.44,3.72,4.69,3.72h.06c2.66-.03,4.8-2.22,4.77-4.88l-.03-2.16ZM27.22,26c0,2.5-2.02,4.56-4.53,4.59-2.15.03-4.02-1.43-4.52-3.53l-.37-1.55c-.04-.16-.16-.26-.32-.26h0c-.17,0-.29.1-.32.27l-.33,1.56c-.45,2.12-2.27,3.61-4.43,3.64h-.05c-1.22,0-2.34-.48-3.16-1.27-.22-.21-.41-.43-.59-.68-.24-.34-.43-.71-.57-1.1-.16-.44-.25-.92-.26-1.41,0-.02,0-.05,0-.07l-.02-2.16c-.02-1.23.84-2.31,2.04-2.57,1.16-.25,2.32-.45,3.48-.59.71-.09,1.41-.15,2.12-.2.5-.03.99-.06,1.49-.07h0c.34,0,.68-.01,1.02-.01.09,0,.17,0,.26,0,2.33.02,4.66.25,6.98.69,1.2.23,2.08,1.29,2.1,2.52l.02,2.16v.06Z"/>
  <path class="cls-6" d="M26.52,23.79c0-.91-.66-1.7-1.55-1.87-2.5-.48-5.02-.71-7.53-.68h0c-.44,0-.87.02-1.31.04h0c-.51.02-1.02.06-1.53.1-.72.06-1.45.15-2.17.25-.85.12-1.7.28-2.55.46-.89.19-1.52.99-1.51,1.91l.02,1.6v.56c.01.39.07.77.19,1.13.11.35.27.69.47.99.17.25.36.48.58.68.7.66,1.65,1.07,2.69,1.07h.05c1.85-.02,3.41-1.3,3.79-3.11l.33-1.56c.1-.47.49-.79.97-.79.47,0,.88.3.99.77l.37,1.55c.42,1.79,1.99,3.02,3.82,3.02h.05c1.05-.01,2.02-.43,2.76-1.18.73-.75,1.13-1.74,1.12-2.79l-.03-2.16ZM25.26,28.57c-.69.71-1.61,1.1-2.59,1.11-.02,0-.03,0-.05,0-1.72,0-3.19-1.16-3.59-2.84l-.37-1.55c-.13-.57-.62-.95-1.2-.95,0,0-.01,0-.02,0-.59,0-1.07.4-1.2.98l-.33,1.56c-.36,1.7-1.82,2.9-3.56,2.92h-.04c-.94,0-1.83-.35-2.52-1-.02-.02-.04-.03-.05-.05-.2-.2-.37-.41-.52-.64-.2-.31-.36-.65-.46-1.01-.08-.3-.13-.62-.13-.95v-.79s-.02-1.37-.02-1.37c0-.8.55-1.5,1.32-1.67.73-.16,1.47-.3,2.21-.41.73-.12,1.46-.21,2.19-.28.51-.05,1.03-.09,1.54-.11.44-.02.88-.04,1.32-.05.22,0,.44,0,.66,0,2.36,0,4.72.23,7.07.68.78.15,1.35.84,1.36,1.64l.03,2.16c.01.98-.36,1.91-1.05,2.62Z"/>
</svg>