<?xml version="1.0" encoding="UTF-8"?>
<svg id="Layer_1" xmlns="http://www.w3.org/2000/svg" version="1.1" viewBox="0 0 33 40">
  <!-- Generator: Adobe Illustrator 29.3.1, SVG Export Plug-In . SVG Version: 2.1.0 Build 151)  -->
  <defs>
    <style>
      .st0 {
        fill: #f15725;
      }
    </style>
  </defs>
  <path class="st0" d="M11.92,10.11c-3.49,3.92-5.89,9.55-6.11,10.08l-3.87-1.66c-1.11-.48-1.39-1.93-.53-2.79l5.15-5.15c.8-.8,1.97-1.16,3.1-.94l2.26.46ZM14.47,27.5c.51.51,1.27.65,1.92.34,1.98-.92,6.24-3.1,9-5.85,7.85-7.85,7.92-14.25,7.46-16.99-.12-.68-.67-1.23-1.35-1.35-2.74-.46-9.14-.39-16.99,7.46-2.75,2.75-4.91,7.01-5.85,9-.31.65-.15,1.42.34,1.92l5.47,5.47ZM26.39,24.59c-3.92,3.49-9.55,5.89-10.08,6.11l1.66,3.87c.48,1.11,1.93,1.39,2.79.53l5.15-5.15c.8-.8,1.16-1.97.94-3.1l-.46-2.26ZM11.49,29.04c.34,1.81-.26,3.49-1.4,4.64-1.32,1.32-5.41,2.29-8.06,2.81-1.18.22-2.22-.82-2-2,.51-2.65,1.47-6.74,2.81-8.06,1.15-1.15,2.82-1.75,4.64-1.4,2,.38,3.64,2.02,4.02,4.02ZM18.44,14.65c0-1.88,1.54-3.42,3.42-3.42s3.42,1.54,3.42,3.42-1.54,3.42-3.42,3.42-3.42-1.54-3.42-3.42Z"/>
</svg>