<?xml version="1.0" encoding="UTF-8"?>
<svg id="Layer_1" xmlns="http://www.w3.org/2000/svg" version="1.1" viewBox="0 0 138 40">
  <!-- Generator: Adobe Illustrator 29.3.1, SVG Export Plug-In . SVG Version: 2.1.0 Build 151)  -->
  <defs>
    <style>
      .st0 {
        stroke-linecap: round;
      }

      .st0, .st1 {
        stroke: #222;
        stroke-miterlimit: 10;
        stroke-width: 2px;
      }

      .st1 {
        fill: none;
      }
    </style>
  </defs>
  <path class="st1" d="M10.4,3c-1.5,0-2.9.4-4.1,1.2-1.2.8-2.2,2-2.7,3.3-.6,1.3-.7,2.8-.4,4.3.3,1.4,1,2.7,2,3.8,1,1,2.3,1.7,3.8,2,1.4.3,2.9.1,4.3-.4,1.3-.6,2.5-1.5,3.3-2.7.8-1.2,1.2-2.6,1.2-4.1,0-2-.8-3.8-2.2-5.2-1.4-1.4-3.3-2.2-5.2-2.2Z"/>
  <path class="st0" d="M15.9,15.9l5.1,5.1"/>
</svg>