<?xml version="1.0" encoding="UTF-8"?>
<svg id="Layer_1" xmlns="http://www.w3.org/2000/svg" version="1.1" viewBox="0 0 20 20">
  <!-- Generator: Adobe Illustrator 29.3.1, SVG Export Plug-In . SVG Version: 2.1.0 Build 151)  -->
  <defs>
    <style>
      .st0 {
        fill: #4e6fb5;
      }
    </style>
  </defs>
  <path id="Vector" class="st0" d="M17.01,4.71c-.5.3-.6.9-.3,1.3,1.8,3,1.4,6.9-1.1,9.4s-6.4,3-9.4,1.1c-.5-.3-1-.1-1.3.3-.3.5-.1,1,.3,1.3,3.8,2.3,8.6,1.7,11.7-1.4,3.1-3.1,3.7-8,1.4-11.7-.3-.5-.9-.6-1.3-.3Z"/>
  <path id="Vector_2" class="st0" d="M4.71,4.61c2.5-2.5,6.4-3,9.4-1.1.4.2.9.2,1.2-.1,0,0,.1-.1.1-.2.3-.5.1-1-.3-1.3C11.31-.49,6.51,0,3.31,3.21.11,6.31-.39,11.21,1.91,15.01c.3.5.9.6,1.3.3.5-.3.6-.9.3-1.3-1.8-3-1.4-6.9,1.1-9.4h.1Z"/>
  <path id="Vector_3" class="st0" d="M14.21,12.51c.4.1.7,0,1-.2.1-.1.2-.2.2-.4.7-2.1.2-4.4-1.3-5.9s-3.9-2.1-5.9-1.3c-.5.2-.8.7-.6,1.2.2.5.7.8,1.2.6,1.4-.5,2.9-.1,3.9.9s1.4,2.6.9,3.9c-.2.5,0,1,.6,1.2Z"/>
  <path id="Vector_4" class="st0" d="M11.91,15.41c.1,0,.3-.1.4-.2.2-.2.4-.6.2-1-.2-.5-.7-.8-1.2-.6-1.4.5-2.8.1-3.9-.9-1-1-1.4-2.5-.9-3.8.2-.5-.1-1-.6-1.2s-1.1.1-1.2.6c-.7,2.1-.2,4.3,1.4,5.8,1.5,1.5,3.8,2,5.8,1.4v-.1Z"/>
  <path id="Vector_5" class="st0" d="M8.91,8.81c-.7.7-.7,1.7,0,2.4.7.7,1.7.7,2.4,0,.7-.7.7-1.7,0-2.4s-1.7-.7-2.4,0Z"/>
</svg>