<?xml version="1.0" encoding="UTF-8"?>
<svg id="Layer_1" xmlns="http://www.w3.org/2000/svg" version="1.1" viewBox="0 0 34 34">
  <!-- Generator: Adobe Illustrator 29.3.1, SVG Export Plug-In . SVG Version: 2.1.0 Build 151)  -->
  <defs>
    <style>
      .st0 {
        fill: #19579e;
      }

      .st1 {
        fill: #90d5df;
      }

      .st2 {
        fill: #9dbee4;
      }

      .st3 {
        fill: #afafae;
      }

      .st4 {
        fill: #f27878;
      }

      .st5 {
        fill: #cececd;
      }

      .st6 {
        fill: #4a6eb5;
      }
    </style>
  </defs>
  <path class="st2" d="M4.66,24.54l-.4-.4c-.92-.92-.92-2.41,0-3.34L22.51,2.55c.92-.92,2.41-.92,3.34,0l.4.4c.92.92.92,2.41,0,3.34L7.99,24.54c-.92.91-2.43.91-3.34,0Z"/>
  <path class="st6" d="M8.81,20.24l-.26-.26c-.58-.58-.58-1.55,0-2.13l3.99-3.99c.58-.58,1.55-.58,2.13,0l.26.26c.58.58.58,1.55,0,2.13l-3.99,3.99c-.58.58-1.53.58-2.13,0Z"/>
  <path class="st0" d="M9.1,19.9l-.18-.18c-.43-.43-.43-1.14,0-1.56l.82-.82c.43-.43,1.14-.43,1.56,0l.18.18c.43.43.43,1.14,0,1.56l-.82.82c-.43.43-1.14.43-1.56,0Z"/>
  <path class="st1" d="M20.74,11.75l-1.66-5.81,2.26-2.26,1.67,5.79-2.27,2.27Z"/>
  <path class="st4" d="M6.21,18.88l3.72,3.72-1.75,1.75-3.72-3.72,1.75-1.75Z"/>
  <path class="st2" d="M11.36,27.26l-.4-.4c-.92-.92-.92-2.41,0-3.34L29.23,5.27c.92-.92,2.41-.92,3.34,0l.4.4c.92.92.92,2.41,0,3.34L14.69,27.26c-.92.91-2.41.91-3.34,0Z"/>
  <path class="st6" d="M15.66,22.99l-.26-.26c-.58-.58-.58-1.55,0-2.13l3.99-3.99c.58-.58,1.55-.58,2.13,0l.26.26c.58.58.58,1.55,0,2.13l-3.99,3.99c-.6.6-1.55.6-2.13,0Z"/>
  <path class="st0" d="M15.93,22.66l-.18-.18c-.43-.43-.43-1.14,0-1.56l.82-.82c.43-.43,1.14-.43,1.56,0l.18.18c.43.43.43,1.14,0,1.56l-.82.82c-.43.43-1.14.43-1.56,0Z"/>
  <path class="st1" d="M23.75,10.84l5.8,1.66,2.26-2.26-5.79-1.68-2.27,2.27Z"/>
  <path class="st4" d="M13.03,21.66l3.72,3.72-1.75,1.75-3.72-3.72,1.75-1.75Z"/>
  <path class="st5" d="M12.04,33.17l-.07-.08c-.15-.17-.13-.42.04-.57l20.11-17.88c.17-.15.42-.13.57.03l.07.08c.15.17.13.42-.04.57l-20.11,17.88c-.17.15-.42.13-.57-.03Z"/>
  <path class="st3" d="M31.43,18.1l-.17.15c-.17.15-.42.13-.57-.03l-1.81-2.06c-.15-.17-.13-.42.04-.57l.17-.15c.17-.15.42-.13.57.03l1.81,2.06c.15.15.13.41-.04.57Z"/>
  <path class="st5" d="M.54,21.55l-.08-.07c-.17-.15-.18-.4-.04-.57L18.14.8c.15-.17.4-.18.57-.03l.08.07c.17.15.18.4.04.57L1.11,21.52c-.15.17-.4.18-.57.03Z"/>
  <path class="st3" d="M17.96,4.32l-.15.17c-.15.17-.4.18-.57.03l-2.06-1.83c-.17-.15-.18-.4-.04-.57l.15-.17c.15-.17.4-.18.57-.03l2.06,1.83c.17.15.18.4.04.57Z"/>
</svg>